<svg width="16" height="16" viewBox="0 0 16 16" fill="none" xmlns="http://www.w3.org/2000/svg">
<path d="M6 1.25C6.41421 1.25 6.75 1.58579 6.75 2C6.75 2.41421 6.41421 2.75 6 2.75H3.33301C3.17842 2.75009 3.03022 2.81158 2.9209 2.9209C2.81158 3.03022 2.75009 3.17842 2.75 3.33301V12.667C2.75009 12.8216 2.81158 12.9698 2.9209 13.0791C3.03022 13.1884 3.17842 13.2499 3.33301 13.25H6C6.41421 13.25 6.75 13.5858 6.75 14C6.75 14.4142 6.41421 14.75 6 14.75H3.33301C2.78059 14.7499 2.25098 14.5303 1.86035 14.1396C1.46973 13.749 1.25009 13.2194 1.25 12.667V3.33301C1.25009 2.78059 1.46973 2.25098 1.86035 1.86035C2.25098 1.46973 2.78059 1.25009 3.33301 1.25H6Z" fill="#1F1F1F"/>
<path d="M10.1367 4.13672C10.4296 3.84401 10.9044 3.84389 11.1973 4.13672L14.5303 7.46973C14.8154 7.75503 14.8174 8.24291 14.5303 8.53027L11.1973 11.8643C10.9045 12.1569 10.4296 12.1568 10.1367 11.8643C9.84388 11.5714 9.84399 11.0966 10.1367 10.8037L12.1895 8.75H6C5.58579 8.75 5.25 8.41421 5.25 8C5.25 7.58579 5.58579 7.25 6 7.25H12.1895L10.1367 5.19727C9.84383 4.90437 9.84383 4.42961 10.1367 4.13672Z" fill="#1F1F1F"/>
</svg>
