<svg width="134" height="24" viewBox="0 0 134 24" fill="none" xmlns="http://www.w3.org/2000/svg">
<path d="M78.9626 5.39291C81.6537 5.30128 84.456 5.44482 87.1478 5.37969C90.6607 5.29466 93.6437 5.35139 93.2288 9.87449C93.0986 11.2936 92.7525 11.8204 91.6867 12.7167C93.0365 13.4298 92.888 14.5978 92.7506 15.9222C92.6923 16.4862 92.6616 17.0411 92.5602 17.6032C92.023 17.6243 89.5818 17.6576 89.1657 17.5707C89.0237 17.427 89.0701 17.4291 89.061 17.1645C89.1271 16.5322 89.3934 14.9802 89.0276 14.5606C88.6259 14.1 86.3849 14.2191 85.8059 14.2209L81.6864 14.2327C81.6373 14.8361 81.5392 17.1655 81.3272 17.5504C81.0884 17.7714 78.2742 18.6755 77.8489 18.6606C77.6121 18.0847 78.5281 11.3139 78.5216 10.1019C78.5189 9.5703 78.8605 5.79719 78.9626 5.39291ZM89.3194 10.887C89.6302 10.3689 89.8258 9.58872 89.676 8.9899C89.6479 8.87961 89.5615 8.67626 89.4581 8.61672C88.8909 8.28997 83.2364 8.452 82.1686 8.45456C82.0777 9.27417 81.9991 10.2606 81.9494 11.0885L86.3398 11.1068C87.0693 11.1079 88.7299 11.2079 89.3194 10.887Z" fill="black"/>
<path d="M44.7467 5.39141C46.3416 5.34643 48.3981 5.3559 49.9911 5.39843C50.3799 5.82216 50.977 6.69142 51.3546 7.18479C52.6125 8.83489 53.8543 10.4973 55.0799 12.1715C55.4343 12.647 56.4437 14.0306 56.8324 14.4007C57.0734 11.527 57.2714 8.22755 57.6163 5.3965C58.595 5.3473 60.1266 5.36734 61.1108 5.40216C61.1136 6.484 60.872 8.60479 60.7776 9.73548C60.5666 12.3596 60.3419 14.9826 60.1034 17.6043C59.7648 17.6169 59.3771 17.6098 59.034 17.6121C57.6294 17.6149 56.1281 17.6426 54.7317 17.5988C54.3932 17.0344 53.9412 16.5284 53.5431 16.0004L51.4536 13.1902L49.2937 10.3143C48.9669 9.8743 48.3529 8.97266 47.9942 8.63286C47.888 9.17725 47.8382 10.1605 47.7698 10.7747C47.5173 13.0406 47.3705 15.3261 47.1564 17.5982C46.1557 17.9688 44.5956 18.4929 43.5768 18.753C43.5686 18.5407 43.5615 18.3254 43.585 18.114C43.7643 16.5011 43.8958 14.8848 44.0317 13.2677L44.469 8.04866C44.5164 7.48132 44.615 5.8744 44.7467 5.39141Z" fill="black"/>
<path d="M25.3219 5.39855C26.7999 5.32229 29.0603 5.37101 30.5623 5.39461C31.2096 6.07778 32.0341 7.31957 32.6378 8.09602C34.2352 10.1503 35.7912 12.4155 37.405 14.4453C37.472 13.443 37.6327 12.298 37.7242 11.2661C37.8958 9.33111 38.0217 7.32822 38.2358 5.40445C38.7567 5.35841 41.2571 5.3205 41.6688 5.49338C41.7392 5.65748 40.7922 16.5814 40.6722 17.603L39.7322 17.6122C38.2906 17.615 36.749 17.6438 35.3155 17.5998C34.789 16.7935 28.8459 8.84245 28.6155 8.74783C28.4357 9.06907 27.8825 16.6094 27.7749 17.6108C27.1747 17.8062 24.7027 18.6771 24.2406 18.6576C24.1834 17.8809 24.3421 16.4457 24.4099 15.6307L24.8276 10.6416L25.1103 7.29235C25.1505 6.81727 25.2074 5.80993 25.3219 5.39855Z" fill="black"/>
<path d="M101.761 5.39016C103.21 5.34969 104.841 5.37734 106.301 5.39304C108.276 9.23533 110.067 13.4025 111.918 17.3189C111.918 17.3189 111.891 17.4864 111.888 17.5014C111.615 17.704 108.511 17.6154 107.937 17.5965C107.756 17.0998 107.323 16.1179 107.061 15.6626L104.328 15.6576C102.679 15.6502 101.03 15.6541 99.3812 15.669C99.0129 16.2115 98.4364 17.0604 98.1296 17.6185C97.5276 17.6364 94.5702 17.6846 94.209 17.5356C94.1769 17.3566 94.1645 17.3137 94.2744 17.1438C96.7941 13.2635 99.1862 9.22824 101.761 5.39016ZM101.244 12.7217C101.901 12.7465 102.558 12.7543 103.215 12.745C103.992 12.7442 104.94 12.7687 105.703 12.7313C105.488 12.2433 104.051 8.85113 103.742 8.69008C103.189 9.56838 101.605 11.9282 101.244 12.7217Z" fill="black"/>
<path d="M2.67855 5.39307C5.34167 5.30827 8.27049 5.42505 10.964 5.38245C12.0901 5.36464 15.253 5.31212 16.2074 5.4239C16.1705 6.27451 16.0665 7.59869 15.9493 8.43272C15.1051 8.49613 13.6193 8.45147 12.7304 8.45101C10.459 8.43941 8.18753 8.44373 5.91623 8.46393L5.72305 10.9069C8.09449 11.0365 11.3976 10.9351 13.8384 10.9335C14.3733 10.9298 14.9082 10.936 15.4428 10.9522C15.4362 11.7858 15.2402 13.1711 15.127 14.0289C14.1468 14.0721 12.9178 14.04 11.9202 14.0398L5.44849 14.0521C5.3779 15.099 5.27771 16.6025 5.12401 17.6077C4.29175 17.953 2.44605 18.505 1.56508 18.7584C1.56322 17.836 1.69651 16.6053 1.77447 15.6678L2.19017 10.6848L2.47251 7.31888C2.51445 6.82019 2.571 5.84402 2.67855 5.39307Z" fill="black"/>
<path d="M62.9915 5.39178C63.6982 5.37143 64.4556 5.36821 65.1619 5.38409C69.1194 5.47305 73.1858 5.25442 77.1325 5.40345C77.124 5.91172 77.0069 7.9744 76.8047 8.34272C76.4135 8.52213 72.2515 8.4521 71.5318 8.46364C71.3315 10.0138 71.2138 12.1678 71.079 13.7547C70.9808 15.0341 70.8729 16.3128 70.7551 17.5905C70.0779 17.8833 67.9063 18.5472 67.1676 18.7365C67.1342 17.9473 67.3586 15.8496 67.4385 14.9505C67.6256 12.8277 67.7637 10.5721 67.9992 8.46423C66.2777 8.39682 64.4737 8.49518 62.7285 8.43007C62.7329 7.74856 62.8522 6.02695 62.9915 5.39178Z" fill="black"/>
<path d="M121.016 5.4031C121.916 5.36174 123.497 5.36868 124.388 5.42001C124.38 6.47836 124.202 8.09997 124.108 9.19C123.96 10.9246 123.841 12.765 123.652 14.4882C126.375 14.5874 129.719 14.3547 132.354 14.535C132.351 15.3331 132.209 16.4135 132.152 17.22C132.137 17.4301 132.101 17.5138 131.957 17.6238L124.169 17.627C122.89 17.6274 121.125 17.6804 119.876 17.5939C119.883 16.5162 120.796 5.69028 121.016 5.4031Z" fill="black"/>
<path d="M114.491 5.39195C115.509 5.36058 116.962 5.35691 117.969 5.40579C117.95 6.69157 117.691 8.99891 117.576 10.328C117.373 12.6945 117.216 15.2762 116.948 17.6211L116.122 17.8704C115.205 18.1767 114.308 18.482 113.377 18.7441C113.357 18.1485 113.492 16.9045 113.543 16.2738L113.916 11.7801L114.259 7.67012C114.308 7.0795 114.374 5.9217 114.491 5.39195Z" fill="black"/>
<path d="M18.8805 5.39112C19.9262 5.36438 21.2799 5.35931 22.3157 5.4055C22.3303 6.48604 22.0201 9.48628 21.9026 10.716C21.7043 12.7899 21.5884 15.5815 21.2874 17.5767C21.0766 17.6796 20.6358 17.821 20.3976 17.9041C19.5265 18.1916 18.6162 18.499 17.733 18.7334C17.7167 17.8969 18.7367 5.69739 18.8805 5.39112Z" fill="black"/>
</svg>
