<svg width="40" height="40" viewBox="0 0 40 40" fill="none" xmlns="http://www.w3.org/2000/svg">
<path d="M27.9531 13.1748C29.1142 14.2462 30.0403 15.5468 30.6729 16.9944C31.3055 18.4421 31.6308 20.0053 31.6282 21.5851C31.6281 22.315 31.6416 22.3913 31.5048 23.1082" stroke="#333333" stroke-width="1.2" stroke-linecap="round" stroke-linejoin="round"/>
<path d="M9.00781 18.178C9.53624 16.4809 10.4513 14.9296 11.6812 13.6462C12.911 12.3629 14.4219 11.3825 16.0949 10.7822" stroke="#333333" stroke-width="1.2" stroke-linecap="round" stroke-linejoin="round"/>
<path d="M22.7143 32.7589C21.8785 32.9445 21.0247 33.0368 20.1685 33.0341C17.3797 33.0383 14.6858 32.0211 12.5957 30.1748" stroke="#333333" stroke-width="1.2" stroke-linecap="round" stroke-linejoin="round"/>
<path d="M12.248 22.0275C12.2943 20.6952 12.6084 19.3859 13.1716 18.1777" stroke="#333333" stroke-width="1.2" stroke-linecap="round" stroke-linejoin="round"/>
<path d="M20.1687 29.3662C18.3629 29.3694 16.6126 28.7414 15.2207 27.5908" stroke="#333333" stroke-width="1.2" stroke-linecap="round" stroke-linejoin="round"/>
<path d="M26.25 16.7231C26.9225 17.5654 27.4131 18.538 27.6906 19.5795C27.9682 20.6211 28.0464 21.4886 27.8823 22.5539" stroke="#333333" stroke-width="1.2" stroke-linecap="round" stroke-linejoin="round"/>
<path d="M14.5391 16.2133C15.3995 15.3066 16.4668 14.6219 17.6496 14.2178" stroke="#333333" stroke-width="1.2" stroke-linecap="round" stroke-linejoin="round"/>
<path d="M20.169 25.6539C22.4596 25.6539 24.3165 23.797 24.3165 21.5064C24.3165 19.2158 22.4596 17.3589 20.169 17.3589C17.8784 17.3589 16.0215 19.2158 16.0215 21.5064C16.0215 23.797 17.8784 25.6539 20.169 25.6539Z" stroke="#333333" stroke-width="1.2" stroke-linecap="round" stroke-linejoin="round"/>
<path d="M21.6664 17.3589L25.1787 9.12063C25.7238 7.84206 25.212 6.36594 23.8769 5.97939C22.9166 5.70135 21.7018 5.4668 20.3364 5.4668C18.9711 5.4668 17.7564 5.70131 16.7961 5.97933C15.4609 6.36588 14.9492 7.84215 15.4944 9.12076L19.0076 17.3589" stroke="#333333" stroke-width="1.2" stroke-linecap="round" stroke-linejoin="round"/>
<path d="M15.4648 22.3062L6.5742 23.3836C5.19437 23.5508 4.1719 24.7321 4.50468 26.0816C4.74406 27.0523 5.14832 28.2216 5.83103 29.404C6.51368 30.5864 7.3241 31.5211 8.04503 32.2138C9.04739 33.1768 10.5817 32.8819 11.4164 31.7703L16.7942 24.6088" stroke="#333333" stroke-width="1.2" stroke-linecap="round" stroke-linejoin="round"/>
<path d="M24.5696 22.3062L33.4603 23.3836C34.8402 23.5508 35.8626 24.7321 35.5298 26.0816C35.2905 27.0523 34.8862 28.2216 34.2035 29.404C33.5208 30.5864 32.7104 31.5211 31.9895 32.2138C30.9871 33.1768 29.4528 32.8819 28.6181 31.7703L23.2402 24.6088" stroke="#333333" stroke-width="1.2" stroke-linecap="round" stroke-linejoin="round"/>
</svg>
