<svg width="651" height="44" viewBox="0 0 651 44" fill="none" xmlns="http://www.w3.org/2000/svg">
<path d="M385.038 0.145224C398.426 -0.154275 412.367 0.314884 425.759 0.101995C443.235 -0.1759 458.075 0.00951269 456.011 14.7931C455.363 19.4314 453.641 21.1532 448.339 24.0829C455.054 26.4134 454.315 30.2312 453.632 34.5598C453.342 36.4034 453.189 38.217 452.684 40.0542C450.012 40.1232 437.867 40.2321 435.797 39.9479C435.091 39.4783 435.322 39.485 435.276 38.6204C435.605 36.5536 436.93 31.481 435.11 30.1095C433.112 28.6041 421.963 28.9933 419.083 28.9991L398.589 29.0377C398.345 31.0099 397.856 38.6236 396.802 39.8817C395.614 40.604 381.614 43.5591 379.498 43.5102C378.32 41.628 382.877 19.4978 382.844 15.5364C382.831 13.7989 384.53 1.46659 385.038 0.145224ZM436.562 18.1025C438.108 16.4091 439.081 13.8591 438.336 11.9019C438.196 11.5414 437.766 10.8768 437.252 10.6821C434.43 9.61416 406.3 10.1438 400.988 10.1521C400.535 12.831 400.145 16.0551 399.897 18.7609L421.739 18.8207C425.368 18.8244 433.629 19.1512 436.562 18.1025Z" fill="white"/>
<path d="M214.821 0.138717C222.755 -0.0082886 232.986 0.0226587 240.911 0.16167C242.846 1.5466 245.816 4.38775 247.694 6.00033C253.952 11.3936 260.13 16.827 266.227 22.2994C267.99 23.8535 273.012 28.3757 274.946 29.5852C276.145 20.1928 277.13 9.40854 278.846 0.15537C283.715 -0.00543856 291.334 0.0600586 296.23 0.173866C296.244 3.70981 295.042 10.6416 294.572 14.3372C293.523 22.9141 292.405 31.4871 291.219 40.0563C289.534 40.0972 287.605 40.0743 285.898 40.0816C278.911 40.0908 271.442 40.1812 264.495 40.0381C262.811 38.1936 260.563 36.5396 258.582 34.8139L248.187 25.6287L237.442 16.229C235.816 14.7909 232.762 11.8439 230.977 10.7333C230.448 12.5126 230.201 15.7264 229.86 17.7338C228.605 25.1398 227.874 32.6099 226.809 40.0363C221.83 41.2475 214.069 42.9606 209.001 43.8106C208.96 43.1168 208.925 42.413 209.042 41.722C209.934 36.4505 210.588 31.1675 211.264 25.8823L213.44 8.82386C213.675 6.96951 214.166 1.71736 214.821 0.138717Z" fill="white"/>
<path d="M118.188 0.156761C125.54 -0.0924783 136.786 0.0667449 144.258 0.143902C147.478 2.37679 151.58 6.43554 154.584 8.97337C162.53 15.6878 170.271 23.0914 178.3 29.7257C178.633 26.4499 179.433 22.7074 179.888 19.3345C180.741 13.0102 181.368 6.46383 182.433 0.17605C185.024 0.0255716 197.463 -0.0983297 199.511 0.466697C199.861 1.00307 195.15 36.7076 194.553 40.0465L189.877 40.0768C182.705 40.086 175.036 40.1801 167.905 40.036C165.285 37.4007 135.719 11.413 134.573 11.1038C133.679 12.1538 130.927 36.7991 130.391 40.0723C127.405 40.7107 115.107 43.5574 112.808 43.4935C112.524 40.9549 113.314 36.2641 113.65 33.6003L115.729 17.2935L117.135 6.3466C117.335 4.79381 117.618 1.50136 118.188 0.156761Z" fill="white"/>
<path d="M498.458 0.1312C505.668 -0.00106089 513.783 0.0892986 521.045 0.14063C530.872 12.699 539.778 26.3192 548.986 39.1198C548.986 39.1198 548.853 39.6674 548.84 39.7163C547.479 40.3787 532.041 40.089 529.186 40.0273C528.281 38.4037 526.13 35.1946 524.828 33.7064L511.228 33.6899C503.025 33.6659 494.823 33.6785 486.62 33.7271C484.787 35.5003 481.92 38.2749 480.393 40.0993C477.398 40.1578 462.686 40.3153 460.889 39.8281C460.729 39.2433 460.667 39.1029 461.214 38.5475C473.749 25.865 485.65 12.6759 498.458 0.1312ZM495.887 24.0941C499.155 24.1751 502.426 24.2006 505.694 24.1704C509.558 24.1676 514.275 24.2477 518.07 24.1254C516.999 22.5303 509.851 11.4433 508.315 10.9169C505.564 13.7876 497.681 21.5005 495.887 24.0941Z" fill="white"/>
<path d="M5.53943 0.143652C18.7881 -0.133492 33.3586 0.248178 46.7583 0.108952C52.3606 0.0507415 68.0955 -0.120912 72.8436 0.24445C72.66 3.02464 72.1428 7.35265 71.5598 10.0787C67.3601 10.2859 59.9683 10.14 55.546 10.1385C44.2461 10.1005 32.9459 10.1147 21.6465 10.1807L20.6854 18.1654C32.483 18.5891 48.9155 18.2575 61.0584 18.2524C63.7194 18.2402 66.3804 18.2605 69.0401 18.3135C69.0072 21.038 68.032 25.5658 67.4689 28.3694C62.5925 28.5109 56.4782 28.4059 51.5153 28.4052L19.3195 28.4455C18.9684 31.8672 18.4699 36.7813 17.7053 40.0667C13.5649 41.1953 4.38281 42.9995 9.63066e-05 43.8279C-0.00918056 40.813 0.653936 36.7905 1.04177 33.7263L3.10983 17.4397L4.51445 6.43812C4.72306 4.80817 5.0044 1.61757 5.53943 0.143652Z" fill="white"/>
<path d="M305.587 0.137037C309.103 0.0705319 312.871 0.0600081 316.385 0.111896C336.073 0.402651 356.303 -0.311911 375.937 0.175187C375.895 1.83643 375.312 8.57824 374.307 9.7821C372.36 10.3685 351.655 10.1396 348.074 10.1773C347.078 15.244 346.492 22.2844 345.822 27.4708C345.333 31.6525 344.796 35.8319 344.21 40.0083C340.842 40.9652 330.038 43.1353 326.363 43.7538C326.197 41.1744 327.314 34.3181 327.711 31.3793C328.642 24.4411 329.328 17.0688 330.5 10.1792C321.936 9.95892 312.961 10.2804 304.279 10.0676C304.301 7.8401 304.895 2.21306 305.587 0.137037Z" fill="white"/>
<path d="M594.249 0.174897C598.731 0.0397006 606.592 0.0623771 611.028 0.230173C610.986 3.68935 610.101 8.98952 609.635 12.5523C608.896 18.2218 608.304 24.2369 607.363 29.8691C620.911 30.1934 637.547 29.433 650.658 30.0222C650.639 32.6309 649.936 36.1622 649.653 38.7979C649.578 39.4846 649.399 39.7583 648.683 40.1178L609.935 40.1283C603.574 40.1296 594.792 40.3029 588.578 40.02C588.614 36.4978 593.158 1.11354 594.249 0.174897Z" fill="white"/>
<path d="M561.789 0.138636C566.854 0.0361022 574.084 0.0241209 579.093 0.183879C578.999 4.3864 577.71 11.9279 577.14 16.2721C576.128 24.0069 575.347 32.4451 574.015 40.1092L569.904 40.924C565.344 41.9254 560.878 42.923 556.246 43.7797C556.148 41.8332 556.819 37.767 557.076 35.7056L558.931 21.0181L560.634 7.58479C560.878 5.65435 561.21 1.87013 561.789 0.138636Z" fill="white"/>
<path d="M86.1429 0.135724C91.3451 0.0483222 98.0797 0.0317334 103.233 0.182705C103.305 3.71441 101.762 13.5206 101.177 17.5399C100.191 24.3183 99.6142 33.4426 98.1169 39.9639C97.0684 40.3002 94.8752 40.7625 93.6903 41.034C89.3569 41.9736 84.8282 42.9784 80.4345 43.7444C80.3531 41.0105 85.4277 1.13673 86.1429 0.135724Z" fill="white"/>
</svg>
