<svg width="32" height="32" viewBox="0 0 32 32" fill="none" xmlns="http://www.w3.org/2000/svg">
<path d="M16.4001 10.6923C18.7994 10.6661 21.2384 10.689 23.6409 10.688L26.2257 10.6875C26.7395 10.6875 27.3489 10.6728 27.8515 10.7119C27.7677 10.9998 27.4036 11.5021 27.2309 11.7791C26.7261 12.5884 26.2233 13.329 25.7373 14.1537C24.0172 14.2062 22.1913 14.1247 20.4629 14.1587C19.791 14.1719 18.9762 14.1259 18.323 14.1736L17.6321 15.3468C18.9899 15.3857 20.3626 15.3379 21.7218 15.3577C21.9146 15.3605 22.587 15.3282 22.7122 15.4517C22.7091 15.5985 21.3943 17.6001 21.2061 17.8892C20.989 18.2349 20.817 18.5378 20.6215 18.8967C18.9335 18.903 16.9822 18.8447 15.3184 18.9052L13.2714 22.138C12.9574 22.6244 12.7537 23.115 12.3197 23.5064C11.8193 22.7351 11.3073 21.9756 10.8352 21.187C10.6574 20.8899 10.4331 20.6153 10.2744 20.3047C10.634 19.8144 10.8448 19.4409 11.161 18.9334L12.1955 17.3029L16.4001 10.6923Z" fill="white"/>
<path d="M4.25704 10.7057C4.73216 10.66 5.6361 10.6884 6.15007 10.6885L9.81076 10.6894L13.0861 10.6872C13.5409 10.687 14.4876 10.6627 14.91 10.7302C14.8401 10.8852 14.7641 11.0254 14.6671 11.1648C14.2741 11.7296 13.9444 12.3438 13.5592 12.9106C13.2525 13.3205 13.0621 13.7493 12.76 14.1542C12.0762 14.1788 11.2582 14.1586 10.564 14.1585L6.36426 14.1575C6.1122 13.805 5.7732 13.207 5.53007 12.8393C5.34851 12.5646 4.2396 10.8845 4.25704 10.7057Z" fill="white"/>
</svg>
