<svg width="40" height="40" viewBox="0 0 40 40" fill="none" xmlns="http://www.w3.org/2000/svg">
<path d="M20 8.6499V29.3499" stroke="#333333" stroke-width="1.2" stroke-linecap="round" stroke-linejoin="round"/>
<path d="M18.1699 9.25977L19.9999 11.0898L21.8599 9.27977" stroke="#333333" stroke-width="1.2" stroke-linecap="round" stroke-linejoin="round"/>
<path d="M18.1699 28.7402L19.9999 26.9102L21.8599 28.7202" stroke="#333333" stroke-width="1.2" stroke-linecap="round" stroke-linejoin="round"/>
<path d="M31 19H20" stroke="#333333" stroke-width="1.2" stroke-linecap="round" stroke-linejoin="round"/>
<path d="M30.3495 17.1699L28.5195 18.9999L30.3295 20.8599" stroke="#333333" stroke-width="1.2" stroke-linecap="round" stroke-linejoin="round"/>
<path d="M28.1403 24.5498H25.5703V27.1398" stroke="#333333" stroke-width="1.2" stroke-linecap="round" stroke-linejoin="round"/>
<path d="M28.1403 13.6701H25.5703V11.0801" stroke="#333333" stroke-width="1.2" stroke-linecap="round" stroke-linejoin="round"/>
<path d="M27.3 11.7002L20 19.0002" stroke="#333333" stroke-width="1.2" stroke-linecap="round" stroke-linejoin="round"/>
<path d="M27.3 26.3L20 19" stroke="#333333" stroke-width="1.2" stroke-linecap="round" stroke-linejoin="round"/>
<path d="M20.11 25.09L24.36 23.36L26.09 19.26L24.28 15.18L20 13.52" stroke="#333333" stroke-width="1.2" stroke-linecap="round" stroke-linejoin="round"/>
<path d="M20 19H9" stroke="#333333" stroke-width="1.2" stroke-linecap="round" stroke-linejoin="round"/>
<path d="M9.67039 20.8302L11.4804 19.0002L9.65039 17.2002" stroke="#333333" stroke-width="1.2" stroke-linecap="round" stroke-linejoin="round"/>
<path d="M14.4606 27.1198V24.5298H11.8906" stroke="#333333" stroke-width="1.2" stroke-linecap="round" stroke-linejoin="round"/>
<path d="M14.4606 11.1001V13.6901H11.8906" stroke="#333333" stroke-width="1.2" stroke-linecap="round" stroke-linejoin="round"/>
<path d="M19.9992 19.0002L12.6992 11.7002" stroke="#333333" stroke-width="1.2" stroke-linecap="round" stroke-linejoin="round"/>
<path d="M19.9992 19L12.6992 26.3" stroke="#333333" stroke-width="1.2" stroke-linecap="round" stroke-linejoin="round"/>
<path d="M20.0002 13.52L15.7202 15.18L13.9102 19.26L15.6402 23.36L19.8902 25.09" stroke="#333333" stroke-width="1.2" stroke-linecap="round" stroke-linejoin="round"/>
<path d="M20.0002 37.8197C20.0002 37.8197 34.2602 30.6897 34.2602 19.9997V7.51969L20.0002 2.17969L5.74023 7.51969V19.9997C5.74023 30.6897 20.0002 37.8197 20.0002 37.8197Z" stroke="#333333" stroke-width="1.2" stroke-linecap="round" stroke-linejoin="round"/>
</svg>
