<svg width="40" height="40" viewBox="0 0 40 40" fill="none" xmlns="http://www.w3.org/2000/svg">
<g clip-path="url(#clip0_2307_17547)">
<mask id="mask0_2307_17547" style="mask-type:luminance" maskUnits="userSpaceOnUse" x="0" y="0" width="40" height="40">
<path d="M40 0H0V40H40V0Z" fill="white"/>
</mask>
<g mask="url(#mask0_2307_17547)">
<path fill-rule="evenodd" clip-rule="evenodd" d="M34.2478 9.53732C34.5369 9.47735 34.8313 9.44636 35.1265 9.44482L35.1418 9.44494C36.0068 9.46248 36.8492 9.72358 37.5725 10.1983C38.2957 10.673 38.8705 11.342 39.2307 12.1285C39.591 12.9151 39.7221 13.7872 39.6091 14.6449C39.4961 15.5026 39.1435 16.3111 38.5918 16.9775C38.3805 17.2327 38.0023 17.2683 37.747 17.057C37.4918 16.8457 37.4562 16.4675 37.6675 16.2122C38.0753 15.7197 38.3359 15.1221 38.4194 14.4882C38.5029 13.8542 38.406 13.2096 38.1397 12.6282C37.8735 12.0469 37.4486 11.5524 36.9141 11.2015C36.3816 10.8521 35.7618 10.6592 35.1251 10.6449C34.9122 10.6465 34.7 10.6691 34.4915 10.7123C34.1671 10.7797 33.8495 10.5712 33.7822 10.2467C33.7149 9.92223 33.9233 9.60463 34.2478 9.53732Z" fill="#333333"/>
<path fill-rule="evenodd" clip-rule="evenodd" d="M38.5095 16.1387C38.7614 16.3541 38.7909 16.7328 38.5755 16.9846C38.1487 17.4837 37.62 17.8856 37.0249 18.1633C36.4298 18.441 35.7822 18.5881 35.1255 18.5946C34.7942 18.5979 34.5229 18.332 34.5196 18.0006C34.5163 17.6693 34.7822 17.398 35.1136 17.3947C35.5989 17.3898 36.0776 17.2811 36.5175 17.0759C36.9573 16.8706 37.3481 16.5736 37.6636 16.2047C37.8789 15.9529 38.2577 15.9233 38.5095 16.1387Z" fill="#333333"/>
<path fill-rule="evenodd" clip-rule="evenodd" d="M24.9406 4.74419C25.2666 4.68482 25.579 4.90097 25.6384 5.22697C25.6704 5.403 25.6902 5.58103 25.6976 5.7598C25.698 5.77012 25.6982 5.78046 25.6981 5.79079C25.6886 6.69384 25.4515 7.57991 25.0087 8.36702C24.566 9.15414 23.9319 9.81688 23.165 10.294C22.8837 10.469 22.5137 10.3828 22.3386 10.1015C22.1636 9.82007 22.2498 9.45007 22.5311 9.27503C23.1266 8.90458 23.619 8.38993 23.9628 7.77871C24.3041 7.17207 24.488 6.48974 24.4979 5.79395C24.4924 5.67587 24.479 5.55829 24.4578 5.44199C24.3984 5.11599 24.6146 4.80357 24.9406 4.74419Z" fill="#333333"/>
<path fill-rule="evenodd" clip-rule="evenodd" d="M2.76522 16.0439C3.09154 15.9863 3.40282 16.204 3.46048 16.5304C3.682 17.7839 4.36169 18.9104 5.36744 19.6907C5.62925 19.8939 5.67681 20.2708 5.47368 20.5326C5.27054 20.7944 4.89363 20.8419 4.63182 20.6388C3.39081 19.6759 2.55213 18.286 2.27879 16.7392C2.22112 16.4129 2.43891 16.1016 2.76522 16.0439Z" fill="#333333"/>
<path fill-rule="evenodd" clip-rule="evenodd" d="M8.2223 9.8509C8.27417 10.1782 8.0509 10.4856 7.72361 10.5375C6.51091 10.7296 5.40678 11.3488 4.61029 12.2832C3.8138 13.2176 3.37737 14.4059 3.3797 15.6337C3.37998 15.9335 3.40691 16.2333 3.46016 16.5283C3.51902 16.8544 3.30237 17.1665 2.97627 17.2253C2.65017 17.2842 2.3381 17.0675 2.27924 16.7414C2.21338 16.3765 2.18006 16.0065 2.1797 15.6357C2.1769 14.1219 2.71502 12.6569 3.69703 11.5048C4.67911 10.3526 6.04052 9.58917 7.53578 9.35221C7.86307 9.30034 8.17044 9.52361 8.2223 9.8509Z" fill="#333333"/>
<path fill-rule="evenodd" clip-rule="evenodd" d="M33.6342 22.7345C33.438 22.7242 33.2414 22.7246 33.0453 22.7354C32.7144 22.7538 32.4611 23.0369 32.4795 23.3678C32.4978 23.6987 32.7809 23.952 33.1118 23.9336C33.2695 23.9248 33.4276 23.9248 33.5853 23.9336C33.5969 23.9342 33.6086 23.9346 33.6202 23.9345C34.8191 23.9311 35.9816 24.3461 36.9073 25.1078C37.1632 25.3184 37.5413 25.2816 37.7518 25.0258C37.9624 24.7699 37.9257 24.3918 37.6698 24.1812C36.5328 23.2456 35.1063 22.7343 33.6342 22.7345Z" fill="#333333"/>
<path fill-rule="evenodd" clip-rule="evenodd" d="M34.4183 9.52517C34.7493 9.54168 35.0042 9.82336 34.9877 10.1543C34.9221 11.4679 34.4517 12.7289 33.6408 13.7644C33.4365 14.0253 33.0594 14.0711 32.7985 13.8668C32.5376 13.6625 32.4917 13.2854 32.696 13.0245C33.3541 12.1841 33.736 11.1606 33.7892 10.0945C33.8057 9.76357 34.0873 9.50866 34.4183 9.52517Z" fill="#333333"/>
<path fill-rule="evenodd" clip-rule="evenodd" d="M27.9499 3.52968C29.1384 3.39995 30.3395 3.60841 31.4148 4.13107C32.4901 4.65373 33.396 5.46935 34.0283 6.4841C34.6603 7.49849 34.9933 8.67066 34.9888 9.86582C34.9888 9.86624 34.9888 9.86666 34.9888 9.86707L34.3888 9.86472H34.9888V9.86582V10.1242C34.9888 10.4556 34.7202 10.7247 34.3888 10.7247C34.0575 10.7247 33.7888 10.4561 33.7888 10.1247V9.86525V9.86237C33.7926 8.89271 33.5226 7.94168 33.0098 7.1187C32.497 6.29572 31.7623 5.63423 30.8902 5.21034C30.0181 4.78645 29.044 4.61738 28.0801 4.7226C27.1161 4.82781 26.2015 5.20302 25.4414 5.80507C25.1816 6.01081 24.8042 5.96701 24.5985 5.70725C24.3927 5.44748 24.4365 5.07012 24.6963 4.86438C25.6336 4.12205 26.7613 3.65941 27.9499 3.52968Z" fill="#333333"/>
<path fill-rule="evenodd" clip-rule="evenodd" d="M7.71656 9.35123C8.04438 9.3996 8.27093 9.70456 8.22256 10.0324C8.18273 10.3024 8.16149 10.5748 8.15899 10.8477C8.15853 12.2053 8.61026 13.5245 9.44291 14.5969C9.64613 14.8586 9.59869 15.2355 9.33696 15.4388C9.07522 15.642 8.69829 15.5946 8.49507 15.3328C7.49831 14.049 6.9578 12.4697 6.95899 10.8444V10.8396C6.96187 10.5108 6.98742 10.1826 7.03541 9.85723C7.08378 9.52941 7.38874 9.30286 7.71656 9.35123Z" fill="#333333"/>
<path fill-rule="evenodd" clip-rule="evenodd" d="M20.786 1.62741C19.8357 1.5176 18.8766 1.73866 18.0702 2.25336C17.2639 2.76805 16.6595 3.54492 16.359 4.4531C16.2624 4.74528 15.9603 4.91693 15.6598 4.85046C15.2153 4.75212 14.7618 4.6999 14.3065 4.69463C12.8204 4.69767 11.3855 5.23879 10.2674 6.21798C9.14828 7.19799 8.42234 8.55039 8.22401 10.0246C8.17982 10.3531 7.87778 10.5835 7.54936 10.5393C7.22095 10.4951 6.99054 10.1931 7.03472 9.86462C7.27175 8.10273 8.13934 6.48646 9.47674 5.31523C10.8142 4.14399 12.5308 3.49718 14.3085 3.49462L14.316 3.49461C14.6826 3.49864 15.0481 3.52849 15.4101 3.58375C15.8356 2.62589 16.5346 1.80993 17.4246 1.24185C18.4635 0.578687 19.6993 0.293859 20.9237 0.43534C22.1481 0.576822 23.2864 1.13597 24.1467 2.01859C25.007 2.90122 25.5369 4.05338 25.647 5.28101C25.6766 5.61106 25.4331 5.90261 25.103 5.93222C24.773 5.96183 24.4814 5.71827 24.4518 5.38823C24.3663 4.43544 23.9551 3.54122 23.2874 2.8562C22.6197 2.17118 21.7363 1.73722 20.786 1.62741Z" fill="#333333"/>
<path fill-rule="evenodd" clip-rule="evenodd" d="M3.34637 16.2713C3.54711 16.5349 3.49611 16.9114 3.23246 17.1121C2.67443 17.537 2.2335 18.0967 1.95102 18.7386C1.66854 19.3806 1.55379 20.0838 1.61752 20.7823C1.68126 21.4807 1.92139 22.1515 2.31539 22.7318C2.70939 23.312 3.24435 23.7826 3.87005 24.0995C4.02372 24.1773 4.13653 24.3174 4.17977 24.4841C4.22301 24.6508 4.19252 24.8281 4.09606 24.9708C3.68583 25.5776 3.44267 26.2817 3.39104 27.0123C3.33941 27.743 3.48112 28.4743 3.80193 29.1327C4.12273 29.7912 4.61131 30.3535 5.21849 30.7632C5.82567 31.1728 6.53004 31.4153 7.26071 31.4662C7.57513 31.4881 7.81899 31.7496 7.81899 32.0648V32.5947C7.81924 33.8273 8.18988 35.0315 8.88283 36.0509C9.5758 37.0703 10.5591 37.858 11.7052 38.3117C12.8513 38.7654 14.1074 38.8643 15.3103 38.5954C16.5133 38.3266 17.6078 37.7025 18.4517 36.804C18.5752 36.6725 18.7513 36.6036 18.9312 36.6162C19.1111 36.6289 19.2758 36.7219 19.3797 36.8694C19.848 37.5348 20.4673 38.0797 21.1868 38.4596C21.9063 38.8395 22.7056 39.0434 23.5192 39.0548C24.3328 39.0662 25.1375 38.8846 25.8673 38.525C26.5972 38.1653 27.2315 37.6379 27.7182 36.9859C27.8996 36.7428 28.2338 36.6734 28.4971 36.824C28.9475 37.0819 29.4521 37.2309 29.9703 37.2591C30.4886 37.2873 31.0063 37.1939 31.4821 36.9865C31.9579 36.779 32.3786 36.4632 32.7107 36.0643C33.0428 35.6653 33.277 35.1943 33.3946 34.6888C33.4548 34.43 33.678 34.2417 33.9432 34.2258C34.9762 34.164 35.9667 33.7925 36.7855 33.1595C37.6042 32.5266 38.2133 31.6616 38.5333 30.6775C38.8533 29.6933 38.8694 28.6355 38.5794 27.6421C38.2895 26.6487 37.7069 25.7656 36.9078 25.1081C36.6519 24.8976 36.6151 24.5194 36.8257 24.2635C37.0362 24.0077 37.4143 23.9709 37.6702 24.1814C38.6556 24.9922 39.3738 26.081 39.7314 27.3059C40.0889 28.5308 40.0691 29.835 39.6745 31.0485C39.2799 32.262 38.5289 33.3285 37.5194 34.1089C36.6236 34.8014 35.5611 35.2402 34.4431 35.3835C34.265 35.9109 33.9907 36.4022 33.633 36.832C33.1813 37.3747 32.609 37.8043 31.9617 38.0865C31.3145 38.3687 30.6102 38.4956 29.9051 38.4573C29.3722 38.4283 28.85 38.3054 28.3622 38.0957C27.8135 38.7204 27.1464 39.2325 26.3977 39.6014C25.4978 40.0448 24.5056 40.2687 23.5025 40.2547C22.4993 40.2407 21.5138 39.9892 20.6266 39.5208C19.9453 39.1611 19.3369 38.6815 18.8298 38.1067C17.9038 38.9231 16.784 39.4957 15.5721 39.7666C14.1344 40.0879 12.6333 39.9697 11.2635 39.4275C9.89378 38.8852 8.71859 37.9438 7.89041 36.7255C7.06222 35.5071 6.61926 34.068 6.61899 32.5949C5.87946 32.4646 5.17331 32.1802 4.54736 31.7579C3.76545 31.2304 3.13628 30.5063 2.72316 29.6583C2.31003 28.8104 2.12753 27.8686 2.19402 26.9277C2.24546 26.2 2.44445 25.4927 2.77642 24.848C2.205 24.4667 1.71079 23.9775 1.32264 23.4059C0.814432 22.6575 0.504694 21.7922 0.422486 20.8913C0.340278 19.9904 0.488295 19.0834 0.852649 18.2553C1.217 17.4273 1.78575 16.7054 2.50552 16.1574C2.76917 15.9566 3.14563 16.0076 3.34637 16.2713Z" fill="#333333"/>
<path fill-rule="evenodd" clip-rule="evenodd" d="M37.821 16.0801C38.1052 15.9097 38.4737 16.002 38.6441 16.2862C39.4614 17.6495 39.8141 19.2412 39.6491 20.8221C39.4841 22.403 38.8103 23.8877 37.7292 25.0528C37.5038 25.2957 37.1243 25.3099 36.8814 25.0845C36.6385 24.8592 36.6243 24.4795 36.8496 24.2366C37.754 23.2619 38.3176 22.02 38.4556 20.6976C38.5936 19.3751 38.2985 18.0436 37.6149 16.9032C37.4445 16.619 37.5368 16.2505 37.821 16.0801Z" fill="#333333"/>
<path fill-rule="evenodd" clip-rule="evenodd" d="M16.0181 8.54473C15.6904 8.54472 15.366 8.6094 15.0634 8.73503C14.7607 8.86067 14.4859 9.04481 14.2546 9.27688C14.0232 9.50895 13.84 9.7844 13.7153 10.0874C13.5907 10.3905 13.527 10.7151 13.5281 11.0428C13.5292 11.3742 13.2614 11.6437 12.93 11.6447C12.5987 11.6458 12.3292 11.378 12.3281 11.0467C12.3265 10.5611 12.4208 10.08 12.6056 9.6309C12.7903 9.18183 13.0619 8.77364 13.4047 8.42972C13.7475 8.08581 14.1548 7.81293 14.6032 7.62675C15.0517 7.44056 15.5325 7.34472 16.0181 7.34473C16.3495 7.34473 16.6181 7.61336 16.6181 7.94473C16.6181 8.2761 16.3495 8.54473 16.0181 8.54473Z" fill="#333333"/>
<path fill-rule="evenodd" clip-rule="evenodd" d="M10.2879 20.3748C9.96023 20.3737 9.63557 20.4373 9.33254 20.562C9.02951 20.6866 8.75406 20.8699 8.52199 21.1012C8.28992 21.3325 8.10579 21.6074 7.98015 21.91C7.85451 22.2126 7.78984 22.5371 7.78984 22.8648C7.78984 23.1961 7.52122 23.4648 7.18984 23.4648C6.85847 23.4648 6.58984 23.1961 6.58984 22.8648C6.58984 22.3792 6.68568 21.8984 6.87186 21.4499C7.05805 21.0014 7.33092 20.5941 7.67484 20.2513C8.01875 19.9085 8.42694 19.6369 8.87601 19.4522C9.32508 19.2675 9.8062 19.1732 10.2917 19.1748C10.6231 19.1758 10.8909 19.4453 10.8898 19.7767C10.8887 20.1081 10.6192 20.3758 10.2879 20.3748Z" fill="#333333"/>
<path fill-rule="evenodd" clip-rule="evenodd" d="M24.3895 19.7944C24.7208 19.7944 24.9895 20.0631 24.9895 20.3944C24.9895 20.88 24.8936 21.3608 24.7075 21.8093C24.5213 22.2578 24.2484 22.6651 23.9045 23.0079C23.5606 23.3507 23.1524 23.6222 22.7033 23.807C22.2542 23.9917 21.7731 24.086 21.2875 24.0844C20.9562 24.0834 20.6884 23.8139 20.6895 23.4825C20.6906 23.1511 20.96 22.8834 21.2914 22.8844C21.6191 22.8855 21.9437 22.8219 22.2468 22.6972C22.5498 22.5726 22.8253 22.3893 23.0573 22.158C23.2894 21.9267 23.4735 21.6518 23.5992 21.3492C23.7248 21.0466 23.7895 20.7221 23.7895 20.3944C23.7895 20.0631 24.0581 19.7944 24.3895 19.7944Z" fill="#333333"/>
<path fill-rule="evenodd" clip-rule="evenodd" d="M31.2586 29.1445C31.5899 29.1445 31.8586 29.4131 31.8586 29.7445C31.8586 30.2301 31.7627 30.7109 31.5765 31.1594C31.3904 31.6078 31.1175 32.0152 30.7736 32.358C30.4297 32.7008 30.0215 32.9723 29.5724 33.1571C29.1233 33.3418 28.6422 33.4361 28.1566 33.4345C27.8253 33.4334 27.5575 33.1639 27.5586 32.8326C27.5596 32.5012 27.8291 32.2334 28.1605 32.2345C28.4882 32.2356 28.8128 32.172 29.1159 32.0473C29.4189 31.9226 29.6943 31.7394 29.9264 31.5081C30.1585 31.2767 30.3426 31.0019 30.4683 30.6993C30.5939 30.3966 30.6586 30.0722 30.6586 29.7445C30.6586 29.4131 30.9272 29.1445 31.2586 29.1445Z" fill="#333333"/>
<path fill-rule="evenodd" clip-rule="evenodd" d="M12.93 24.0444C13.2614 24.0455 13.5292 24.315 13.5281 24.6464C13.527 24.974 13.5907 25.2987 13.7153 25.6017C13.84 25.9048 14.0232 26.1802 14.2546 26.4123C14.4859 26.6444 14.7607 26.8285 15.0634 26.9541C15.366 27.0798 15.6904 27.1444 16.0181 27.1444C16.3495 27.1444 16.6181 27.4131 16.6181 27.7444C16.6181 28.0758 16.3495 28.3444 16.0181 28.3444C15.5325 28.3444 15.0517 28.2486 14.6032 28.0624C14.1548 27.8762 13.7475 27.6034 13.4047 27.2594C13.0619 26.9155 12.7903 26.5073 12.6056 26.0583C12.4208 25.6092 12.3265 25.1281 12.3281 24.6425C12.3292 24.3111 12.5987 24.0434 12.93 24.0444Z" fill="#333333"/>
<path fill-rule="evenodd" clip-rule="evenodd" d="M11.6781 31.4746C12.0095 31.4746 12.2781 31.7433 12.2781 32.0746C12.2781 32.7377 12.5415 33.3736 13.0103 33.8424C13.4792 34.3112 14.115 34.5746 14.7781 34.5746C15.1095 34.5746 15.3781 34.8433 15.3781 35.1746C15.3781 35.506 15.1095 35.7746 14.7781 35.7746C13.7968 35.7746 12.8557 35.3848 12.1618 34.6909C11.4679 33.997 11.0781 33.0559 11.0781 32.0746C11.0781 31.7433 11.3467 31.4746 11.6781 31.4746Z" fill="#333333"/>
<path fill-rule="evenodd" clip-rule="evenodd" d="M12.3281 16.4447C12.3281 16.1134 12.5967 15.8447 12.9281 15.8447C13.4137 15.8447 13.8945 15.9406 14.343 16.1267C14.7914 16.3129 15.1987 16.5858 15.5415 16.9297C15.8843 17.2736 16.1559 17.6818 16.3406 18.1309C16.5254 18.58 16.6197 19.0611 16.6181 19.5467C16.617 19.878 16.3475 20.1458 16.0161 20.1447C15.6848 20.1437 15.417 19.8742 15.4181 19.5428C15.4192 19.2151 15.3555 18.8905 15.2309 18.5874C15.1062 18.2844 14.923 18.0089 14.6916 17.7769C14.4603 17.5448 14.1855 17.3607 13.8828 17.235C13.5802 17.1094 13.2558 17.0447 12.9281 17.0447C12.5967 17.0447 12.3281 16.7761 12.3281 16.4447Z" fill="#333333"/>
<path fill-rule="evenodd" clip-rule="evenodd" d="M28.248 17.8344C28.248 17.5031 28.5167 17.2344 28.848 17.2344C29.8293 17.2344 30.7704 17.6243 31.4643 18.3181C32.1582 19.012 32.548 19.9531 32.548 20.9344C32.548 21.2658 32.2794 21.5344 31.948 21.5344C31.6167 21.5344 31.348 21.2658 31.348 20.9344C31.348 20.2714 31.0846 19.6355 30.6158 19.1667C30.147 18.6978 29.5111 18.4344 28.848 18.4344C28.5167 18.4344 28.248 18.1658 28.248 17.8344Z" fill="#333333"/>
<path fill-rule="evenodd" clip-rule="evenodd" d="M25.5898 10.9048C25.5898 10.5734 25.8584 10.3048 26.1898 10.3047C26.6754 10.3047 27.1562 10.4006 27.6047 10.5868C28.0531 10.773 28.4604 11.0458 28.8033 11.3897C29.1461 11.7337 29.4176 12.1418 29.6023 12.5909C29.7871 13.04 29.8814 13.5211 29.8798 14.0067C29.8787 14.3381 29.6092 14.6058 29.2779 14.6047C28.9465 14.6037 28.6787 14.3342 28.6798 14.0028C28.6809 13.6751 28.6172 13.3505 28.4926 13.0474C28.3679 12.7444 28.1847 12.469 27.9534 12.2369C27.722 12.0048 27.4472 11.8207 27.1446 11.6951C26.8419 11.5694 26.5175 11.5047 26.1898 11.5047C25.8584 11.5048 25.5898 11.2361 25.5898 10.9048Z" fill="#333333"/>
<path fill-rule="evenodd" clip-rule="evenodd" d="M20.3088 13.2747C19.7624 13.2747 19.2384 13.4917 18.8521 13.878C18.4658 14.2644 18.2488 14.7883 18.2488 15.3347C18.2488 15.666 17.9801 15.9347 17.6488 15.9347C17.3174 15.9347 17.0488 15.666 17.0488 15.3347C17.0488 14.4701 17.3922 13.6409 18.0036 13.0295C18.615 12.4181 19.4442 12.0747 20.3088 12.0747C21.1734 12.0747 22.0026 12.4181 22.6139 13.0295C23.2253 13.6409 23.5688 14.4701 23.5688 15.3347C23.5688 15.666 23.3001 15.9347 22.9688 15.9347C22.6374 15.9347 22.3688 15.666 22.3688 15.3347C22.3688 14.7883 22.1517 14.2644 21.7654 13.878C21.3791 13.4917 20.8551 13.2747 20.3088 13.2747Z" fill="#333333"/>
<path fill-rule="evenodd" clip-rule="evenodd" d="M19.7797 29.3647C20.111 29.3647 20.3797 29.6334 20.3797 29.9647C20.3797 30.2353 20.433 30.5031 20.5365 30.7531C20.64 31.003 20.7917 31.2301 20.983 31.4214C21.1743 31.6127 21.4014 31.7644 21.6513 31.8679C21.9013 31.9715 22.1691 32.0247 22.4397 32.0247C22.7102 32.0247 22.9781 31.9715 23.228 31.8679C23.4779 31.7644 23.705 31.6127 23.8963 31.4214C24.0876 31.2301 24.2393 31.003 24.3429 30.7531C24.4464 30.5031 24.4997 30.2353 24.4997 29.9647C24.4997 29.6334 24.7683 29.3647 25.0997 29.3647C25.431 29.3647 25.6997 29.6334 25.6997 29.9647C25.6997 30.3929 25.6153 30.8168 25.4515 31.2123C25.2877 31.6078 25.0476 31.9672 24.7448 32.2699C24.4421 32.5726 24.0827 32.8128 23.6872 32.9766C23.2917 33.1404 22.8678 33.2247 22.4397 33.2247C22.0116 33.2247 21.5876 33.1404 21.1921 32.9766C20.7966 32.8128 20.4372 32.5726 20.1345 32.2699C19.8318 31.9672 19.5916 31.6078 19.4278 31.2123C19.264 30.8168 19.1797 30.3929 19.1797 29.9647C19.1797 29.6334 19.4483 29.3647 19.7797 29.3647Z" fill="#333333"/>
</g>
</g>
<defs>
<clipPath id="clip0_2307_17547">
<rect width="40" height="40" fill="white"/>
</clipPath>
</defs>
</svg>
