<svg width="24" height="24" viewBox="0 0 24 24" fill="none" xmlns="http://www.w3.org/2000/svg">
<path fill-rule="evenodd" clip-rule="evenodd" d="M4.92879 17.6577C4.74132 17.8453 4.636 18.0996 4.636 18.3647C4.636 18.6299 4.74132 18.8842 4.92879 19.0717C8.83379 22.9767 15.1658 22.9767 19.0708 19.0717C22.9758 15.1667 22.9758 8.83473 19.0708 4.92973C15.1658 1.02473 8.83379 1.02473 4.92879 4.92973C3.29453 6.55869 2.27657 8.70455 2.04879 11.0007H0.999787C0.802037 11.0008 0.608738 11.0594 0.444328 11.1693C0.279919 11.2792 0.151779 11.4354 0.0761089 11.6181C0.000438906 11.8008 -0.0193641 12.0018 0.0192035 12.1958C0.0577711 12.3897 0.152977 12.5679 0.292787 12.7077L2.29279 14.7077L2.29479 14.7097C2.38762 14.8026 2.49787 14.8762 2.61922 14.9263C2.74057 14.9764 2.87062 15.002 3.00191 15.0018C3.1332 15.0015 3.26314 14.9753 3.38427 14.9246C3.50541 14.874 3.61535 14.8 3.70779 14.7067L5.70779 12.7077C5.84766 12.5678 5.94288 12.3896 5.98142 12.1955C6.01995 12.0015 6.00007 11.8004 5.92427 11.6176C5.84848 11.4349 5.72018 11.2787 5.55562 11.1689C5.39106 11.0591 5.19762 11.0006 4.99979 11.0007H4.06179C4.28788 9.20708 5.11482 7.5429 6.40783 6.27941C7.70084 5.01592 9.38368 4.22764 11.1821 4.04303C12.9804 3.85842 14.7883 4.28838 16.3111 5.26283C17.8338 6.23728 18.9816 7.69875 19.5674 9.40906C20.1532 11.1194 20.1424 12.9776 19.5368 14.681C18.9312 16.3844 17.7665 17.8325 16.2326 18.7892C14.6986 19.7459 12.8859 20.1548 11.0897 19.9494C9.29362 19.7439 7.62004 18.9361 6.34179 17.6577C6.1543 17.4706 5.90021 17.3654 5.63529 17.3654C5.37037 17.3654 5.11627 17.4706 4.92879 17.6577ZM9.99979 8.00073C9.99979 7.73551 10.1051 7.48116 10.2927 7.29362C10.4802 7.10608 10.7346 7.00073 10.9998 7.00073C11.265 7.00073 11.5194 7.10608 11.7069 7.29362C11.8944 7.48116 11.9998 7.73551 11.9998 8.00073V12.0007H15.9998C16.265 12.0007 16.5194 12.1061 16.7069 12.2936C16.8944 12.4812 16.9998 12.7355 16.9998 13.0007C16.9998 13.2659 16.8944 13.5203 16.7069 13.7078C16.5194 13.8954 16.265 14.0007 15.9998 14.0007H10.9998C10.7346 14.0007 10.4802 13.8954 10.2927 13.7078C10.1051 13.5203 9.99979 13.2659 9.99979 13.0007V8.00073Z" fill="white"/>
</svg>
