<svg width="33" height="33" viewBox="0 0 33 33" fill="none" xmlns="http://www.w3.org/2000/svg">
<g clip-path="url(#clip0_3517_44860)">
<path fill-rule="evenodd" clip-rule="evenodd" d="M8.65462 13.3149L7.75837 12.7974C6.36023 11.9902 9.14447 9.51353 10.3215 10.1931L11.7376 11.0107C11.9647 11.1418 12.3401 11.416 12.8717 10.9505L13.696 10.2266L11.7541 9.10549C10.7025 8.49836 9.66331 8.40787 8.70173 8.70733C7.04662 9.21449 5.71085 10.7278 5.48257 11.6889C5.27792 12.5815 5.62304 13.4464 6.60776 14.0314L7.37499 14.4826L8.32501 15.031L8.97436 14.4445C9.44297 14.033 9.16847 13.6115 8.65462 13.3149ZM20.298 18.3443L21.1565 17.5334L18.0316 15.7292C17.5118 15.4291 17.1933 15.4425 16.9258 15.6989L16.0673 16.5098L19.1922 18.314C19.712 18.6141 20.0304 18.6007 20.298 18.3443ZM14.8682 17.5104L14.0096 18.3213L17.1346 20.1255C17.6484 20.4221 17.9728 20.4122 18.2403 20.1558L19.0989 19.3449L15.974 17.5407C15.4601 17.244 15.1417 17.2574 14.8682 17.5104ZM22.3221 16.5218L23.1807 15.7109L20.0558 13.9067C19.536 13.6066 19.2175 13.6199 18.95 13.8764L18.0914 14.6873L21.2164 16.4915C21.7303 16.7882 22.0486 16.7747 22.3221 16.5218ZM17.488 13.9938C17.8832 13.0057 17.5642 12.4682 16.417 11.8058L14.3258 10.5985L10.9825 13.5742L11.7533 14.0192C12.2134 14.2848 12.4429 14.4255 13.0792 13.889L14.4981 12.6044L15.2748 13.0529C15.938 13.4358 15.294 14.2062 14.4791 14.8451C13.7569 15.406 12.8634 15.753 12.236 15.3908L10.9395 14.6423C10.4197 14.3421 10.0953 14.3521 9.82173 14.605L8.93331 15.3987L9.88334 15.9472L10.819 16.4792C11.6471 16.9491 12.3579 17.2772 13.57 16.9992C14.8584 16.6994 16.9864 15.249 17.488 13.9938ZM28.6753 18.875L26.8649 17.8297L24.0838 18.714C23.762 18.8158 23.4344 18.9143 23.0912 19.0531L23.0733 19.0428L25.3949 16.981L23.9192 16.129L18.5028 20.9154L19.9787 21.7675L21.6901 20.2657L22.6783 20.072L22.2232 22.0608C22.082 22.6778 22.1178 23.0025 22.4763 23.2095L23.6055 23.8615L24.3607 19.8764L28.6753 18.875Z" fill="white"/>
</g>
<defs>
<clipPath id="clip0_3517_44860">
<rect width="24" height="24" fill="white" transform="translate(12) rotate(30)"/>
</clipPath>
</defs>
</svg>
