<svg width="36" height="36" viewBox="0 0 36 36" fill="none" xmlns="http://www.w3.org/2000/svg">
<path d="M3.24753 20.7437C3.80314 20.4663 4.47856 20.692 4.75632 21.2476C5.16534 22.0653 5.94144 22.9942 7.06491 23.5562C8.15773 24.1026 9.66043 24.3433 11.644 23.6821C12.0228 23.5559 12.4407 23.6404 12.7412 23.9033C13.616 24.6687 15.1861 25.6014 16.9673 25.8691C18.6898 26.128 20.6331 25.776 22.4546 23.9546L22.5893 23.8389C22.9223 23.5973 23.3671 23.5541 23.7451 23.7393C24.6858 24.2003 26.1493 24.5283 27.5976 24.3296C29.0061 24.1361 30.3638 23.4558 31.2846 21.9214C31.6042 21.3888 32.2959 21.2153 32.8286 21.5347C33.3612 21.8543 33.5346 22.5459 33.2153 23.0786C31.8863 25.2936 29.8684 26.2893 27.9023 26.5591C26.3072 26.7779 24.7241 26.5211 23.4829 26.064C21.2495 27.9968 18.8026 28.4202 16.6333 28.0942C14.6446 27.7953 12.9103 26.8771 11.7509 25.9966C9.4978 26.6071 7.58283 26.3301 6.06003 25.5688C4.43409 24.7559 3.33461 23.4344 2.74362 22.2524C2.46621 21.6968 2.692 21.0214 3.24753 20.7437Z" fill="black"/>
<path d="M26.625 7.5C28.9031 7.50002 30.75 9.34684 30.75 11.625C30.75 13.9032 28.9031 15.75 26.625 15.75C26.1024 15.75 25.6041 15.6489 25.144 15.4717C26.261 17.1747 27.3154 19.2152 27.643 21.2476C27.6948 21.5687 27.4585 21.8622 27.1333 21.8701C27.089 21.8712 27.0446 21.8716 27 21.8716C26.3717 21.8716 25.5928 21.7127 24.832 21.4512C24.3566 21.2877 23.8596 21.0818 23.4096 20.8213C23.139 20.6645 22.7882 20.7016 22.5791 20.9341C21.5109 22.1224 20.4563 23.0587 18.8598 23.3057C18.1886 23.3071 17.5031 23.29 16.8091 23.2632C16.1114 23.1409 15.4192 22.9187 14.7934 22.6128C14.0658 22.257 13.3537 21.8043 12.8745 21.3091C12.6199 21.046 12.1931 20.9569 11.874 21.1362C11.0527 21.5985 10.0666 21.8715 8.99997 21.8716C8.73556 21.8716 8.47692 21.8546 8.22507 21.8218C7.85649 21.7737 7.66348 21.3793 7.83835 21.0513C8.84012 19.1728 11.0796 16.2784 14.25 15.75C12 15.5 7.80025 13.7999 8.99997 12C11.1216 8.81693 19.5 9 22.5205 12.0234C22.3265 9.99985 24.3146 7.5 26.625 7.5Z" fill="black"/>
</svg>
