<svg width="36" height="36" viewBox="0 0 36 36" fill="none" xmlns="http://www.w3.org/2000/svg">
<path d="M16.8759 16.5004C17.9111 16.5015 18.7509 18.8516 18.7509 21.7504C18.7508 24.649 17.9111 26.9994 16.8759 27.0004C15.8404 27.0004 15.001 24.6496 15.0009 21.7504C15.0009 18.8509 15.8404 16.5004 16.8759 16.5004Z" fill="black"/>
<path fill-rule="evenodd" clip-rule="evenodd" d="M17.6244 10.5004C20.7311 10.5004 23.2495 15.5372 23.2495 21.7504C23.2493 27.9633 20.731 33.0004 17.6244 33.0004C14.5183 32.9997 11.9996 27.9629 11.9994 21.7504C11.9994 15.5377 14.5182 10.5012 17.6244 10.5004ZM16.7997 15.0004C15.1431 15.0009 13.7997 18.0228 13.7997 21.7504C13.7999 25.4778 15.1432 28.4999 16.7997 28.5004C18.4565 28.5004 19.7996 25.4781 19.7997 21.7504C19.7997 18.0225 18.4566 15.0004 16.7997 15.0004Z" fill="black"/>
<path d="M23.916 27.6391C23.9781 27.4373 24.2217 27.3541 24.3906 27.4809L26.0385 28.7157C26.1532 28.802 26.1906 28.958 26.1264 29.0863C25.5091 30.3212 24.7201 31.5903 23.7241 32.8832C23.6676 32.9565 23.5792 33.0004 23.4868 33.0004H19.5156C19.5074 33.0004 19.5009 32.9925 19.5009 32.9843C19.5013 32.9773 19.5057 32.9708 19.5126 32.9696C21.3766 32.7155 22.9897 30.6466 23.916 27.6391Z" fill="black"/>
<path d="M32.3974 26.9213C32.6149 26.8247 32.8506 27.0076 32.7958 27.2392C32.0118 30.5399 29.047 32.9959 25.5068 32.9989C26.4656 31.6578 27.2209 30.3352 27.808 29.0439C27.8386 28.9767 27.893 28.923 27.9604 28.893L32.3974 26.9213Z" fill="black"/>
<path d="M15.9296 4.44035C21.897 4.21943 24.7855 7.33471 25.4995 9.00041H17.9994C13.8577 9.00126 10.4995 14.7093 10.4994 21.7504C10.4996 25.6531 11.5333 29.1456 13.1581 31.4843C8.77649 31.1595 4.53878 24.7709 5.99945 25.5004C7.49945 26.2504 13.4994 25.5004 7.49945 21.0004C3.01644 17.6381 2.98242 15.3212 4.21966 13.808C4.34932 13.6496 4.59401 13.6903 4.69281 13.8696C5.38339 15.1231 6.1286 15.7501 7.49945 15.7504C10.4995 15.7505 10.0774 14.0993 8.99945 13.5004C4.06217 10.7573 3.34658 6.9678 3.64252 5.00139C3.67706 4.77461 3.952 4.69998 4.12006 4.85637C4.68382 5.38099 5.79322 6.34369 6.74945 6.75041C8.63952 7.55399 9 5.74176 11.9994 7.06535C16.0936 8.87235 16.1142 7.01476 15.4111 5.33391C15.243 4.93216 15.4948 4.45724 15.9296 4.44035Z" fill="black"/>
<path d="M24.808 22.4125C24.8019 22.1527 25.0988 21.9649 25.3178 22.1049L27.6806 23.6166C27.7797 23.68 27.8334 23.7948 27.8154 23.9111C27.6567 24.933 27.3907 25.992 26.9936 27.0824C26.9256 27.269 26.6968 27.3339 26.5395 27.2128C25.8918 26.7136 25.2499 26.1879 24.5737 25.7333C24.4731 25.6657 24.4196 25.5449 24.4418 25.4257C24.6145 24.4998 24.8311 23.3963 24.808 22.4125Z" fill="black"/>
<path d="M32.5263 21.2963C32.7247 21.1548 33.0004 21.2959 33.0009 21.5395V24.8163C33.0009 24.9349 32.9306 25.0436 32.8222 25.0917L29.2363 26.684C28.9991 26.7888 28.7474 26.5628 28.8188 26.3134C29.0763 25.4132 29.2541 24.5315 29.3637 23.6723C29.3745 23.5888 29.4197 23.5132 29.4882 23.4643L32.5263 21.2963Z" fill="black"/>
<path d="M24.6337 16.5224C25.5086 16.9407 26.4297 17.3541 27.4755 17.9169C27.5506 17.9575 27.6045 18.0285 27.6235 18.1117C27.6737 18.3338 27.722 18.5598 27.7626 18.7885C27.9156 19.6492 28.0004 20.5575 27.9999 21.5072C27.9998 21.7395 27.7431 21.875 27.5473 21.7504L24.7978 19.9911C24.7192 19.9408 24.6686 19.857 24.6601 19.7641C24.5698 18.7499 24.4121 17.7817 24.1957 16.8813C24.1353 16.6282 24.3988 16.4105 24.6337 16.5224Z" fill="black"/>
<path d="M31.8994 14.9096C32.0437 14.7659 32.2864 14.8057 32.3666 14.9931C32.9113 16.2645 32.9942 17.582 32.9995 18.957C32.9998 19.0538 32.9537 19.1453 32.8749 19.2016L29.9775 21.2714C29.7783 21.4136 29.4998 21.2698 29.4926 21.0253C29.4612 19.9314 29.3254 18.8842 29.1118 17.8949C29.0901 17.7945 29.1198 17.6894 29.1923 17.6166L31.8994 14.9096Z" fill="black"/>
<path d="M26.2817 10.5414C28.2412 10.7443 29.9772 11.7021 31.1933 13.1181C31.2922 13.234 31.282 13.4057 31.1743 13.5136L28.9623 15.727C28.8044 15.8849 28.5341 15.8199 28.4584 15.6098C27.7966 13.7717 26.9035 12.2141 26.0312 11.0072C25.8832 10.8025 26.0304 10.5155 26.2817 10.5414Z" fill="black"/>
<path d="M23.5527 10.5004C23.6353 10.5004 23.7149 10.5333 23.7709 10.5942C24.7076 11.6118 25.8733 13.2481 26.7446 15.3432C26.8488 15.5938 26.5874 15.8293 26.3447 15.7079L23.3769 14.224C23.3158 14.1934 23.2667 14.1424 23.2377 14.0805C22.2908 12.0496 20.9742 10.6949 19.5009 10.5004H23.5527Z" fill="black"/>
</svg>
