<svg width="36" height="36" viewBox="0 0 36 36" fill="none" xmlns="http://www.w3.org/2000/svg">
<path fill-rule="evenodd" clip-rule="evenodd" d="M25.5 7.5C28.8137 7.5 31.5 10.1863 31.5 13.5V27C31.5 30.3137 28.8137 33 25.5 33H24.5758C24.3549 33 24.1758 32.8209 24.1758 32.6V27C24.1758 26.1716 23.5042 25.5 22.6758 25.5H20.4258C19.5976 25.5003 18.9258 26.1718 18.9258 27V32.6C18.9258 32.8209 18.7467 33 18.5258 33H18C14.6863 33 12 30.3137 12 27V13.5C12 10.1863 14.6863 7.5 18 7.5H25.5ZM17.625 21C17.0037 21 16.5 21.5037 16.5 22.125C16.5 22.7463 17.0037 23.25 17.625 23.25C18.2463 23.25 18.75 22.7463 18.75 22.125C18.75 21.5037 18.2463 21 17.625 21ZM21.375 21C20.7537 21 20.25 21.5037 20.25 22.125C20.25 22.7463 20.7537 23.25 21.375 23.25C21.9963 23.25 22.5 22.7463 22.5 22.125C22.5 21.5037 21.9963 21 21.375 21ZM25.125 21C24.5037 21 24 21.5037 24 22.125C24 22.7463 24.5037 23.25 25.125 23.25C25.7463 23.25 26.25 22.7463 26.25 22.125C26.25 21.5037 25.7463 21 25.125 21ZM17.625 17.25C17.0037 17.25 16.5 17.7537 16.5 18.375C16.5 18.9963 17.0037 19.5 17.625 19.5C18.2463 19.5 18.75 18.9963 18.75 18.375C18.75 17.7537 18.2463 17.25 17.625 17.25ZM21.375 17.25C20.7537 17.25 20.25 17.7537 20.25 18.375C20.25 18.9963 20.7537 19.5 21.375 19.5C21.9963 19.5 22.5 18.9963 22.5 18.375C22.5 17.7537 21.9963 17.25 21.375 17.25ZM25.125 17.25C24.5037 17.25 24 17.7537 24 18.375C24 18.9963 24.5037 19.5 25.125 19.5C25.7463 19.5 26.25 18.9963 26.25 18.375C26.25 17.7537 25.7463 17.25 25.125 17.25ZM17.625 13.5C17.0037 13.5 16.5 14.0037 16.5 14.625C16.5 15.2463 17.0037 15.75 17.625 15.75C18.2463 15.75 18.75 15.2463 18.75 14.625C18.75 14.0037 18.2463 13.5 17.625 13.5ZM21.375 13.5C20.7537 13.5 20.25 14.0037 20.25 14.625C20.25 15.2463 20.7537 15.75 21.375 15.75C21.9963 15.75 22.5 15.2463 22.5 14.625C22.5 14.0037 21.9963 13.5 21.375 13.5ZM25.125 13.5C24.5037 13.5 24 14.0037 24 14.625C24 15.2463 24.5037 15.75 25.125 15.75C25.7463 15.75 26.25 15.2463 26.25 14.625C26.25 14.0037 25.7463 13.5 25.125 13.5Z" fill="#080808"/>
<path fill-rule="evenodd" clip-rule="evenodd" d="M16.4121 3C18.2867 3.00012 19.9338 3.9745 20.8745 5.44441C21.0333 5.69268 20.8427 6 20.548 6H16.5C13.1863 6 10.5 8.68629 10.5 12V25.1C10.5 25.3209 10.3209 25.5 10.1 25.5H9.79395C6.87022 25.4999 4.50009 23.1298 4.5 20.2061V8.29395C4.50009 5.37022 6.87022 3.00009 9.79395 3H16.4121ZM9.46289 14.9121C8.91503 14.9123 8.47152 15.356 8.47119 15.9038C8.47119 16.4519 8.91482 16.8968 9.46289 16.897C10.0111 16.897 10.4561 16.452 10.4561 15.9038C10.4557 15.3559 10.0109 14.9121 9.46289 14.9121ZM9.46289 11.603C8.91482 11.6032 8.47119 12.0481 8.47119 12.5962C8.47152 13.144 8.91503 13.5877 9.46289 13.5879C10.0109 13.5879 10.4557 13.1441 10.4561 12.5962C10.4561 12.048 10.0111 11.603 9.46289 11.603ZM9.46289 8.29395C8.91482 8.29413 8.47119 8.739 8.47119 9.28711C8.47138 9.83506 8.91494 10.2786 9.46289 10.2788C10.011 10.2788 10.4559 9.83517 10.4561 9.28711C10.4561 8.73889 10.0111 8.29395 9.46289 8.29395Z" fill="#080808"/>
</svg>
