<svg width="180" height="32" viewBox="0 0 180 32" fill="none" xmlns="http://www.w3.org/2000/svg">
<path d="M106.069 7.19055C109.684 7.06837 113.448 7.25976 117.064 7.17291C121.783 7.05955 125.79 7.13519 125.233 13.166C125.058 15.0581 124.593 15.7605 123.161 16.9556C124.974 17.9064 124.775 19.4638 124.59 21.2296C124.512 21.9816 124.471 22.7215 124.335 23.471C123.613 23.4991 120.334 23.5435 119.775 23.4276C119.584 23.236 119.646 23.2387 119.634 22.886C119.723 22.0429 120.081 19.9736 119.589 19.4141C119.05 18.8 116.039 18.9588 115.262 18.9611L109.728 18.9769C109.662 19.7814 109.53 22.8873 109.245 23.4006C108.925 23.6952 105.144 24.9007 104.573 24.8808C104.255 24.113 105.485 15.0852 105.477 13.4692C105.473 12.7604 105.932 7.72958 106.069 7.19055ZM119.981 14.516C120.399 13.8252 120.662 12.785 120.46 11.9865C120.423 11.8395 120.306 11.5684 120.168 11.489C119.406 11.0533 111.81 11.2693 110.376 11.2727C110.254 12.3656 110.148 13.6808 110.081 14.7846L115.979 14.809C116.959 14.8105 119.189 14.9438 119.981 14.516Z" fill="white"/>
<path d="M60.1075 7.18887C62.2498 7.1289 65.0124 7.14153 67.1522 7.19824C67.6745 7.7632 68.4765 8.92221 68.9837 9.58005C70.6734 11.7802 72.3415 13.9967 73.9879 16.2291C74.4639 16.863 75.8198 18.7078 76.342 19.2012C76.6657 15.3697 76.9317 10.9704 77.395 7.19567C78.7097 7.13007 80.767 7.15678 82.0891 7.20321C82.0929 8.64566 81.7683 11.4734 81.6415 12.981C81.358 16.4798 81.0562 19.9771 80.7359 23.4728C80.2811 23.4895 79.7603 23.4801 79.2994 23.4831C77.4126 23.4869 75.396 23.5237 73.5201 23.4653C73.0654 22.7129 72.4583 22.0382 71.9236 21.3342L69.1168 17.5872L66.2154 13.7527C65.7763 13.1661 64.9516 11.9639 64.4697 11.5108C64.3271 12.2367 64.2602 13.5477 64.1683 14.3666C63.8292 17.3878 63.632 20.4351 63.3444 23.4646C62.0001 23.9587 59.9045 24.6576 58.536 25.0043C58.525 24.7213 58.5154 24.4342 58.547 24.1523C58.7879 22.0018 58.9644 19.8467 59.147 17.6907L59.7345 10.7319C59.7981 9.97542 59.9305 7.83286 60.1075 7.18887Z" fill="white"/>
<path d="M34.0145 7.19741C35.9998 7.09574 39.0362 7.16069 41.0537 7.19217C41.9232 8.10305 43.0308 9.75877 43.8418 10.794C45.9876 13.5331 48.0777 16.5533 50.2455 19.2597C50.3354 17.9234 50.5514 16.3967 50.6742 15.0208C50.9048 12.4408 51.0739 9.77031 51.3615 7.20528C52.0612 7.1439 55.4199 7.09335 55.9729 7.32385C56.0675 7.54266 54.7954 22.1079 54.6342 23.47L53.3716 23.4823C51.4351 23.4861 49.3642 23.5245 47.4387 23.4657C46.7315 22.3906 38.7481 11.7893 38.4386 11.6631C38.1972 12.0914 37.4541 22.1452 37.3095 23.4805C36.5032 23.7409 33.1827 24.9022 32.5619 24.8761C32.4851 23.8405 32.6983 21.927 32.7893 20.8403L33.3505 14.1881L33.7302 9.72249C33.7841 9.08904 33.8606 7.74593 34.0145 7.19741Z" fill="white"/>
<path d="M136.694 7.1872C138.64 7.13325 140.832 7.17011 142.792 7.19105C145.446 12.3141 147.851 17.8703 150.337 23.0921C150.337 23.0921 150.301 23.3155 150.297 23.3355C149.93 23.6057 145.761 23.4875 144.991 23.4623C144.746 22.8 144.165 21.4909 143.814 20.8838L140.142 20.8771C137.927 20.8673 135.712 20.8724 133.497 20.8923C133.002 21.6156 132.228 22.7475 131.816 23.4917C131.007 23.5156 127.035 23.5798 126.549 23.3811C126.506 23.1425 126.49 23.0852 126.637 22.8587C130.022 17.685 133.235 12.3047 136.694 7.1872ZM135.999 16.9626C136.882 16.9956 137.765 17.006 138.648 16.9937C139.691 16.9926 140.964 17.0253 141.989 16.9753C141.7 16.3247 139.77 11.8018 139.355 11.5871C138.612 12.7582 136.484 15.9046 135.999 16.9626Z" fill="white"/>
<path d="M3.59802 7.19108C7.17534 7.07802 11.1096 7.23372 14.7277 7.17692C16.2404 7.15318 20.489 7.08315 21.7711 7.2322C21.7215 8.36634 21.5818 10.1319 21.4244 11.2439C20.2905 11.3285 18.2946 11.269 17.1005 11.2683C14.0494 11.2529 10.9981 11.2586 7.94714 11.2856L7.68765 14.5428C10.8732 14.7157 15.3101 14.5804 18.5889 14.5783C19.3074 14.5733 20.0259 14.5817 20.7441 14.6032C20.7352 15.7147 20.4719 17.5618 20.3198 18.7055C19.0031 18.7632 17.3522 18.7203 16.0121 18.7201L7.31884 18.7365C7.22402 20.1323 7.08943 22.137 6.88296 23.4772C5.765 23.9376 3.28572 24.6736 2.10232 25.0116C2.09982 23.7817 2.27887 22.1407 2.38359 20.8907L2.94199 14.2468L3.32126 9.75883C3.37759 9.09392 3.45355 7.79235 3.59802 7.19108Z" fill="white"/>
<path d="M84.6153 7.18872C85.5646 7.16159 86.582 7.15729 87.5308 7.17846C92.8468 7.29707 98.3092 7.00557 103.611 7.20428C103.599 7.88196 103.442 10.6322 103.17 11.1233C102.645 11.3625 97.0541 11.2691 96.0873 11.2845C95.8184 13.3514 95.6602 16.2235 95.4791 18.3392C95.3473 20.0451 95.2023 21.75 95.0441 23.4537C94.1344 23.8441 91.2173 24.7293 90.225 24.9817C90.1802 23.9294 90.4817 21.1325 90.5889 19.9336C90.8403 17.1033 91.0257 14.0958 91.3421 11.2853C89.0297 11.1954 86.6063 11.3266 84.2621 11.2398C84.268 10.3311 84.4283 8.0356 84.6153 7.18872Z" fill="white"/>
<path d="M162.558 7.20381C163.768 7.14866 165.891 7.15791 167.089 7.22636C167.077 8.63749 166.838 10.7996 166.713 12.253C166.513 14.5658 166.353 17.0196 166.099 19.3172C169.757 19.4495 174.249 19.1393 177.79 19.3797C177.784 20.4439 177.594 21.8844 177.518 22.9596C177.498 23.2398 177.449 23.3514 177.256 23.498L166.794 23.5023C165.076 23.5028 162.705 23.5736 161.027 23.4582C161.037 22.0213 162.264 7.58672 162.558 7.20381Z" fill="white"/>
<path d="M153.794 7.18926C155.161 7.14743 157.113 7.14255 158.466 7.20772C158.44 8.92209 158.092 11.9985 157.939 13.7707C157.665 16.926 157.454 20.3683 157.095 23.4948L155.985 23.8272C154.753 24.2357 153.548 24.6427 152.297 24.9921C152.271 24.1981 152.452 22.5393 152.521 21.6984L153.022 15.7068L153.482 10.2268C153.548 9.43933 153.637 7.89561 153.794 7.18926Z" fill="white"/>
<path d="M25.3618 7.18817C26.7665 7.15251 28.5849 7.14574 29.9763 7.20733C29.9959 8.64805 29.5792 12.6484 29.4213 14.288C29.155 17.0532 28.9992 20.7753 28.5949 23.4356C28.3118 23.5728 27.7196 23.7614 27.3997 23.8722C26.2296 24.2554 25.0068 24.6653 23.8205 24.9778C23.7985 23.8625 25.1687 7.59651 25.3618 7.18817Z" fill="white"/>
</svg>
