<svg width="128" height="128" viewBox="0 0 128 128" fill="none" xmlns="http://www.w3.org/2000/svg">
<g clip-path="url(#clip0_2244_32441)">
<mask id="mask0_2244_32441" style="mask-type:luminance" maskUnits="userSpaceOnUse" x="0" y="-1" width="128" height="129">
<path d="M127.21 -0.00201416H0.790039V127.998H127.21V-0.00201416Z" fill="white"/>
</mask>
<g mask="url(#mask0_2244_32441)">
<path d="M127.21 -0.00201416H0.790039V127.998H127.21V-0.00201416Z" fill="black"/>
<path fill-rule="evenodd" clip-rule="evenodd" d="M0.790039 12.1061V24.2141H12.7487H24.7072V12.1061V-0.00201416H12.7487H0.790039V12.1061ZM28.124 1.72771C28.124 3.26544 28.3137 3.45744 29.8324 3.45744H31.5409V6.9169V10.3764H29.8324H28.124V19.025V27.6737H24.7072H21.2906V29.4034C21.2906 30.9412 21.101 31.1332 19.5822 31.1332C18.0634 31.1332 17.8738 30.9412 17.8738 29.4034C17.8738 27.8657 17.6841 27.6737 16.1654 27.6737C14.6467 27.6737 14.457 27.8657 14.457 29.4034C14.457 30.9412 14.6467 31.1332 16.1654 31.1332H17.8738V34.5925V38.0521H21.2906H24.7072V39.7818C24.7072 41.3194 24.5176 41.5114 22.999 41.5114C21.4802 41.5114 21.2906 41.7034 21.2906 43.2412C21.2906 44.7789 21.101 44.971 19.5822 44.971C18.0634 44.971 17.8738 45.1629 17.8738 46.7007C17.8738 48.2385 18.0634 48.4305 19.5822 48.4305C21.101 48.4305 21.2906 48.6225 21.2906 50.1602C21.2906 51.6978 21.101 51.8898 19.5822 51.8898C18.0634 51.8898 17.8738 52.0818 17.8738 53.6196V55.3493H14.457H11.0403V53.6196C11.0403 52.0818 10.8507 51.8898 9.33192 51.8898C7.81316 51.8898 7.62353 51.6978 7.62353 50.1602V48.4305H11.0403H14.457V46.7007C14.457 45.1629 14.2674 44.971 12.7487 44.971H11.0403V41.5114V38.0521H7.62353H4.20679V36.3223C4.20679 34.7845 4.01716 34.5925 2.49841 34.5925C0.979669 34.5925 0.790039 34.7845 0.790039 36.3223C0.790039 37.8601 0.979669 38.0521 2.49841 38.0521C4.01716 38.0521 4.20679 38.2441 4.20679 39.7818C4.20679 41.3194 4.39642 41.5114 5.91516 41.5114H7.62353V44.971V48.4305H4.20679H0.790039V50.1602C0.790039 51.6978 0.979669 51.8898 2.49841 51.8898C4.01716 51.8898 4.20679 52.0818 4.20679 53.6196C4.20679 55.1574 4.01716 55.3493 2.49841 55.3493C0.979669 55.3493 0.790039 55.5414 0.790039 57.0791C0.790039 58.6169 0.979669 58.8089 2.49841 58.8089C4.01716 58.8089 4.20679 58.6169 4.20679 57.0791C4.20679 55.5414 4.39642 55.3493 5.91516 55.3493H7.62353V58.8089V62.2682H9.33192C10.8507 62.2682 11.0403 62.4602 11.0403 63.998V65.7278H7.62353H4.20679V69.1871V72.6466H5.91516C7.4339 72.6466 7.62353 72.4546 7.62353 70.9169C7.62353 69.3791 7.81316 69.1871 9.33192 69.1871H11.0403V72.6466V76.1062H9.33192H7.62353V79.5655V83.025H5.91516H4.20679V79.5655V76.1062H2.49841H0.790039V81.2953V86.4846H2.49841C4.01716 86.4846 4.20679 86.6766 4.20679 88.2142C4.20679 89.7519 4.01716 89.9439 2.49841 89.9439H0.790039V93.4034V96.8628H4.20679H7.62353V98.5926C7.62353 100.13 7.81316 100.322 9.33192 100.322C10.8507 100.322 11.0403 100.13 11.0403 98.5926C11.0403 97.0548 11.2299 96.8628 12.7487 96.8628C14.2674 96.8628 14.457 96.6708 14.457 95.1332V93.4034H19.5822H24.7072V95.1332V96.8628H21.2906H17.8738V98.5926V100.322H21.2906H24.7072V98.5926C24.7072 97.0548 24.8969 96.8628 26.4156 96.8628H28.124V102.052V107.241H29.8324C31.3512 107.241 31.5409 107.433 31.5409 108.971C31.5409 110.509 31.3512 110.701 29.8324 110.701C28.3137 110.701 28.124 110.893 28.124 112.43C28.124 113.968 28.3137 114.16 29.8324 114.16C31.3512 114.16 31.5409 113.968 31.5409 112.43C31.5409 110.893 31.7305 110.701 33.2491 110.701H34.9575V117.62V124.538H36.6659C38.1847 124.538 38.3743 124.73 38.3743 126.268V127.998H41.791H45.2078V126.268C45.2078 124.73 45.0181 124.538 43.4994 124.538H41.791V121.079V117.62H43.4994C45.0181 117.62 45.2078 117.812 45.2078 119.349C45.2078 120.887 45.3974 121.079 46.9162 121.079C48.435 121.079 48.6246 121.271 48.6246 122.809V124.538H53.7496H58.8749V126.268V127.998H62.2915H65.7083V126.268C65.7083 124.73 65.8979 124.538 67.4167 124.538C68.9353 124.538 69.125 124.73 69.125 126.268V127.998H77.6668H86.2089V126.268C86.2089 124.73 86.0192 124.538 84.5005 124.538H82.792V121.079V117.62H86.2089H89.6255V115.89C89.6255 114.352 89.8151 114.16 91.3339 114.16H93.0423V117.62V121.079H94.7507H96.459V117.62V114.16H98.1674H99.8758V121.079V127.998H101.584H103.293V124.538V121.079H105.001C106.52 121.079 106.709 120.887 106.709 119.349C106.709 117.812 106.899 117.62 108.418 117.62C109.936 117.62 110.126 117.428 110.126 115.89V114.16H115.251H120.376V115.89C120.376 117.428 120.187 117.62 118.668 117.62C117.149 117.62 116.96 117.812 116.96 119.349V121.079H113.543H110.126V122.809C110.126 124.346 109.936 124.538 108.418 124.538C106.899 124.538 106.709 124.73 106.709 126.268C106.709 127.806 106.899 127.998 108.418 127.998C109.936 127.998 110.126 127.806 110.126 126.268C110.126 124.73 110.316 124.538 111.834 124.538C113.353 124.538 113.543 124.73 113.543 126.268V127.998H120.376H127.21V126.268C127.21 124.73 127.02 124.538 125.501 124.538H123.793V119.349V114.16H125.501H127.21V110.701V107.241H120.376H113.543V103.782V100.322H116.96H120.376V102.052C120.376 103.59 120.566 103.782 122.085 103.782H123.793V100.322V96.8628H125.501C127.02 96.8628 127.21 96.6708 127.21 95.1332C127.21 93.5954 127.02 93.4034 125.501 93.4034C123.983 93.4034 123.793 93.5954 123.793 95.1332C123.793 96.6708 123.603 96.8628 122.085 96.8628C120.566 96.8628 120.376 96.6708 120.376 95.1332C120.376 93.5954 120.187 93.4034 118.668 93.4034C117.149 93.4034 116.96 93.2114 116.96 91.6737C116.96 90.1359 116.77 89.9439 115.251 89.9439C113.732 89.9439 113.543 89.7519 113.543 88.2142V86.4846H120.376H127.21V83.025V79.5655H123.793H120.376V77.8358V76.1062H116.96H113.543V74.3764V72.6466H116.96H120.376V70.9169C120.376 69.3791 120.566 69.1871 122.085 69.1871C123.603 69.1871 123.793 68.9951 123.793 67.4575C123.793 65.9198 123.603 65.7278 122.085 65.7278C120.566 65.7278 120.376 65.5358 120.376 63.998C120.376 62.4602 120.566 62.2682 122.085 62.2682C123.603 62.2682 123.793 62.0762 123.793 60.5385C123.793 59.0009 123.983 58.8089 125.501 58.8089C127.02 58.8089 127.21 58.6169 127.21 57.0791V55.3493H123.793H120.376V53.6196C120.376 52.0818 120.566 51.8898 122.085 51.8898C123.603 51.8898 123.793 51.6978 123.793 50.1602V48.4305H120.376H116.96V46.7007V44.971H122.085H127.21V43.2412C127.21 41.7034 127.02 41.5114 125.501 41.5114C123.983 41.5114 123.793 41.3194 123.793 39.7818V38.0521H118.668H113.543V41.5114V44.971H111.834C110.316 44.971 110.126 45.1629 110.126 46.7007C110.126 48.2385 109.936 48.4305 108.418 48.4305H106.709V51.8898V55.3493H105.001C103.482 55.3493 103.293 55.5414 103.293 57.0791C103.293 58.6169 103.103 58.8089 101.584 58.8089C100.065 58.8089 99.8758 58.6169 99.8758 57.0791C99.8758 55.5414 99.6861 55.3493 98.1674 55.3493H96.459V51.8898V48.4305H98.1674C99.6861 48.4305 99.8758 48.6225 99.8758 50.1602C99.8758 51.6978 100.065 51.8898 101.584 51.8898C103.103 51.8898 103.293 51.6978 103.293 50.1602C103.293 48.6225 103.103 48.4305 101.584 48.4305C100.065 48.4305 99.8758 48.2385 99.8758 46.7007V44.971H103.293H106.709V43.2412C106.709 41.7034 106.899 41.5114 108.418 41.5114H110.126V38.0521V34.5925H116.96H123.793V32.8628C123.793 31.3252 123.983 31.1332 125.501 31.1332C127.02 31.1332 127.21 30.9412 127.21 29.4034C127.21 27.8657 127.02 27.6737 125.501 27.6737C123.983 27.6737 123.793 27.8657 123.793 29.4034V31.1332H120.376H116.96V29.4034V27.6737H108.418H99.8758V20.7548V13.8358H98.1674C96.6486 13.8358 96.459 13.6438 96.459 12.1061C96.459 10.5684 96.2693 10.3764 94.7507 10.3764C93.2319 10.3764 93.0423 10.5684 93.0423 12.1061C93.0423 13.6438 92.8527 13.8358 91.3339 13.8358C89.8151 13.8358 89.6255 13.6438 89.6255 12.1061C89.6255 10.5684 89.4359 10.3764 87.9171 10.3764C86.3985 10.3764 86.2089 10.5684 86.2089 12.1061C86.2089 13.6438 86.3985 13.8358 87.9171 13.8358C89.4359 13.8358 89.6255 14.0278 89.6255 15.5656V17.2953H86.2089H82.792V12.1061V6.9169H81.0836H79.3752V12.1061V17.2953H77.6668C76.1482 17.2953 75.9586 17.1033 75.9586 15.5656C75.9586 14.0278 75.769 13.8358 74.2502 13.8358C72.7314 13.8358 72.5418 13.6438 72.5418 12.1061C72.5418 10.5684 72.7314 10.3764 74.2502 10.3764C75.769 10.3764 75.9586 10.1844 75.9586 8.64664C75.9586 7.1089 75.769 6.9169 74.2502 6.9169C72.7314 6.9169 72.5418 6.7249 72.5418 5.18717V3.45744H75.9586H79.3752V1.72771V-0.00201416H75.9586H72.5418V1.72771C72.5418 3.26544 72.3521 3.45744 70.8334 3.45744C69.3146 3.45744 69.125 3.26544 69.125 1.72771V-0.00201416H62.2915H55.458V1.72771V3.45744H52.0412H48.6246V1.72771V-0.00201416H45.2078H41.791V1.72771C41.791 3.26544 41.6013 3.45744 40.0827 3.45744C38.5639 3.45744 38.3743 3.64944 38.3743 5.18717C38.3743 6.7249 38.1847 6.9169 36.6659 6.9169H34.9575V3.45744V-0.00201416H31.5409H28.124V1.72771ZM82.792 1.72771C82.792 3.26544 82.9817 3.45744 84.5005 3.45744C86.0192 3.45744 86.2089 3.64944 86.2089 5.18717C86.2089 6.7249 86.3985 6.9169 87.9171 6.9169H89.6255V3.45744V-0.00201416H86.2089H82.792V1.72771ZM93.0423 1.72771C93.0423 3.26544 93.2319 3.45744 94.7507 3.45744C96.2693 3.45744 96.459 3.26544 96.459 1.72771C96.459 0.189986 96.2693 -0.00201416 94.7507 -0.00201416C93.2319 -0.00201416 93.0423 0.189986 93.0423 1.72771ZM103.293 12.1061V24.2141H115.251H127.21V12.1061V-0.00201416H115.251H103.293V12.1061ZM4.20679 12.1061V20.7548H12.7487H21.2906V12.1061V3.45744H12.7487H4.20679V12.1061ZM55.458 6.9169V10.3764H53.7496C52.2309 10.3764 52.0412 10.1844 52.0412 8.64664C52.0412 7.1089 51.8516 6.9169 50.333 6.9169C48.8142 6.9169 48.6246 7.1089 48.6246 8.64664C48.6246 10.1844 48.435 10.3764 46.9162 10.3764C45.3974 10.3764 45.2078 10.1844 45.2078 8.64664V6.9169H41.791H38.3743V8.64664C38.3743 10.1844 38.1847 10.3764 36.6659 10.3764C35.1471 10.3764 34.9575 10.5684 34.9575 12.1061C34.9575 13.6438 35.1471 13.8358 36.6659 13.8358C38.1847 13.8358 38.3743 13.6438 38.3743 12.1061V10.3764H41.791H45.2078V12.1061C45.2078 13.6438 45.0181 13.8358 43.4994 13.8358H41.791V17.2953V20.7548H40.0827C38.5639 20.7548 38.3743 20.5628 38.3743 19.025C38.3743 17.4873 38.1847 17.2953 36.6659 17.2953C35.1471 17.2953 34.9575 17.4873 34.9575 19.025C34.9575 20.5628 34.7679 20.7548 33.2491 20.7548H31.5409V24.2141V27.6737H33.2491C34.7679 27.6737 34.9575 27.8657 34.9575 29.4034C34.9575 30.9412 34.7679 31.1332 33.2491 31.1332C31.7305 31.1332 31.5409 31.3252 31.5409 32.8628C31.5409 34.4006 31.7305 34.5925 33.2491 34.5925C34.7679 34.5925 34.9575 34.4006 34.9575 32.8628C34.9575 31.3252 35.1471 31.1332 36.6659 31.1332C38.1847 31.1332 38.3743 31.3252 38.3743 32.8628C38.3743 34.4006 38.5639 34.5925 40.0827 34.5925H41.791V38.0521V41.5114H40.0827C38.5639 41.5114 38.3743 41.7034 38.3743 43.2412C38.3743 44.7789 38.5639 44.971 40.0827 44.971H41.791V48.4305V51.8898H46.9162H52.0412V46.7007V41.5114H55.458H58.8749V39.7818C58.8749 38.2441 59.0645 38.0521 60.5831 38.0521H62.2915V41.5114V44.971H63.9999H65.7083V48.4305V51.8898H63.9999C62.4811 51.8898 62.2915 51.6978 62.2915 50.1602V48.4305H58.8749H55.458V51.8898V55.3493H52.0412H48.6246V58.8089V62.2682H46.9162C45.3974 62.2682 45.2078 62.4602 45.2078 63.998V65.7278H41.791H38.3743V69.1871V72.6466H36.6659C35.1471 72.6466 34.9575 72.8386 34.9575 74.3764C34.9575 75.9142 34.7679 76.1062 33.2491 76.1062C31.7305 76.1062 31.5409 76.2982 31.5409 77.8358C31.5409 79.3735 31.7305 79.5655 33.2491 79.5655C34.7679 79.5655 34.9575 79.3735 34.9575 77.8358V76.1062H38.3743H41.791V79.5655V83.025H43.4994C45.0181 83.025 45.2078 83.217 45.2078 84.7548C45.2078 86.2925 45.3974 86.4846 46.9162 86.4846C48.435 86.4846 48.6246 86.6766 48.6246 88.2142C48.6246 89.7519 48.435 89.9439 46.9162 89.9439C45.3974 89.9439 45.2078 90.1359 45.2078 91.6737C45.2078 93.2114 45.0181 93.4034 43.4994 93.4034H41.791V89.9439V86.4846H40.0827H38.3743V89.9439V93.4034H36.6659H34.9575V88.2142V83.025H29.8324H24.7072V81.2953C24.7072 79.7575 24.5176 79.5655 22.999 79.5655C21.4802 79.5655 21.2906 79.7575 21.2906 81.2953C21.2906 82.833 21.101 83.025 19.5822 83.025C18.0634 83.025 17.8738 83.217 17.8738 84.7548C17.8738 86.2925 17.6841 86.4846 16.1654 86.4846H14.457V83.025V79.5655H16.1654C17.6841 79.5655 17.8738 79.3735 17.8738 77.8358C17.8738 76.2982 17.6841 76.1062 16.1654 76.1062C14.6467 76.1062 14.457 76.2982 14.457 77.8358C14.457 79.3735 14.2674 79.5655 12.7487 79.5655H11.0403V83.025V86.4846H9.33192C7.81316 86.4846 7.62353 86.6766 7.62353 88.2142C7.62353 89.7519 7.81316 89.9439 9.33192 89.9439C10.8507 89.9439 11.0403 90.1359 11.0403 91.6737C11.0403 93.2114 11.2299 93.4034 12.7487 93.4034C14.2674 93.4034 14.457 93.2114 14.457 91.6737C14.457 90.1359 14.6467 89.9439 16.1654 89.9439C17.6841 89.9439 17.8738 89.7519 17.8738 88.2142C17.8738 86.6766 18.0634 86.4846 19.5822 86.4846C21.101 86.4846 21.2906 86.6766 21.2906 88.2142C21.2906 89.7519 21.4802 89.9439 22.999 89.9439C24.5176 89.9439 24.7072 90.1359 24.7072 91.6737V93.4034H29.8324H34.9575V96.8628V100.322H33.2491H31.5409V103.782V107.241H33.2491C34.7679 107.241 34.9575 107.433 34.9575 108.971C34.9575 110.509 35.1471 110.701 36.6659 110.701C38.1847 110.701 38.3743 110.893 38.3743 112.43V114.16H41.791H45.2078V108.971V103.782H43.4994H41.791V100.322V96.8628H43.4994C45.0181 96.8628 45.2078 97.0548 45.2078 98.5926C45.2078 100.13 45.3974 100.322 46.9162 100.322H48.6246V103.782V107.241H50.333C51.8516 107.241 52.0412 107.433 52.0412 108.971V110.701H55.458H58.8749V112.43V114.16H55.458H52.0412V115.89C52.0412 117.428 51.8516 117.62 50.333 117.62C48.8142 117.62 48.6246 117.812 48.6246 119.349C48.6246 120.887 48.8142 121.079 50.333 121.079C51.8516 121.079 52.0412 120.887 52.0412 119.349C52.0412 117.812 52.2309 117.62 53.7496 117.62C55.2684 117.62 55.458 117.812 55.458 119.349C55.458 120.887 55.6477 121.079 57.1665 121.079H58.8749V117.62V114.16H62.2915H65.7083V112.43V110.701H69.125H72.5418V112.43C72.5418 113.968 72.3521 114.16 70.8334 114.16H69.125V117.62V121.079H70.8334H72.5418V117.62V114.16H75.9586H79.3752V115.89C79.3752 117.428 79.5649 117.62 81.0836 117.62C82.6024 117.62 82.792 117.428 82.792 115.89C82.792 114.352 82.6024 114.16 81.0836 114.16H79.3752V110.701V107.241H77.6668C76.1482 107.241 75.9586 107.433 75.9586 108.971C75.9586 110.509 75.769 110.701 74.2502 110.701C72.7314 110.701 72.5418 110.509 72.5418 108.971C72.5418 107.433 72.3521 107.241 70.8334 107.241C69.3146 107.241 69.125 107.049 69.125 105.511V103.782H72.5418H75.9586V102.052V100.322H70.8334H65.7083V98.5926V96.8628H69.125H72.5418V95.1332V93.4034H75.9586H79.3752V95.1332C79.3752 96.6708 79.5649 96.8628 81.0836 96.8628C82.6024 96.8628 82.792 96.6708 82.792 95.1332C82.792 93.5954 82.9817 93.4034 84.5005 93.4034H86.2089V96.8628V100.322H84.5005C82.9817 100.322 82.792 100.514 82.792 102.052C82.792 103.59 82.9817 103.782 84.5005 103.782H86.2089V108.971V114.16H87.9171H89.6255V110.701V107.241H91.3339H93.0423V110.701V114.16H94.7507H96.459V108.971V103.782H94.7507H93.0423V95.1332V86.4846H94.7507H96.459V89.9439V93.4034H99.8758H103.293V95.1332C103.293 96.6708 103.482 96.8628 105.001 96.8628C106.52 96.8628 106.709 96.6708 106.709 95.1332C106.709 93.5954 106.899 93.4034 108.418 93.4034C109.936 93.4034 110.126 93.5954 110.126 95.1332C110.126 96.6708 110.316 96.8628 111.834 96.8628C113.353 96.8628 113.543 96.6708 113.543 95.1332C113.543 93.5954 113.353 93.4034 111.834 93.4034C110.316 93.4034 110.126 93.2114 110.126 91.6737C110.126 90.1359 109.936 89.9439 108.418 89.9439C106.899 89.9439 106.709 89.7519 106.709 88.2142V86.4846H110.126H113.543V84.7548C113.543 83.217 113.732 83.025 115.251 83.025C116.77 83.025 116.96 82.833 116.96 81.2953C116.96 79.7575 116.77 79.5655 115.251 79.5655C113.732 79.5655 113.543 79.7575 113.543 81.2953V83.025H110.126H106.709V77.8358V72.6466H103.293H99.8758V70.9169V69.1871H105.001H110.126V70.9169C110.126 72.4546 110.316 72.6466 111.834 72.6466H113.543V69.1871V65.7278H110.126H106.709V62.2682V58.8089H110.126H113.543V60.5385C113.543 62.0762 113.732 62.2682 115.251 62.2682C116.77 62.2682 116.96 62.0762 116.96 60.5385C116.96 59.0009 116.77 58.8089 115.251 58.8089C113.732 58.8089 113.543 58.6169 113.543 57.0791C113.543 55.5414 113.732 55.3493 115.251 55.3493C116.77 55.3493 116.96 55.1574 116.96 53.6196C116.96 52.0818 116.77 51.8898 115.251 51.8898C113.732 51.8898 113.543 52.0818 113.543 53.6196V55.3493H110.126H106.709V57.0791C106.709 58.6169 106.52 58.8089 105.001 58.8089C103.482 58.8089 103.293 59.0009 103.293 60.5385C103.293 62.0762 103.103 62.2682 101.584 62.2682C100.065 62.2682 99.8758 62.0762 99.8758 60.5385C99.8758 59.0009 99.6861 58.8089 98.1674 58.8089C96.6486 58.8089 96.459 58.6169 96.459 57.0791C96.459 55.5414 96.2693 55.3493 94.7507 55.3493C93.2319 55.3493 93.0423 55.1574 93.0423 53.6196C93.0423 52.0818 92.8527 51.8898 91.3339 51.8898C89.8151 51.8898 89.6255 51.6978 89.6255 50.1602C89.6255 48.6225 89.4359 48.4305 87.9171 48.4305C86.3985 48.4305 86.2089 48.2385 86.2089 46.7007V44.971H93.0423H99.8758V38.0521V31.1332H98.1674H96.459V24.2141V17.2953H94.7507H93.0423V24.2141V31.1332H91.3339H89.6255V25.9439V20.7548H87.9171C86.3985 20.7548 86.2089 20.9468 86.2089 22.4845C86.2089 24.0221 86.0192 24.2141 84.5005 24.2141H82.792V20.7548V17.2953H81.0836H79.3752V24.2141V31.1332H77.6668H75.9586V25.9439V20.7548H74.2502H72.5418V17.2953V13.8358H69.125H65.7083V10.3764V6.9169H67.4167C68.9353 6.9169 69.125 6.7249 69.125 5.18717C69.125 3.64944 68.9353 3.45744 67.4167 3.45744C65.8979 3.45744 65.7083 3.64944 65.7083 5.18717C65.7083 6.7249 65.5187 6.9169 63.9999 6.9169C62.4811 6.9169 62.2915 6.7249 62.2915 5.18717V3.45744H58.8749H55.458V6.9169ZM106.709 12.1061V20.7548H115.251H123.793V12.1061V3.45744H115.251H106.709V12.1061ZM7.62353 12.1061V17.2953H12.7487H17.8738V12.1061V6.9169H12.7487H7.62353V12.1061ZM58.8749 8.64664C58.8749 10.1844 59.0645 10.3764 60.5831 10.3764C62.1019 10.3764 62.2915 10.1844 62.2915 8.64664C62.2915 7.1089 62.1019 6.9169 60.5831 6.9169C59.0645 6.9169 58.8749 7.1089 58.8749 8.64664ZM110.126 12.1061V17.2953H115.251H120.376V12.1061V6.9169H115.251H110.126V12.1061ZM52.0412 15.5656V17.2953H55.458H58.8749V15.5656V13.8358H55.458H52.0412V15.5656ZM62.2915 19.025V24.2141H60.5831C59.0645 24.2141 58.8749 24.0221 58.8749 22.4845C58.8749 20.9468 58.6852 20.7548 57.1665 20.7548C55.6477 20.7548 55.458 20.9468 55.458 22.4845C55.458 24.0221 55.2684 24.2141 53.7496 24.2141C52.2309 24.2141 52.0412 24.0221 52.0412 22.4845C52.0412 20.9468 51.8516 20.7548 50.333 20.7548C48.8142 20.7548 48.6246 20.5628 48.6246 19.025C48.6246 17.4873 48.435 17.2953 46.9162 17.2953C45.3974 17.2953 45.2078 17.4873 45.2078 19.025C45.2078 20.5628 45.0181 20.7548 43.4994 20.7548C41.9806 20.7548 41.791 20.9468 41.791 22.4845C41.791 24.0221 41.6013 24.2141 40.0827 24.2141C38.5639 24.2141 38.3743 24.0221 38.3743 22.4845C38.3743 20.9468 38.1847 20.7548 36.6659 20.7548C35.1471 20.7548 34.9575 20.9468 34.9575 22.4845C34.9575 24.0221 35.1471 24.2141 36.6659 24.2141H38.3743V27.6737V31.1332H40.0827C41.6013 31.1332 41.791 31.3252 41.791 32.8628C41.791 34.4006 41.9806 34.5925 43.4994 34.5925C45.0181 34.5925 45.2078 34.4006 45.2078 32.8628C45.2078 31.3252 45.3974 31.1332 46.9162 31.1332C48.435 31.1332 48.6246 30.9412 48.6246 29.4034V27.6737H55.458H62.2915V29.4034V31.1332H58.8749H55.458V34.5925V38.0521H57.1665C58.6852 38.0521 58.8749 37.8601 58.8749 36.3223C58.8749 34.7845 59.0645 34.5925 60.5831 34.5925C62.1019 34.5925 62.2915 34.7845 62.2915 36.3223C62.2915 37.8601 62.4811 38.0521 63.9999 38.0521C65.5187 38.0521 65.7083 37.8601 65.7083 36.3223C65.7083 34.7845 65.8979 34.5925 67.4167 34.5925C68.9353 34.5925 69.125 34.7845 69.125 36.3223C69.125 37.8601 69.3146 38.0521 70.8334 38.0521C72.3521 38.0521 72.5418 38.2441 72.5418 39.7818V41.5114H69.125H65.7083V43.2412V44.971H72.5418H79.3752V46.7007V48.4305H75.9586H72.5418V50.1602C72.5418 51.6978 72.3521 51.8898 70.8334 51.8898C69.3146 51.8898 69.125 52.0818 69.125 53.6196C69.125 55.1574 68.9353 55.3493 67.4167 55.3493C65.8979 55.3493 65.7083 55.5414 65.7083 57.0791C65.7083 58.6169 65.5187 58.8089 63.9999 58.8089C62.4811 58.8089 62.2915 59.0009 62.2915 60.5385C62.2915 62.0762 62.4811 62.2682 63.9999 62.2682C65.5187 62.2682 65.7083 62.4602 65.7083 63.998V65.7278H60.5831H55.458V63.998V62.2682H52.0412H48.6246V63.998C48.6246 65.5358 48.435 65.7278 46.9162 65.7278H45.2078V69.1871V72.6466H43.4994C41.9806 72.6466 41.791 72.8386 41.791 74.3764C41.791 75.9142 41.9806 76.1062 43.4994 76.1062C45.0181 76.1062 45.2078 75.9142 45.2078 74.3764C45.2078 72.8386 45.3974 72.6466 46.9162 72.6466C48.435 72.6466 48.6246 72.8386 48.6246 74.3764C48.6246 75.9142 48.8142 76.1062 50.333 76.1062C51.8516 76.1062 52.0412 76.2982 52.0412 77.8358C52.0412 79.3735 52.2309 79.5655 53.7496 79.5655C55.2684 79.5655 55.458 79.7575 55.458 81.2953V83.025H58.8749H62.2915V84.7548V86.4846H58.8749H55.458V89.9439V93.4034H57.1665C58.6852 93.4034 58.8749 93.5954 58.8749 95.1332V96.8628H53.7496H48.6246V98.5926C48.6246 100.13 48.8142 100.322 50.333 100.322H52.0412V103.782V107.241H53.7496C55.2684 107.241 55.458 107.049 55.458 105.511V103.782H58.8749H62.2915V105.511C62.2915 107.049 62.4811 107.241 63.9999 107.241H65.7083V103.782V100.322H63.9999C62.4811 100.322 62.2915 100.13 62.2915 98.5926C62.2915 97.0548 62.4811 96.8628 63.9999 96.8628H65.7083V93.4034V89.9439H67.4167C68.9353 89.9439 69.125 90.1359 69.125 91.6737C69.125 93.2114 69.3146 93.4034 70.8334 93.4034C72.3521 93.4034 72.5418 93.2114 72.5418 91.6737C72.5418 90.1359 72.7314 89.9439 74.2502 89.9439C75.769 89.9439 75.9586 89.7519 75.9586 88.2142C75.9586 86.6766 76.1482 86.4846 77.6668 86.4846C79.1856 86.4846 79.3752 86.2925 79.3752 84.7548C79.3752 83.217 79.5649 83.025 81.0836 83.025C82.6024 83.025 82.792 83.217 82.792 84.7548C82.792 86.2925 82.9817 86.4846 84.5005 86.4846C86.0192 86.4846 86.2089 86.6766 86.2089 88.2142C86.2089 89.7519 86.3985 89.9439 87.9171 89.9439C89.4359 89.9439 89.6255 89.7519 89.6255 88.2142C89.6255 86.6766 89.8151 86.4846 91.3339 86.4846C92.8527 86.4846 93.0423 86.2925 93.0423 84.7548C93.0423 83.217 92.8527 83.025 91.3339 83.025C89.8151 83.025 89.6255 83.217 89.6255 84.7548C89.6255 86.2925 89.4359 86.4846 87.9171 86.4846H86.2089V81.2953V76.1062H87.9171C89.4359 76.1062 89.6255 75.9142 89.6255 74.3764C89.6255 72.8386 89.4359 72.6466 87.9171 72.6466C86.3985 72.6466 86.2089 72.8386 86.2089 74.3764C86.2089 75.9142 86.0192 76.1062 84.5005 76.1062C82.9817 76.1062 82.792 75.9142 82.792 74.3764C82.792 72.8386 82.6024 72.6466 81.0836 72.6466H79.3752V76.1062V79.5655H77.6668H75.9586V83.025V86.4846H70.8334H65.7083V84.7548V83.025H69.125H72.5418V81.2953V79.5655H67.4167H62.2915V77.8358C62.2915 76.2982 62.4811 76.1062 63.9999 76.1062C65.5187 76.1062 65.7083 75.9142 65.7083 74.3764C65.7083 72.8386 65.5187 72.6466 63.9999 72.6466C62.4811 72.6466 62.2915 72.4546 62.2915 70.9169V69.1871H65.7083H69.125V70.9169C69.125 72.4546 69.3146 72.6466 70.8334 72.6466C72.3521 72.6466 72.5418 72.8386 72.5418 74.3764C72.5418 75.9142 72.7314 76.1062 74.2502 76.1062H75.9586V70.9169V65.7278H77.6668C79.1856 65.7278 79.3752 65.9198 79.3752 67.4575C79.3752 68.9951 79.5649 69.1871 81.0836 69.1871C82.6024 69.1871 82.792 68.9951 82.792 67.4575C82.792 65.9198 82.9817 65.7278 84.5005 65.7278C86.0192 65.7278 86.2089 65.5358 86.2089 63.998C86.2089 62.4602 86.3985 62.2682 87.9171 62.2682C89.4359 62.2682 89.6255 62.0762 89.6255 60.5385C89.6255 59.0009 89.8151 58.8089 91.3339 58.8089H93.0423V62.2682V65.7278H91.3339C89.8151 65.7278 89.6255 65.9198 89.6255 67.4575C89.6255 68.9951 89.8151 69.1871 91.3339 69.1871H93.0423V74.3764V79.5655H94.7507H96.459V83.025V86.4846H98.1674C99.6861 86.4846 99.8758 86.6766 99.8758 88.2142C99.8758 89.7519 100.065 89.9439 101.584 89.9439C103.103 89.9439 103.293 89.7519 103.293 88.2142C103.293 86.6766 103.482 86.4846 105.001 86.4846C106.52 86.4846 106.709 86.2925 106.709 84.7548C106.709 83.217 106.52 83.025 105.001 83.025C103.482 83.025 103.293 83.217 103.293 84.7548C103.293 86.2925 103.103 86.4846 101.584 86.4846H99.8758V79.5655V72.6466H98.1674C96.6486 72.6466 96.459 72.4546 96.459 70.9169C96.459 69.3791 96.6486 69.1871 98.1674 69.1871C99.6861 69.1871 99.8758 68.9951 99.8758 67.4575C99.8758 65.9198 99.6861 65.7278 98.1674 65.7278H96.459V62.2682V58.8089H94.7507C93.2319 58.8089 93.0423 58.6169 93.0423 57.0791C93.0423 55.5414 92.8527 55.3493 91.3339 55.3493C89.8151 55.3493 89.6255 55.5414 89.6255 57.0791V58.8089H86.2089H82.792V60.5385C82.792 62.0762 82.6024 62.2682 81.0836 62.2682C79.5649 62.2682 79.3752 62.0762 79.3752 60.5385C79.3752 59.0009 79.1856 58.8089 77.6668 58.8089C76.1482 58.8089 75.9586 59.0009 75.9586 60.5385C75.9586 62.0762 75.769 62.2682 74.2502 62.2682C72.7314 62.2682 72.5418 62.4602 72.5418 63.998C72.5418 65.5358 72.3521 65.7278 70.8334 65.7278H69.125V62.2682V58.8089H70.8334C72.3521 58.8089 72.5418 58.6169 72.5418 57.0791C72.5418 55.5414 72.7314 55.3493 74.2502 55.3493C75.769 55.3493 75.9586 55.1574 75.9586 53.6196C75.9586 52.0818 76.1482 51.8898 77.6668 51.8898C79.1856 51.8898 79.3752 52.0818 79.3752 53.6196V55.3493H82.792H86.2089V53.6196C86.2089 52.0818 86.0192 51.8898 84.5005 51.8898H82.792V46.7007V41.5114H84.5005C86.0192 41.5114 86.2089 41.3194 86.2089 39.7818V38.0521H91.3339H96.459V34.5925V31.1332H94.7507C93.2319 31.1332 93.0423 31.3252 93.0423 32.8628V34.5925H89.6255H86.2089V36.3223C86.2089 37.8601 86.0192 38.0521 84.5005 38.0521C82.9817 38.0521 82.792 38.2441 82.792 39.7818V41.5114H79.3752H75.9586V39.7818C75.9586 38.2441 76.1482 38.0521 77.6668 38.0521C79.1856 38.0521 79.3752 37.8601 79.3752 36.3223C79.3752 34.7845 79.1856 34.5925 77.6668 34.5925C76.1482 34.5925 75.9586 34.7845 75.9586 36.3223C75.9586 37.8601 75.769 38.0521 74.2502 38.0521H72.5418V34.5925V31.1332H70.8334C69.3146 31.1332 69.125 30.9412 69.125 29.4034C69.125 27.8657 69.3146 27.6737 70.8334 27.6737H72.5418V24.2141V20.7548H70.8334C69.3146 20.7548 69.125 20.5628 69.125 19.025C69.125 17.4873 68.9353 17.2953 67.4167 17.2953C65.8979 17.2953 65.7083 17.1033 65.7083 15.5656C65.7083 14.0278 65.5187 13.8358 63.9999 13.8358H62.2915V19.025ZM45.2078 22.4845C45.2078 24.0221 45.0181 24.2141 43.4994 24.2141H41.791V27.6737V31.1332H43.4994H45.2078V27.6737V24.2141H46.9162C48.435 24.2141 48.6246 24.0221 48.6246 22.4845C48.6246 20.9468 48.435 20.7548 46.9162 20.7548C45.3974 20.7548 45.2078 20.9468 45.2078 22.4845ZM65.7083 24.2141V27.6737H67.4167H69.125V24.2141V20.7548H67.4167H65.7083V24.2141ZM0.790039 29.4034C0.790039 30.9412 0.979669 31.1332 2.49841 31.1332C4.01716 31.1332 4.20679 30.9412 4.20679 29.4034C4.20679 27.8657 4.01716 27.6737 2.49841 27.6737C0.979669 27.6737 0.790039 27.8657 0.790039 29.4034ZM82.792 29.4034C82.792 30.9412 82.9817 31.1332 84.5005 31.1332C86.0192 31.1332 86.2089 30.9412 86.2089 29.4034C86.2089 27.8657 86.0192 27.6737 84.5005 27.6737C82.9817 27.6737 82.792 27.8657 82.792 29.4034ZM21.2906 32.8628C21.2906 34.4006 21.4802 34.5925 22.999 34.5925C24.5176 34.5925 24.7072 34.4006 24.7072 32.8628C24.7072 31.3252 24.5176 31.1332 22.999 31.1332C21.4802 31.1332 21.2906 31.3252 21.2906 32.8628ZM62.2915 32.8628C62.2915 34.4006 62.4811 34.5925 63.9999 34.5925C65.5187 34.5925 65.7083 34.4006 65.7083 32.8628C65.7083 31.3252 65.5187 31.1332 63.9999 31.1332C62.4811 31.1332 62.2915 31.3252 62.2915 32.8628ZM103.293 34.5925V38.0521H105.001H106.709V34.5925V31.1332H105.001H103.293V34.5925ZM28.124 39.7818V41.5114H31.5409H34.9575V39.7818V38.0521H31.5409H28.124V39.7818ZM41.791 43.2412C41.791 44.7789 41.9806 44.971 43.4994 44.971C45.0181 44.971 45.2078 45.1629 45.2078 46.7007C45.2078 48.2385 45.3974 48.4305 46.9162 48.4305C48.435 48.4305 48.6246 48.2385 48.6246 46.7007C48.6246 45.1629 48.435 44.971 46.9162 44.971C45.3974 44.971 45.2078 44.7789 45.2078 43.2412C45.2078 41.7034 45.0181 41.5114 43.4994 41.5114C41.9806 41.5114 41.791 41.7034 41.791 43.2412ZM21.2906 46.7007C21.2906 48.2385 21.4802 48.4305 22.999 48.4305C24.5176 48.4305 24.7072 48.6225 24.7072 50.1602C24.7072 51.6978 24.5176 51.8898 22.999 51.8898C21.4802 51.8898 21.2906 52.0818 21.2906 53.6196C21.2906 55.1574 21.101 55.3493 19.5822 55.3493H17.8738V60.5385V65.7278H16.1654C14.6467 65.7278 14.457 65.9198 14.457 67.4575C14.457 68.9951 14.6467 69.1871 16.1654 69.1871C17.6841 69.1871 17.8738 68.9951 17.8738 67.4575C17.8738 65.9198 18.0634 65.7278 19.5822 65.7278C21.101 65.7278 21.2906 65.9198 21.2906 67.4575V69.1871H26.4156H31.5409V67.4575C31.5409 65.9198 31.7305 65.7278 33.2491 65.7278C34.7679 65.7278 34.9575 65.5358 34.9575 63.998C34.9575 62.4602 34.7679 62.2682 33.2491 62.2682C31.7305 62.2682 31.5409 62.4602 31.5409 63.998V65.7278H26.4156H21.2906V63.998V62.2682H24.7072H28.124V60.5385C28.124 59.0009 28.3137 58.8089 29.8324 58.8089C31.3512 58.8089 31.5409 58.6169 31.5409 57.0791V55.3493H34.9575H38.3743V53.6196C38.3743 52.0818 38.1847 51.8898 36.6659 51.8898H34.9575V48.4305V44.971H31.5409H28.124V46.7007C28.124 48.2385 27.9344 48.4305 26.4156 48.4305C24.8969 48.4305 24.7072 48.2385 24.7072 46.7007C24.7072 45.1629 24.5176 44.971 22.999 44.971C21.4802 44.971 21.2906 45.1629 21.2906 46.7007ZM24.7072 53.6196C24.7072 55.1574 24.5176 55.3493 22.999 55.3493C21.4802 55.3493 21.2906 55.5414 21.2906 57.0791C21.2906 58.6169 21.4802 58.8089 22.999 58.8089C24.5176 58.8089 24.7072 58.6169 24.7072 57.0791C24.7072 55.5414 24.8969 55.3493 26.4156 55.3493C27.9344 55.3493 28.124 55.1574 28.124 53.6196C28.124 52.0818 27.9344 51.8898 26.4156 51.8898C24.8969 51.8898 24.7072 52.0818 24.7072 53.6196ZM55.458 57.0791C55.458 58.6169 55.6477 58.8089 57.1665 58.8089C58.6852 58.8089 58.8749 58.6169 58.8749 57.0791C58.8749 55.5414 58.6852 55.3493 57.1665 55.3493C55.6477 55.3493 55.458 55.5414 55.458 57.0791ZM11.0403 60.5385C11.0403 62.0762 11.2299 62.2682 12.7487 62.2682C14.2674 62.2682 14.457 62.0762 14.457 60.5385C14.457 59.0009 14.2674 58.8089 12.7487 58.8089C11.2299 58.8089 11.0403 59.0009 11.0403 60.5385ZM38.3743 60.5385C38.3743 62.0762 38.5639 62.2682 40.0827 62.2682C41.6013 62.2682 41.791 62.0762 41.791 60.5385C41.791 59.0009 41.6013 58.8089 40.0827 58.8089C38.5639 58.8089 38.3743 59.0009 38.3743 60.5385ZM48.6246 69.1871V72.6466H53.7496H58.8749V74.3764C58.8749 75.9142 58.6852 76.1062 57.1665 76.1062C55.6477 76.1062 55.458 76.2982 55.458 77.8358C55.458 79.3735 55.6477 79.5655 57.1665 79.5655C58.6852 79.5655 58.8749 79.3735 58.8749 77.8358C58.8749 76.2982 59.0645 76.1062 60.5831 76.1062C62.1019 76.1062 62.2915 75.9142 62.2915 74.3764C62.2915 72.8386 62.1019 72.6466 60.5831 72.6466C59.0645 72.6466 58.8749 72.4546 58.8749 70.9169V69.1871H55.458H52.0412V67.4575C52.0412 65.9198 51.8516 65.7278 50.333 65.7278H48.6246V69.1871ZM21.2906 74.3764C21.2906 75.9142 21.4802 76.1062 22.999 76.1062C24.5176 76.1062 24.7072 75.9142 24.7072 74.3764C24.7072 72.8386 24.5176 72.6466 22.999 72.6466C21.4802 72.6466 21.2906 72.8386 21.2906 74.3764ZM21.2906 84.7548C21.2906 86.2925 21.4802 86.4846 22.999 86.4846C24.5176 86.4846 24.7072 86.6766 24.7072 88.2142V89.9439H28.124H31.5409V88.2142V86.4846H28.124H24.7072V84.7548C24.7072 83.217 24.5176 83.025 22.999 83.025C21.4802 83.025 21.2906 83.217 21.2906 84.7548ZM48.6246 84.7548C48.6246 86.2925 48.8142 86.4846 50.333 86.4846C51.8516 86.4846 52.0412 86.2925 52.0412 84.7548C52.0412 83.217 51.8516 83.025 50.333 83.025C48.8142 83.025 48.6246 83.217 48.6246 84.7548ZM62.2915 88.2142C62.2915 89.7519 62.1019 89.9439 60.5831 89.9439C59.0645 89.9439 58.8749 90.1359 58.8749 91.6737C58.8749 93.2114 59.0645 93.4034 60.5831 93.4034C62.1019 93.4034 62.2915 93.2114 62.2915 91.6737C62.2915 90.1359 62.4811 89.9439 63.9999 89.9439C65.5187 89.9439 65.7083 89.7519 65.7083 88.2142C65.7083 86.6766 65.5187 86.4846 63.9999 86.4846C62.4811 86.4846 62.2915 86.6766 62.2915 88.2142ZM48.6246 91.6737C48.6246 93.2114 48.8142 93.4034 50.333 93.4034C51.8516 93.4034 52.0412 93.2114 52.0412 91.6737C52.0412 90.1359 51.8516 89.9439 50.333 89.9439C48.8142 89.9439 48.6246 90.1359 48.6246 91.6737ZM38.3743 95.1332C38.3743 96.6708 38.5639 96.8628 40.0827 96.8628C41.6013 96.8628 41.791 96.6708 41.791 95.1332C41.791 93.5954 41.6013 93.4034 40.0827 93.4034C38.5639 93.4034 38.3743 93.5954 38.3743 95.1332ZM86.2089 102.052C86.2089 103.59 86.3985 103.782 87.9171 103.782C89.4359 103.782 89.6255 103.59 89.6255 102.052C89.6255 100.514 89.4359 100.322 87.9171 100.322C86.3985 100.322 86.2089 100.514 86.2089 102.052ZM99.8758 105.511V110.701H105.001H110.126V105.511V100.322H105.001H99.8758V105.511ZM0.790039 115.89V127.998H12.7487H24.7072V115.89V103.782H12.7487H0.790039V115.89ZM34.9575 105.511V107.241H38.3743H41.791V105.511V103.782H38.3743H34.9575V105.511ZM103.293 105.511C103.293 107.049 103.482 107.241 105.001 107.241C106.52 107.241 106.709 107.049 106.709 105.511C106.709 103.974 106.52 103.782 105.001 103.782C103.482 103.782 103.293 103.974 103.293 105.511ZM4.20679 115.89V124.538H12.7487H21.2906V115.89V107.241H12.7487H4.20679V115.89ZM7.62353 115.89V121.079H12.7487H17.8738V115.89V110.701H12.7487H7.62353V115.89ZM120.376 112.43C120.376 113.968 120.566 114.16 122.085 114.16C123.603 114.16 123.793 113.968 123.793 112.43C123.793 110.893 123.603 110.701 122.085 110.701C120.566 110.701 120.376 110.893 120.376 112.43ZM75.9586 122.809C75.9586 124.346 76.1482 124.538 77.6668 124.538C79.1856 124.538 79.3752 124.346 79.3752 122.809C79.3752 121.271 79.1856 121.079 77.6668 121.079C76.1482 121.079 75.9586 121.271 75.9586 122.809ZM28.124 126.268C28.124 127.806 28.3137 127.998 29.8324 127.998C31.3512 127.998 31.5409 127.806 31.5409 126.268C31.5409 124.73 31.3512 124.538 29.8324 124.538C28.3137 124.538 28.124 124.73 28.124 126.268Z" fill="#F2F2F2"/>
</g>
</g>
<defs>
<clipPath id="clip0_2244_32441">
<rect width="128" height="128" fill="white"/>
</clipPath>
</defs>
</svg>
