<svg xmlns="http://www.w3.org/2000/svg" aria-hidden="true">

  <symbol id="icon-arrow-right" viewBox="0 0 7 12" fill="none">
    <path d="M0.75 0.75L5.75 5.75L0.75 10.75" stroke="currentColor" stroke-width="1.5" stroke-linecap="round" stroke-linejoin="round"/>
  </symbol>

  <symbol id="icon-breadcrumb-dot" viewBox="0 0 4 4" fill="none">
    <circle cx="2" cy="2" r="2" fill="currentColor"/>
  </symbol>

  <symbol id="icon-product-color-half" viewBox="0 0 6 6" fill="none">
    <path d="M3 0C2.20435 0 1.44129 0.31607 0.87868 0.87868C0.316071 1.44129 0 2.20435 0 3C0 3.79565 0.31607 4.55871 0.878679 5.12132C1.44129 5.68393 2.20435 6 3 6V3V0Z" fill="currentColor"/>
    <path d="M3 6C3.79565 6 4.55871 5.68393 5.12132 5.12132C5.68393 4.55871 6 3.79565 6 3C6 2.20435 5.68393 1.44129 5.12132 0.87868C4.55871 0.316071 3.79565 0 3 0V3V6Z" fill="white"/>
  </symbol>

  <symbol id="icon-product-ruler" viewBox="0 0 16 16" fill="none">
    <path d="M6.37104 11.7249L5.14301 10.4969M8.21308 9.88287L6.98505 8.65485M10.0551 8.04083L8.8271 6.81281M11.8972 6.19879L10.6691 4.97076M5.28345 13.8796L13.8796 5.28345C14.2188 4.94434 14.2188 4.39454 13.8796 4.05543L11.4125 1.58832C11.0734 1.24921 10.5236 1.24921 10.1845 1.58832L1.58832 10.1845C1.24921 10.5236 1.24921 11.0734 1.58832 11.4125L4.05543 13.8796C4.39454 14.2188 4.94434 14.2188 5.28345 13.8796Z" stroke="currentColor" stroke-linecap="round" stroke-linejoin="round"/>
  </symbol>

  <symbol id="icon-product-bonus" viewBox="0 0 16 16" fill="none">
    <path d="M5.23825 5.09052C5.75495 3.08298 7.57732 1.59961 9.74615 1.59961C12.3168 1.59961 14.4007 3.68352 14.4007 6.25415C14.4007 8.30363 13.0761 10.0437 11.2363 10.665M10.9087 9.74506C10.9087 12.3157 8.82479 14.3996 6.25415 14.3996C3.68352 14.3996 1.59961 12.3157 1.59961 9.74506C1.59961 7.17443 3.68352 5.09052 6.25415 5.09052C8.82479 5.09052 10.9087 7.17443 10.9087 9.74506Z" stroke="currentColor" stroke-width="2" stroke-linecap="round" stroke-linejoin="round"/>
  </symbol>

  <symbol id="icon-product-dolyami" viewBox="0 0 16 16" fill="none">
    <path d="M8 0C12.4183 0 16 3.58172 16 8C16 12.4183 12.4183 16 8 16C3.58172 16 0 12.4183 0 8C0 3.58172 3.58172 0 8 0Z" fill="black"/>
    <path d="M12.4997 4.37695H11.291V10.5062H12.4997V4.37695Z" fill="white"/>
    <path d="M9.90206 4.7207H8.69336V10.8498H9.90206V4.7207Z" fill="white"/>
    <path d="M7.30636 5.10352H6.09766V11.2338H7.30636V5.10352Z" fill="white"/>
    <path d="M4.70868 5.49023H3.5V11.6212H4.70868V5.49023Z" fill="white"/>
  </symbol>

  <symbol id="icon-product-pay-grid" viewBox="0 0 16 16" fill="none">
    <circle cx="4.5" cy="11.5" r="3" fill="currentColor"/>
    <circle cx="11.5" cy="11.5" r="3" fill="currentColor"/>
    <circle cx="4.5" cy="4.5" r="3" fill="currentColor"/>
    <circle cx="11.5" cy="4.5" r="2.5" stroke="currentColor"/>
  </symbol>

  <symbol id="icon-product-tbank" viewBox="0 0 24 24" fill="none">
    <rect width="24" height="24" rx="12" fill="#FFDD2D"/>
    <path fill-rule="evenodd" clip-rule="evenodd" d="M7 7V10.7988C7.47416 10.2122 8.33627 9.81515 9.32198 9.81515H10.3932V14.2312C10.3932 15.406 10.1018 16.4344 9.66947 17H14.3289C13.8975 16.4338 13.6068 15.4067 13.6068 14.2334V9.81515H14.678C15.6637 9.81515 16.5258 10.2122 17 10.7988V7H7Z" fill="#333333"/>
  </symbol>

  <symbol id="icon-heart" viewBox="0 0 20 17" fill="none">
    <path d="M9.6875 15.875C9.6875 15.875 0.75 11.0625 0.75 5.39062C0.75 4.15985 1.23892 2.97949 2.10921 2.10921C2.97949 1.23892 4.15985 0.75 5.39062 0.75C7.33195 0.75 8.99484 1.80789 9.6875 3.5C10.3802 1.80789 12.043 0.75 13.9844 0.75C15.2151 0.75 16.3955 1.23892 17.2658 2.10921C18.1361 2.97949 18.625 4.15985 18.625 5.39062C18.625 11.0625 9.6875 15.875 9.6875 15.875Z" stroke="currentColor" stroke-width="1.5" stroke-linecap="round" stroke-linejoin="round"/>
  </symbol>

  <symbol id="icon-map-pin" viewBox="0 0 12 12" fill="none">
    <path d="M6 6.375C6.82843 6.375 7.5 5.70343 7.5 4.875C7.5 4.04657 6.82843 3.375 6 3.375C5.17157 3.375 4.5 4.04657 4.5 4.875C4.5 5.70343 5.17157 6.375 6 6.375Z" stroke="currentColor" stroke-width="1.2" stroke-linecap="round" stroke-linejoin="round"/>
    <path d="M9.75 4.875C9.75 8.25 6 10.875 6 10.875C6 10.875 2.25 8.25 2.25 4.875C2.25 3.88044 2.64509 2.92661 3.34835 2.22335C4.05161 1.52009 5.00544 1.125 6 1.125C6.99456 1.125 7.94839 1.52009 8.65165 2.22335C9.35491 2.92661 9.75 3.88044 9.75 4.875Z" stroke="currentColor" stroke-width="1.2" stroke-linecap="round" stroke-linejoin="round"/>
  </symbol>

  <symbol id="icon-plus" viewBox="0 0 20 20" fill="none">
    <path d="M3.125 10H16.875" stroke="currentColor" stroke-width="1.5" stroke-linecap="round" stroke-linejoin="round"/>
    <path d="M10 3.125V16.875" stroke="currentColor" stroke-width="1.5" stroke-linecap="round" stroke-linejoin="round"/>
  </symbol>

  <symbol id="icon-share" viewBox="0 0 16 16" fill="none">
    <path d="M13 10V12C13 12.5523 12.5523 13 12 13H4C3.44772 13 3 12.5523 3 12V10" stroke="currentColor" stroke-width="2"/>
    <path d="M5 5L8 3L11 5" stroke="currentColor" stroke-width="2"/>
    <path d="M8 4V10" stroke="currentColor" stroke-width="2"/>
  </symbol>

  <symbol id="icon-search" viewBox="0 0 20 20">
    <path fill-rule="evenodd" clip-rule="evenodd" d="M13.7619 15.176C12.3146 16.3183 10.4869 17 8.5 17C3.80558 17 0 13.1944 0 8.5C0 3.80558 3.80558 0 8.5 0C13.1944 0 17 3.80558 17 8.5C17 10.4868 16.3183 12.3145 15.1761 13.7618L20.0032 18.5889L18.589 20.0031L13.7619 15.176ZM15 8.5C15 12.0899 12.0899 15 8.5 15C4.91015 15 2 12.0899 2 8.5C2 4.91015 4.91015 2 8.5 2C12.0899 2 15 4.91015 15 8.5Z" fill="currentColor"/>
  </symbol>

  <symbol id="icon-tab-cart" viewBox="0 0 24 24" fill="none">
    <path d="M8.25 21.75C9.07843 21.75 9.75 21.0784 9.75 20.25C9.75 19.4216 9.07843 18.75 8.25 18.75C7.42157 18.75 6.75 19.4216 6.75 20.25C6.75 21.0784 7.42157 21.75 8.25 21.75Z" fill="currentColor"/>
    <path d="M18 21.75C18.8284 21.75 19.5 21.0784 19.5 20.25C19.5 19.4216 18.8284 18.75 18 18.75C17.1716 18.75 16.5 19.4216 16.5 20.25C16.5 21.0784 17.1716 21.75 18 21.75Z" fill="currentColor"/>
    <path d="M1.5 3H3.75L7.19531 15.4012C7.28299 15.7171 7.47171 15.9955 7.73261 16.1939C7.99351 16.3924 8.31222 16.4999 8.64 16.5H17.9062C18.2342 16.5001 18.5531 16.3927 18.8142 16.1942C19.0753 15.9958 19.2642 15.7172 19.3519 15.4012L21.75 6.75H4.79156" stroke="currentColor" stroke-width="1.5" stroke-linecap="round" stroke-linejoin="round"/>
  </symbol>

  <symbol id="icon-tab-catalog" viewBox="0 0 24 24" fill="none">
    <path d="M3.75 6H20.25" stroke="currentColor" stroke-width="1.5" stroke-linecap="round" stroke-linejoin="round"/>
    <path d="M3.75 12H10.5" stroke="currentColor" stroke-width="1.5" stroke-linecap="round" stroke-linejoin="round"/>
    <path d="M3.75 18H12" stroke="currentColor" stroke-width="1.5" stroke-linecap="round" stroke-linejoin="round"/>
    <path d="M17.25 16.5C18.9069 16.5 20.25 15.1569 20.25 13.5C20.25 11.8431 18.9069 10.5 17.25 10.5C15.5931 10.5 14.25 11.8431 14.25 13.5C14.25 15.1569 15.5931 16.5 17.25 16.5Z" stroke="currentColor" stroke-width="1.5" stroke-linecap="round" stroke-linejoin="round"/>
    <path d="M19.3716 15.6216L21.75 18" stroke="currentColor" stroke-width="1.5" stroke-linecap="round" stroke-linejoin="round"/>
  </symbol>

  <symbol id="icon-tab-heart" viewBox="0 0 24 24" fill="none">
    <path d="M12 21C12 21 2.25 15.75 2.25 9.5625C2.25 8.21984 2.78337 6.93217 3.73277 5.98277C4.68217 5.03337 5.96984 4.5 7.3125 4.5C9.43031 4.5 11.2444 5.65406 12 7.5C12.7556 5.65406 14.5697 4.5 16.6875 4.5C18.0302 4.5 19.3178 5.03337 20.2672 5.98277C21.2166 6.93217 21.75 8.21984 21.75 9.5625C21.75 15.75 12 21 12 21Z" stroke="currentColor" stroke-width="1.5" stroke-linecap="round" stroke-linejoin="round"/>
  </symbol>

  <symbol id="icon-tab-home" viewBox="6.5 4 31.3 17">
    <path d="M22.5955 4.01726C25.7753 3.98247 29.0077 4.01279 32.1917 4.01155L35.6174 4.0108C36.2983 4.01084 37.1059 3.99142 37.7721 4.04315C37.6611 4.42471 37.1785 5.09039 36.9495 5.45758C36.2806 6.53009 35.6142 7.5116 34.9701 8.60457C32.6904 8.67415 30.2705 8.56613 27.9799 8.61119C27.0894 8.62871 26.0096 8.56779 25.1439 8.63095L24.2283 10.1858C26.0278 10.2374 27.847 10.1741 29.6483 10.2002C29.9039 10.204 30.795 10.1612 30.9609 10.3249C30.9568 10.5195 29.2144 13.1722 28.9649 13.5553C28.6771 14.0135 28.4492 14.4149 28.1901 14.8905C25.953 14.8989 23.3669 14.8217 21.1619 14.9018L18.449 19.1863C18.0329 19.8309 17.7629 20.4811 17.1876 20.9999C16.5245 19.9776 15.8459 18.971 15.2203 17.9259C14.9846 17.5321 14.6873 17.1682 14.4771 16.7565C14.9537 16.1068 15.233 15.6118 15.6521 14.9392L17.0231 12.7783L22.5955 4.01726Z" fill="currentColor"/>
    <path d="M6.50027 4.03446C7.12996 3.97387 8.32795 4.0116 9.00912 4.01172L13.8607 4.01288L18.2015 4.00994C18.8042 4.00973 20.0589 3.97755 20.6188 4.06701C20.5261 4.27231 20.4253 4.45818 20.2968 4.64294C19.776 5.39149 19.3391 6.20548 18.8284 6.9566C18.4221 7.49985 18.1697 8.0682 17.7694 8.60482C16.863 8.63746 15.779 8.61066 14.8589 8.6105L9.29298 8.60913C8.95892 8.14204 8.50964 7.34951 8.18743 6.86213C7.9468 6.49812 6.47716 4.27144 6.50027 4.03446Z" fill="currentColor"/>
  </symbol>

  <symbol id="icon-tab-user" viewBox="0 0 24 24" fill="none">
    <path d="M16 13C18.7614 13 21 15.2386 21 18C21 19.6569 19.6569 21 18 21H6C4.34315 21 3 19.6569 3 18C3 15.2386 5.23858 13 8 13H16ZM12 3C14.2091 3 16 4.79086 16 7C16 9.20914 14.2091 11 12 11C9.79086 11 8 9.20914 8 7C8 4.79086 9.79086 3 12 3Z" fill="currentColor"/>
  </symbol>

  <symbol id="icon-tab-menu" viewBox="0 0 24 24" fill="none">
    <path fill-rule="evenodd" clip-rule="evenodd" d="M4.28571 7C3.94472 7 3.6177 7.1317 3.37658 7.36612C3.13546 7.60054 3 7.91848 3 8.25C3 8.58152 3.13546 8.89946 3.37658 9.13388C3.6177 9.3683 3.94472 9.5 4.28571 9.5H19.7143C20.0553 9.5 20.3823 9.3683 20.6234 9.13388C20.8645 8.89946 21 8.58152 21 8.25C21 7.91848 20.8645 7.60054 20.6234 7.36612C20.3823 7.1317 20.0553 7 19.7143 7H4.28571ZM4.28571 14.5C3.94472 14.5 3.6177 14.6317 3.37658 14.8661C3.13546 15.1005 3 15.4185 3 15.75C3 16.0815 3.13546 16.3995 3.37658 16.6339C3.6177 16.8683 3.94472 17 4.28571 17H19.7143C20.0553 17 20.3823 16.8683 20.6234 16.6339C20.8645 16.3995 21 16.0815 21 15.75C21 15.4185 20.8645 15.1005 20.6234 14.8661C20.3823 14.6317 20.0553 14.5 19.7143 14.5H4.28571Z" fill="currentColor"/>
  </symbol>

  <symbol id="icon-tab-bookmark" viewBox="0 0 24 24" fill="none">
    <path d="M16 3H8C7.46957 3 6.96086 3.21071 6.58579 3.58579C6.21071 3.96086 6 4.46957 6 5V21L12 18L18 21V5C18 4.46957 17.7893 3.96086 17.4142 3.58579C17.0391 3.21071 16.5304 3 16 3Z" fill="currentColor"/>
  </symbol>

  <symbol id="icon-clock" viewBox="0 0 16 16" fill="none">
    <path d="M8 14C11.3137 14 14 11.3137 14 8C14 4.68629 11.3137 2 8 2C4.68629 2 2 4.68629 2 8C2 11.3137 4.68629 14 8 14Z" stroke="currentColor" stroke-width="1.5" stroke-linecap="round" stroke-linejoin="round"/>
    <path d="M8 4.5V8H11.5" stroke="currentColor" stroke-width="1.5" stroke-linecap="round" stroke-linejoin="round"/>
  </symbol>

  <symbol id="icon-eye" viewBox="0 0 16 16" fill="none">
    <path d="M8 3.5C3 3.5 1 8 1 8C1 8 3 12.5 8 12.5C13 12.5 15 8 15 8C15 8 13 3.5 8 3.5Z" stroke="currentColor" stroke-width="1.5" stroke-linecap="round" stroke-linejoin="round"/>
    <path d="M8 10.5C9.38071 10.5 10.5 9.38071 10.5 8C10.5 6.61929 9.38071 5.5 8 5.5C6.61929 5.5 5.5 6.61929 5.5 8C5.5 9.38071 6.61929 10.5 8 10.5Z" stroke="currentColor" stroke-width="1.5" stroke-linecap="round" stroke-linejoin="round"/>
  </symbol>

  <symbol id="icon-thumbs-up" viewBox="0 0 16 16" fill="none">
    <path d="M2 6.5H5V13H2C1.86739 13 1.74021 12.9473 1.64645 12.8536C1.55268 12.7598 1.5 12.6326 1.5 12.5V7C1.5 6.86739 1.55268 6.74021 1.64645 6.64645C1.74021 6.55268 1.86739 6.5 2 6.5Z" stroke="currentColor" stroke-width="1.5" stroke-linecap="round" stroke-linejoin="round"/>
    <path d="M5 6.5L7.5 1.5C8.03043 1.5 8.53914 1.71071 8.91421 2.08579C9.28929 2.46086 9.5 2.96957 9.5 3.5V5H13.5C13.6419 5.00004 13.7821 5.03026 13.9113 5.08865C14.0406 5.14704 14.156 5.23227 14.2498 5.33867C14.3436 5.44507 14.4137 5.57021 14.4555 5.70579C14.4972 5.84136 14.5096 5.98426 14.4919 6.125L13.7419 12.125C13.7114 12.3666 13.5939 12.5888 13.4113 12.7499C13.2286 12.911 12.9935 12.9999 12.75 13H5" stroke="currentColor" stroke-width="1.5" stroke-linecap="round" stroke-linejoin="round"/>
  </symbol>

  <symbol id="icon-vk" viewBox="0 0 48 48" fill="none">
    <path d="M25.3218 31C17.1219 31 12.4449 25.7447 12.25 17H16.3574C16.4924 23.4184 19.5204 26.1371 21.9189 26.6977V17H25.7866V22.5355C28.1551 22.2973 30.6432 19.7748 31.4827 17H35.3504C34.7058 20.4194 32.0075 22.9419 30.0887 23.9789C32.0075 24.8198 35.0807 27.02 36.25 31H31.9925C31.0781 28.3373 28.7997 26.2773 25.7866 25.997V31H25.3218Z" fill="currentColor"/>
  </symbol>

  <symbol id="icon-tg" viewBox="0 0 48 48" fill="none">
    <path d="M15.1448 23.8101C20.3914 21.5241 23.8904 20.0168 25.6418 19.2881C30.6408 17.2091 31.6788 16.8481 32.3558 16.8361C32.5058 16.8331 32.8378 16.8701 33.0538 17.0461C33.2358 17.1931 33.2858 17.3931 33.3098 17.5331C33.3338 17.6731 33.3638 17.9921 33.3398 18.2411C33.0698 21.0881 31.8968 27.9951 31.2998 31.1831C31.0478 32.5311 30.5518 32.9831 30.0698 33.0281C29.0248 33.1241 28.2318 32.3381 27.2198 31.6741C25.6348 30.6351 24.7398 29.9881 23.2018 28.9751C21.4248 27.8041 22.5768 27.1601 23.5898 26.1081C23.8548 25.8331 28.4598 21.6441 28.5498 21.2641C28.5598 21.2161 28.5708 21.0391 28.4658 20.9461C28.3608 20.8521 28.2058 20.8841 28.0928 20.9101C27.9334 20.9461 25.4028 22.6188 20.5008 25.9281C19.7814 26.4214 19.1308 26.6618 18.5488 26.6491C17.9058 26.6351 16.6688 26.2861 15.7508 25.9871C14.6228 25.6201 13.7268 25.4271 13.8048 24.8041C13.8454 24.4801 14.2921 24.1488 15.1448 23.8101Z" fill="currentColor"/>
  </symbol>

  <symbol id="icon-dzen" viewBox="0 0 48 48" fill="none">
    <path d="M36 23.7629C36 23.6429 35.9025 23.5436 35.7825 23.5379C31.4769 23.3748 28.8566 22.8256 27.0235 20.9923C25.1865 19.1552 24.6391 16.5327 24.4761 12.2174C24.4723 12.0975 24.373 12 24.2511 12H23.7488C23.6288 12 23.5295 12.0975 23.5239 12.2174C23.3608 16.5308 22.8135 19.1552 20.9765 20.9923C19.1415 22.8275 16.5229 23.3748 12.2174 23.5379C12.0975 23.5417 12 23.641 12 23.7629V24.2653C12 24.3852 12.0975 24.4846 12.2174 24.4902C16.5229 24.6533 19.1434 25.2025 20.9765 27.0359C22.8097 28.8692 23.357 31.4843 23.522 35.7825C23.5257 35.9025 23.6251 36 23.7469 36H24.2511C24.3711 36 24.4704 35.9025 24.4761 35.7825C24.641 31.4843 25.1883 28.8692 27.0216 27.0359C28.8566 25.2007 31.4751 24.6533 35.7806 24.4902C35.9006 24.4865 35.9981 24.3871 35.9981 24.2653V23.7629H36Z" fill="currentColor"/>
  </symbol>

  <symbol id="icon-yt" viewBox="0 0 48 48" fill="none">
    <path fill-rule="evenodd" clip-rule="evenodd" d="M33.3767 16.1108C34.4093 16.3868 35.2224 17.2001 35.4984 18.2325C36 20.1044 36 24.0092 36 24.0092C36 24.0092 36 27.9143 35.4984 29.7859C35.2224 30.8184 34.4093 31.6319 33.3767 31.9077C31.505 32.4093 23.9999 32.4093 23.9999 32.4093C23.9999 32.4093 16.495 32.4093 14.6233 31.9077C13.5907 31.6319 12.7776 30.8184 12.5016 29.7859C12 27.9143 12 24.0092 12 24.0092C12 24.0092 12 20.1044 12.5016 18.2325C12.7776 17.2001 13.5907 16.3868 14.6233 16.1108C16.495 15.6094 23.9999 15.6094 23.9999 15.6094C23.9999 15.6094 31.505 15.6094 33.3767 16.1108ZM27.8351 24.0094L21.6 27.6093V20.4092L27.8351 24.0094Z" fill="currentColor"/>
  </symbol>

  <!-- ─── Navbar desktop icons ─────────────────────────────────── -->

  <symbol id="icon-user" viewBox="0 0 22 22" fill="none">
    <path d="M11 13.75C14.0376 13.75 16.5 11.2876 16.5 8.25C16.5 5.21243 14.0376 2.75 11 2.75C7.96243 2.75 5.5 5.21243 5.5 8.25C5.5 11.2876 7.96243 13.75 11 13.75Z" stroke="currentColor" stroke-width="1.5" stroke-linecap="round" stroke-linejoin="round"/>
    <path d="M2.75 18.5625C4.41461 15.6862 7.43789 13.75 11 13.75C14.5621 13.75 17.5854 15.6862 19.25 18.5625" stroke="currentColor" stroke-width="1.5" stroke-linecap="round" stroke-linejoin="round"/>
  </symbol>

  <!-- viewBox crop: icons live in 12–34 area within 46×46 source file -->
  <symbol id="icon-compare" viewBox="12 12 22 22" fill="none">
    <path d="M23.9167 15.6666H17.5C17.0138 15.6666 16.5475 15.8597 16.2037 16.2036C15.8598 16.5474 15.6667 17.0137 15.6667 17.4999V28.4999C15.6667 28.9861 15.8598 29.4525 16.2037 29.7963C16.5475 30.1401 17.0138 30.3333 17.5 30.3333H23.9167M27.5834 15.6666H28.5C28.9863 15.6666 29.4526 15.8597 29.7964 16.2036C30.1402 16.5474 30.3334 17.0137 30.3334 17.4999V18.4166M30.3334 27.5833V28.4999C30.3334 28.9861 30.1402 29.4525 29.7964 29.7963C29.4526 30.1401 28.9863 30.3333 28.5 30.3333H27.5834M30.3334 22.0833V23.9166M23 13.8333V32.1666" stroke="currentColor" stroke-width="1.5" stroke-linecap="round" stroke-linejoin="round"/>
  </symbol>

  <symbol id="icon-nav-heart" viewBox="12 12 22 22" fill="none">
    <path d="M23 31.25C23 31.25 14.0625 26.4375 14.0625 20.7656C14.0625 19.5349 14.5514 18.3545 15.4217 17.4842C16.292 16.6139 17.4724 16.125 18.7031 16.125C20.6445 16.125 22.3073 17.1829 23 18.875C23.6927 17.1829 25.3555 16.125 27.2969 16.125C28.5276 16.125 29.708 16.6139 30.5783 17.4842C31.4486 18.3545 31.9375 19.5349 31.9375 20.7656C31.9375 26.4375 23 31.25 23 31.25Z" stroke="currentColor" stroke-width="1.5" stroke-linecap="round" stroke-linejoin="round"/>
  </symbol>

  <symbol id="icon-nav-cart" viewBox="12 12 22 22" fill="none">
    <path d="M19.5625 31.9375C20.3219 31.9375 20.9375 31.3219 20.9375 30.5625C20.9375 29.8031 20.3219 29.1875 19.5625 29.1875C18.8031 29.1875 18.1875 29.8031 18.1875 30.5625C18.1875 31.3219 18.8031 31.9375 19.5625 31.9375Z" fill="currentColor"/>
    <path d="M28.5 31.9375C29.2594 31.9375 29.875 31.3219 29.875 30.5625C29.875 29.8031 29.2594 29.1875 28.5 29.1875C27.7406 29.1875 27.125 29.8031 27.125 30.5625C27.125 31.3219 27.7406 31.9375 28.5 31.9375Z" fill="currentColor"/>
    <path d="M13.375 14.75H15.4375L18.5957 26.1178C18.6761 26.4073 18.8491 26.6625 19.0882 26.8444C19.3274 27.0263 19.6195 27.1249 19.92 27.125H28.4141C28.7147 27.1251 29.007 27.0266 29.2464 26.8447C29.4857 26.6628 29.6588 26.4075 29.7392 26.1178L31.9375 18.1875H16.3923" stroke="currentColor" stroke-width="1.5" stroke-linecap="round" stroke-linejoin="round"/>
  </symbol>

  <!-- viewBox crop: icon lives in 13–33 area within 46×46 source file -->
  <symbol id="icon-location-btn" viewBox="13 13 20 20" fill="none">
    <path d="M30.5 21.3333C30.5 27.1666 23 32.1666 23 32.1666C23 32.1666 15.5 27.1666 15.5 21.3333C15.5 19.3441 16.2902 17.4365 17.6967 16.03C19.1032 14.6234 21.0109 13.8333 23 13.8333C24.9891 13.8333 26.8968 14.6234 28.3033 16.03C29.7098 17.4365 30.5 19.3441 30.5 21.3333Z" stroke="currentColor" stroke-width="2" stroke-linecap="round" stroke-linejoin="round"/>
    <path d="M23 23.8333C24.3807 23.8333 25.5 22.714 25.5 21.3333C25.5 19.9525 24.3807 18.8333 23 18.8333C21.6193 18.8333 20.5 19.9525 20.5 21.3333C20.5 22.714 21.6193 23.8333 23 23.8333Z" stroke="currentColor" stroke-width="2" stroke-linecap="round" stroke-linejoin="round"/>
  </symbol>

  <!-- ─── Hero slider arrows ────────────────────────────────────── -->

  <symbol id="icon-arrow-slider-left" viewBox="0 0 22 22" fill="none">
    <path d="M18.5625 11H3.4375" stroke="currentColor" stroke-width="1.5" stroke-linecap="round" stroke-linejoin="round"/>
    <path d="M9.625 4.8125L3.4375 11L9.625 17.1875" stroke="currentColor" stroke-width="1.5" stroke-linecap="round" stroke-linejoin="round"/>
  </symbol>

  <symbol id="icon-arrow-slider-right" viewBox="0 0 22 22" fill="none">
    <path d="M3.4375 11H18.5625" stroke="currentColor" stroke-width="1.5" stroke-linecap="round" stroke-linejoin="round"/>
    <path d="M12.375 4.8125L18.5625 11L12.375 17.1875" stroke="currentColor" stroke-width="1.5" stroke-linecap="round" stroke-linejoin="round"/>
  </symbol>

  <!-- ─── New hero desktop icons from Figma ────────────────────── -->

  <symbol id="icon-hero-menu" viewBox="0 0 32 32" fill="none">
    <path d="M16 4.9233L16 27.0771" stroke="currentColor" stroke-width="2" stroke-linejoin="round"/>
    <path d="M27.0769 16.0002H4.9231" stroke="currentColor" stroke-width="2" stroke-linejoin="round"/>
  </symbol>

  <symbol id="icon-hero-search" viewBox="0 0 24 24" fill="none">
    <path d="M11 2C15.9706 2 20 6.02944 20 11C20 13.1245 19.2602 15.0761 18.0293 16.6152L21.707 20.293C22.0976 20.6835 22.0976 21.3165 21.707 21.707C21.3165 22.0976 20.6835 22.0976 20.293 21.707L16.6152 18.0293C15.0761 19.2602 13.1245 20 11 20C6.02944 20 2 15.9706 2 11C2 6.02944 6.02944 2 11 2ZM11 5C7.68629 5 5 7.68629 5 11C5 14.3137 7.68629 17 11 17C12.6571 17 14.1553 16.3291 15.2422 15.2422C16.3291 14.1553 17 12.6571 17 11C17 7.68629 14.3137 5 11 5Z" fill="currentColor"/>
  </symbol>

  <symbol id="icon-hero-profile" viewBox="0 0 24 24" fill="none">
    <path d="M16 13C18.7614 13 21 15.2386 21 18C21 19.6569 19.6569 21 18 21H6C4.34315 21 3 19.6569 3 18C3 15.2386 5.23858 13 8 13H16ZM12 3C14.2091 3 16 4.79086 16 7C16 9.20914 14.2091 11 12 11C9.79086 11 8 9.20914 8 7C8 4.79086 9.79086 3 12 3Z" fill="currentColor"/>
  </symbol>

  <symbol id="icon-hero-heart" viewBox="0 0 24 24" fill="none">
    <path d="M16 3H8C7.46957 3 6.96086 3.21071 6.58579 3.58579C6.21071 3.96086 6 4.46957 6 5V21L12 18L18 21V5C18 4.46957 17.7893 3.96086 17.4142 3.58579C17.0391 3.21071 16.5304 3 16 3Z" fill="currentColor" stroke="currentColor" stroke-width="2" stroke-linecap="round" stroke-linejoin="round"/>
  </symbol>

  <symbol id="icon-hero-bag" viewBox="0 0 24 24" fill="none">
    <path fill-rule="evenodd" clip-rule="evenodd" d="M12.0002 3C14.7616 3 17.0002 5.23858 17.0002 8H20.0002C20.281 8 20.549 8.11793 20.7385 8.3252C20.9279 8.53266 21.0217 8.81101 20.9963 9.09082L20.1613 18.2715C20.0209 19.8166 18.7255 20.9999 17.174 21H6.82636C5.27487 20.9999 3.97953 19.8166 3.83906 18.2715L3.0041 9.09082C2.97866 8.81101 3.07245 8.53266 3.26191 8.3252C3.45136 8.11793 3.71938 8 4.00019 8H7.00019C7.00019 5.23858 9.23877 3 12.0002 3ZM12.0002 5C10.3433 5 9.00019 6.34315 9.00019 8H15.0002C15.0002 6.34315 13.657 5 12.0002 5Z" fill="currentColor"/>
  </symbol>

  <symbol id="icon-hero-card-cart" viewBox="0 0 16 16" fill="none">
    <path fill-rule="evenodd" clip-rule="evenodd" d="M7.9998 2C9.84038 2.00018 11.3325 3.49247 11.3328 5.33301H13.3338C13.5209 5.33319 13.6998 5.41263 13.826 5.55078C13.952 5.68904 14.0148 5.87423 13.9978 6.06055L13.4412 12.1807C13.3476 13.2107 12.4833 13.9998 11.449 14H4.55156C3.51716 14 2.65303 13.2108 2.55937 12.1807L2.00273 6.06055C1.98578 5.87407 2.04838 5.68908 2.1746 5.55078C2.3009 5.41257 2.47956 5.33301 2.66679 5.33301H4.66581C4.66617 3.49247 6.15922 2.00018 7.9998 2ZM7.9998 3.33398C6.8956 3.33416 6.00015 4.22885 5.9998 5.33301H9.9998C9.99945 4.22885 9.104 3.33416 7.9998 3.33398Z" fill="currentColor"/>
  </symbol>

  <symbol id="icon-hero-arrow-left" viewBox="0 0 16 16" fill="none">
    <path d="M14 7.99967H2M6.66667 12.6663L2 7.99967L6.66667 3.33301" stroke="currentColor" stroke-width="2" stroke-linejoin="round"/>
  </symbol>

  <symbol id="icon-hero-arrow-right" viewBox="0 0 16 16" fill="none">
    <path d="M2 7.99967H14M9.33333 12.6663L14 7.99967L9.33333 3.33301" stroke="currentColor" stroke-width="2" stroke-linejoin="round"/>
  </symbol>

  <symbol id="icon-hero-pagination-active" viewBox="0 0 17 18" fill="none">
    <path d="M8 1C9.31561 1 10.6109 1.32446 11.7712 1.94463C12.9314 2.5648 13.9208 3.46155 14.6518 4.55544C15.3827 5.64933 15.8325 6.90659 15.9615 8.21586C16.0904 9.52513 15.8945 10.846 15.391 12.0615C14.8876 13.2769 14.0921 14.3495 13.0751 15.1841C12.0582 16.0187 10.8511 16.5896 9.56072 16.8463C8.2704 17.1029 6.93668 17.0374 5.67772 16.6555C4.41877 16.2736 3.27342 15.5871 2.34315 14.6569" stroke="currentColor" stroke-width="2"/>
    <circle cx="8" cy="9" r="4" fill="currentColor"/>
  </symbol>

  <symbol id="icon-hero-pagination-dot" viewBox="0 0 16 16" fill="none">
    <circle cx="8" cy="8" r="4" fill="currentColor" fill-opacity="0.6"/>
  </symbol>


  <!-- Login bonus icons from Figma -->

  <symbol id="icon-login-yandex" viewBox="0 0 24 24" fill="none">
    <path fill-rule="evenodd" clip-rule="evenodd" d="M22 12.0002C22 17.5224 17.5224 22 11.9998 22C6.47762 22 2 17.5224 2 12.0002C2 6.47762 6.47762 2 11.9998 2C17.5224 2 22 6.47762 22 12.0002Z" fill="white"/>
    <path fill-rule="evenodd" clip-rule="evenodd" d="M13.5537 18.1337H15.7415V5.64014H12.5709C9.38105 5.64014 7.70707 7.2735 7.70707 9.68584C7.70562 11.5879 8.63762 12.7557 10.263 13.9081L7.4126 18.1337H9.77634L12.9484 13.3997L11.8438 12.6661C10.5118 11.7682 9.85938 11.0704 9.85938 9.5571C9.85938 8.22654 10.7965 7.32899 12.5789 7.32899H13.5537V18.1337Z" fill="#1F1F1F"/>
  </symbol>

  <symbol id="icon-login-sber" viewBox="0 0 24 24" fill="none">
    <path fill-rule="evenodd" clip-rule="evenodd" d="M10.6768 2.05857C10.1447 2.12455 8.92932 2.4529 8.29146 2.70304C4.04942 4.36623 1.40533 8.95465 2.11471 13.4218C2.2439 14.2353 2.48425 15.1426 2.69818 15.6238C2.99333 16.2881 3.49678 17.2373 3.71471 17.5404C4.3608 18.4392 5.37448 19.4926 5.51174 19.4078C5.56973 19.3719 5.58229 19.3866 5.5451 19.4467C5.47545 19.5595 5.65716 19.7256 6.39509 20.2237C8.13258 21.3968 10.0253 21.9842 12.0694 21.985C16.8211 21.9868 20.9395 18.5565 21.8606 13.8296C22.0691 12.7596 22.0359 10.241 21.8132 10.241C21.7761 10.241 21.292 10.5751 20.7377 10.9835L19.7297 11.7259L19.6294 12.635C19.419 14.5426 18.7462 16.0171 17.509 17.2824C15.9591 18.8675 14.1792 19.6201 11.9802 19.6201C10.5262 19.6201 9.45919 19.3578 8.27678 18.7095C7.49195 18.2792 7.1322 18.0026 6.49426 17.3394C5.57046 16.379 4.94671 15.2737 4.58256 13.9519C4.33715 13.0611 4.29931 11.4583 4.50084 10.4849C5.09302 7.62371 7.22942 5.36865 10.0785 4.59745C10.6351 4.44681 10.9729 4.41305 11.941 4.41158C13.4818 4.40913 14.1836 4.56646 15.4437 5.19681L16.3775 5.66389L17.2787 5.00638C17.7745 4.64475 18.2119 4.31975 18.2507 4.2841C18.3577 4.18632 17.3815 3.50328 16.5082 3.06474C15.0212 2.31817 13.622 1.99618 11.9507 2.016C11.3847 2.02268 10.8114 2.04185 10.6768 2.05857ZM18.9549 6.56069C18.4839 6.91147 17.0342 7.9811 15.7334 8.9376C14.4326 9.8941 13.0794 10.8906 12.7265 11.1521C12.3735 11.4136 12.0488 11.6275 12.0048 11.6275C11.9225 11.6275 11.2855 11.2409 9.45348 10.0787C8.87035 9.70881 8.3474 9.3882 8.29129 9.36627C8.21194 9.33527 8.19016 9.64976 8.19294 10.7828L8.19652 12.2392L10.0312 13.381C11.0403 14.009 11.9104 14.5329 11.9648 14.5453C12.0615 14.5673 12.5568 14.2194 15.0121 12.4048C15.6779 11.9126 17.2687 10.7422 18.5471 9.8039C19.8255 8.8655 20.9342 8.04349 21.011 7.97718C21.142 7.86382 21.1402 7.83633 20.9794 7.51956C20.6755 6.92093 20.0022 5.91843 19.9054 5.92071C19.8536 5.92186 19.4259 6.20984 18.9549 6.56069Z" fill="white"/>
  </symbol>

  <symbol id="icon-login-vk" viewBox="0 0 24 24" fill="none">
    <g transform="translate(2 2)">
      <path d="M9.5896 20H10.4224C14.9432 20 17.204 20 18.608 18.596C20.012 17.192 20 14.932 20 10.4224V9.5776C20 5.0688 20 2.80801 18.608 1.40401C17.216 4.05312e-06 14.9432 0 10.4224 0H9.5896C5.068 0 2.808 4.05312e-06 1.404 1.40401C-8.34465e-07 2.80801 0 5.0672 0 9.5776V10.4224C0 14.932 -8.34465e-07 17.192 1.404 18.596C2.808 20 5.068 20 9.5896 20Z" fill="white"/>
      <path d="M5.18286 6.5918C5.39191 10.2227 7.13171 11.9627 8.68384 12.3477L9.30396 12.501V6.5918H10.4934V9.94531L11.0491 9.88379C11.8548 9.79433 12.6152 9.29429 13.2141 8.64551C13.7373 8.0787 14.1725 7.36051 14.4417 6.5918H15.5969C15.1322 8.1529 13.9698 9.31168 13.1282 9.81445L12.3313 10.29L13.1672 10.6943C14.0106 11.1017 15.343 12.121 16.0364 13.9199H14.7131C14.1019 12.3564 12.7993 11.1262 11.0442 10.9482L10.4934 10.8926V13.9141C8.47578 13.8611 6.88976 13.1357 5.77954 11.875C4.69758 10.6464 4.02721 8.86542 3.89868 6.5918H5.18286Z" fill="#1F1F1F" stroke="#1F1F1F"/>
    </g>
  </symbol>

  <symbol id="icon-login-yandex-color" viewBox="0 0 24 24" fill="none">
    <path fill-rule="evenodd" clip-rule="evenodd" d="M22 12.0002C22 17.5224 17.5224 22 11.9998 22C6.47762 22 2 17.5224 2 12.0002C2 6.47762 6.47762 2 11.9998 2C17.5224 2 22 6.47762 22 12.0002Z" fill="#FC3F1D"/>
    <path fill-rule="evenodd" clip-rule="evenodd" d="M13.5537 18.1337H15.7415V5.64014H12.5709C9.38105 5.64014 7.70707 7.2735 7.70707 9.68584C7.70562 11.5879 8.63762 12.7557 10.263 13.9081L7.4126 18.1337H9.77634L12.9484 13.3997L11.8438 12.6661C10.5118 11.7682 9.85938 11.0704 9.85938 9.5571C9.85938 8.22654 10.7965 7.32899 12.5789 7.32899H13.5537V18.1337Z" fill="white"/>
  </symbol>

  <symbol id="icon-login-sber-color" viewBox="0 0 24 24" fill="none">
    <path fill-rule="evenodd" clip-rule="evenodd" d="M10.6768 2.05857C10.1447 2.12455 8.92932 2.4529 8.29146 2.70304C4.04942 4.36623 1.40533 8.95465 2.11471 13.4218C2.2439 14.2353 2.48425 15.1426 2.69818 15.6238C2.99333 16.2881 3.49678 17.2373 3.71471 17.5404C4.3608 18.4392 5.37448 19.4926 5.51174 19.4078C5.56973 19.3719 5.58229 19.3866 5.5451 19.4467C5.47545 19.5595 5.65716 19.7256 6.39509 20.2237C8.13258 21.3968 10.0253 21.9842 12.0694 21.985C16.8211 21.9868 20.9395 18.5565 21.8606 13.8296C22.0691 12.7596 22.0359 10.241 21.8132 10.241C21.7761 10.241 21.292 10.5751 20.7377 10.9835L19.7297 11.7259L19.6294 12.635C19.419 14.5426 18.7462 16.0171 17.509 17.2824C15.9591 18.8675 14.1792 19.6201 11.9802 19.6201C10.5262 19.6201 9.45919 19.3578 8.27678 18.7095C7.49195 18.2792 7.1322 18.0026 6.49426 17.3394C5.57046 16.379 4.94671 15.2737 4.58256 13.9519C4.33715 13.0611 4.29931 11.4583 4.50084 10.4849C5.09302 7.62371 7.22942 5.36865 10.0785 4.59745C10.6351 4.44681 10.9729 4.41305 11.941 4.41158C13.4818 4.40913 14.1836 4.56646 15.4437 5.19681L16.3775 5.66389L17.2787 5.00638C17.7745 4.64475 18.2119 4.31975 18.2507 4.2841C18.3577 4.18632 17.3815 3.50328 16.5082 3.06474C15.0212 2.31817 13.622 1.99618 11.9507 2.016C11.3847 2.02268 10.8114 2.04185 10.6768 2.05857ZM18.9549 6.56069C18.4839 6.91147 17.0342 7.9811 15.7334 8.9376C14.4326 9.8941 13.0794 10.8906 12.7265 11.1521C12.3735 11.4136 12.0488 11.6275 12.0048 11.6275C11.9225 11.6275 11.2855 11.2409 9.45348 10.0787C8.87035 9.70881 8.3474 9.3882 8.29129 9.36627C8.21194 9.33527 8.19016 9.64976 8.19294 10.7828L8.19652 12.2392L10.0312 13.381C11.0403 14.009 11.9104 14.5329 11.9648 14.5453C12.0615 14.5673 12.5568 14.2194 15.0121 12.4048C15.6779 11.9126 17.2687 10.7422 18.5471 9.8039C19.8255 8.8655 20.9342 8.04349 21.011 7.97718C21.142 7.86382 21.1402 7.83633 20.9794 7.51956C20.6755 6.92093 20.0022 5.91843 19.9054 5.92071C19.8536 5.92186 19.4259 6.20984 18.9549 6.56069Z" fill="#148F2B"/>
  </symbol>

  <symbol id="icon-login-vk-color" viewBox="0 0 24 24" fill="none">
    <g transform="translate(2 2)">
      <path d="M9.5896 20H10.4224C14.9432 20 17.204 20 18.608 18.596C20.012 17.192 20 14.932 20 10.4224V9.5776C20 5.0688 20 2.80801 18.608 1.40401C17.216 4.05312e-06 14.9432 0 10.4224 0H9.5896C5.068 0 2.808 4.05312e-06 1.404 1.40401C-8.34465e-07 2.80801 0 5.0672 0 9.5776V10.4224C0 14.932 -8.34465e-07 17.192 1.404 18.596C2.808 20 5.068 20 9.5896 20Z" fill="#0077FF"/>
      <path d="M5.18286 6.5918C5.39191 10.2227 7.13171 11.9627 8.68384 12.3477L9.30396 12.501V6.5918H10.4934V9.94531L11.0491 9.88379C11.8548 9.79433 12.6152 9.29429 13.2141 8.64551C13.7373 8.0787 14.1725 7.36051 14.4417 6.5918H15.5969C15.1322 8.1529 13.9698 9.31168 13.1282 9.81445L12.3313 10.29L13.1672 10.6943C14.0106 11.1017 15.343 12.121 16.0364 13.9199H14.7131C14.1019 12.3564 12.7993 11.1262 11.0442 10.9482L10.4934 10.8926V13.9141C8.47578 13.8611 6.88976 13.1357 5.77954 11.875C4.69758 10.6464 4.02721 8.86542 3.89868 6.5918H5.18286Z" fill="white" stroke="white"/>
    </g>
  </symbol>

  <!-- /Login bonus icons from Figma -->

  <symbol id="icon-input-clear" viewBox="0 0 16 16" fill="none">
    <path d="M4 4L12 12M12 4L4 12" stroke="currentColor" stroke-width="2" stroke-linecap="round"/>
  </symbol>

  <!-- Recommended products icons from Figma -->

  <symbol id="icon-rec-arrow-right" viewBox="0 0 16 16" fill="none">
    <path d="M2 7.99967H14M9.33333 12.6663L14 7.99967L9.33333 3.33301" stroke="currentColor" stroke-width="2" stroke-linejoin="round"/>
  </symbol>

  <symbol id="icon-rec-arrow-left" viewBox="0 0 16 16" fill="none">
    <path d="M14 7.99967H2M6.66667 12.6663L2 7.99967L6.66667 3.33301" stroke="currentColor" stroke-width="2" stroke-linejoin="round"/>
  </symbol>

  <symbol id="icon-rec-button-arrow" viewBox="0 0 16 16" fill="none">
    <path d="M7.47546 11.8047C7.31203 11.9954 7.06621 12.0524 6.85268 11.9492C6.6392 11.846 6.50001 11.603 6.5 11.3334L6.5 4.66665C6.5 4.39704 6.6392 4.15397 6.85268 4.05076C7.06621 3.94757 7.31203 4.00463 7.47546 4.19529L10.3326 7.52865C10.5558 7.789 10.5558 8.21101 10.3326 8.47136L7.47546 11.8047Z" fill="currentColor"/>
  </symbol>

  <symbol id="icon-rec-button-arrow-left" viewBox="0 0 16 16" fill="none">
    <path d="M9.52454 11.8047C9.68797 11.9954 9.93379 12.0524 10.1473 11.9492C10.3608 11.846 10.5 11.603 10.5 11.3334L10.5 4.66665C10.5 4.39704 10.3608 4.15397 10.1473 4.05076C9.93379 3.94757 9.68797 4.00463 9.52454 4.19529L6.66737 7.52865C6.44421 7.789 6.44421 8.21101 6.66737 8.47136L9.52454 11.8047Z" fill="currentColor"/>
  </symbol>

  <symbol id="icon-rec-button-arrow-down" viewBox="0 0 16 16" fill="none">
    <path d="M4.19529 7.47546C4.00463 7.31203 3.94757 7.06621 4.05076 6.85268C4.15397 6.6392 4.39704 6.50001 4.66665 6.5H11.3334C11.603 6.5 11.846 6.6392 11.9492 6.85268C12.0524 7.06621 11.9954 7.31203 11.8047 7.47546L8.47136 10.3326C8.21101 10.5558 7.789 10.5558 7.52865 10.3326L4.19529 7.47546Z" fill="currentColor"/>
  </symbol>

  <symbol id="icon-rec-plus" viewBox="0 0 16 16" fill="none">
    <path d="M8 3.33325V12.6666" stroke="currentColor" stroke-width="2" stroke-linecap="square" stroke-linejoin="round"/>
    <path d="M3.33333 8H12.6667" stroke="currentColor" stroke-width="2" stroke-linecap="square" stroke-linejoin="round"/>
  </symbol>

  <symbol id="icon-rec-bookmark" viewBox="0 0 24 24" fill="none">
    <path d="M14.6667 6H9.33333C8.97971 6 8.64057 6.14048 8.39052 6.39052C8.14048 6.64057 8 6.97971 8 7.33333V16.382C8 17.1253 8.78231 17.6088 9.44721 17.2764L11.5528 16.2236C11.8343 16.0828 12.1657 16.0828 12.4472 16.2236L14.5528 17.2764C15.2177 17.6088 16 17.1253 16 16.382V7.33333C16 6.97971 15.8595 6.64057 15.6095 6.39052C15.3594 6.14048 15.0203 6 14.6667 6Z" stroke="currentColor" stroke-width="1.5"/>
  </symbol>

  <symbol id="icon-rec-compare" viewBox="0 0 24 24" fill="none">
    <path d="M12.666 6.66536H11.9993M12.666 17.332H11.9993M15.3327 6.66536H15.9993C16.353 6.66536 16.6921 6.80584 16.9422 7.05589C17.1922 7.30594 17.3327 7.64508 17.3327 7.9987V8.66536M17.3327 15.332V15.9987C17.3327 16.3523 17.1922 16.6915 16.9422 16.9415C16.6921 17.1916 16.353 17.332 15.9993 17.332H15.3327M17.3327 11.332V12.6654M11.9993 5.33203V6.66536M11.9993 18.6654V17.332M11.9993 6.66536H7.99935C7.64573 6.66536 7.30659 6.80584 7.05654 7.05589C6.80649 7.30594 6.66602 7.64508 6.66602 7.9987V15.9987C6.66602 16.3523 6.80649 16.6915 7.05654 16.9415C7.30659 17.1916 7.64573 17.332 7.99935 17.332H11.9993M11.9993 6.66536V17.332" stroke="currentColor" stroke-width="1.5" stroke-linecap="round" stroke-linejoin="round"/>
  </symbol>

  <symbol id="icon-rec-color-dot" viewBox="0 0 16 16" fill="none">
    <rect x="2" y="2" width="12" height="12" rx="6" fill="#89B9E3"/>
    <circle cx="8" cy="8" r="7.75" stroke="black" stroke-width="0.5"/>
  </symbol>

  <!-- Store showcase icons from Figma -->

  <symbol id="icon-store-clock" viewBox="0 0 24 24" fill="none">
    <path fill-rule="evenodd" clip-rule="evenodd" d="M2 12C2 6.477 6.477 2 12 2C17.523 2 22 6.477 22 12C22 17.523 17.523 22 12 22C6.477 22 2 17.523 2 12ZM12 8C12 7.73478 11.8946 7.48043 11.7071 7.29289C11.5196 7.10536 11.2652 7 11 7C10.7348 7 10.4804 7.10536 10.2929 7.29289C10.1054 7.48043 10 7.73478 10 8V13C10 13.2652 10.1054 13.5196 10.2929 13.7071C10.4804 13.8946 10.7348 14 11 14H16C16.2652 14 16.5196 13.8946 16.7071 13.7071C16.8946 13.5196 17 13.2652 17 13C17 12.7348 16.8946 12.4804 16.7071 12.2929C16.5196 12.1054 16.2652 12 16 12H12V8Z" fill="currentColor"/>
  </symbol>

  <symbol id="icon-store-phone" viewBox="0 0 24 24" fill="none">
    <path fill-rule="evenodd" clip-rule="evenodd" d="M16 3C18.669 3 21.226 5.258 20.475 8.206C19.7174 11.1631 18.1788 13.8622 16.0204 16.0208C13.862 18.1794 11.163 19.7181 8.206 20.476C5.258 21.225 3 18.668 3 16V15C3 13.873 3.901 13.055 4.9 12.956C5.71888 12.8745 6.5227 12.681 7.289 12.381C7.47002 12.3099 7.66783 12.2931 7.85823 12.3327C8.04863 12.3723 8.22335 12.4666 8.361 12.604L9.364 13.606C11.1418 12.6098 12.6098 11.1418 13.606 9.364L12.604 8.36C12.4666 8.22235 12.3723 8.04763 12.3327 7.85723C12.2931 7.66683 12.3099 7.46902 12.381 7.288C12.6811 6.52138 12.8745 5.71722 12.956 4.898C13.055 3.902 13.873 3 15 3H16Z" fill="currentColor"/>
  </symbol>

  <symbol id="icon-store-location" viewBox="0 0 24 24" fill="none">
    <path fill-rule="evenodd" clip-rule="evenodd" d="M18.207 4.79368C16.5608 3.14748 14.3281 2.22266 12 2.22266C9.67193 2.22266 7.43921 3.14748 5.79301 4.79368C4.14681 6.43988 3.22198 8.6726 3.22198 11.0007C3.22198 13.3288 4.14681 15.5615 5.79301 17.2077L11.293 22.7077C11.4805 22.8952 11.7348 23.0005 12 23.0005C12.2652 23.0005 12.5195 22.8952 12.707 22.7077L18.207 17.2077C19.8527 15.5612 20.7772 13.3286 20.7772 11.0007C20.7772 8.67276 19.8527 6.44014 18.207 4.79368ZM10.5 11.0007C10.5 10.6029 10.658 10.2213 10.9393 9.94002C11.2207 9.65872 11.6022 9.50068 12 9.50068H12.01C12.4078 9.50068 12.7894 9.65872 13.0707 9.94002C13.352 10.2213 13.51 10.6029 13.51 11.0007V11.0107C13.51 11.4085 13.352 11.79 13.0707 12.0713C12.7894 12.3526 12.4078 12.5107 12.01 12.5107H12C11.6022 12.5107 11.2207 12.3526 10.9393 12.0713C10.658 11.79 10.5 11.4085 10.5 11.0107V11.0007Z" fill="currentColor"/>
  </symbol>

  <!-- Footer app icons from Figma -->

  <symbol id="icon-app-store" viewBox="0 0 16 16" fill="none">
    <path d="M13.9912 5.45495C13.9 5.52695 12.29 6.45024 12.29 8.50325C12.29 10.8779 14.3387 11.718 14.4 11.7388C14.3905 11.79 14.0745 12.8893 13.3198 14.0094C12.6469 14.9951 11.9441 15.9792 10.8749 15.9792C9.80575 15.9792 9.5306 15.3471 8.29635 15.3471C7.09355 15.3471 6.66589 16 5.68793 16C4.70996 16 4.02759 15.0879 3.24302 13.9678C2.33423 12.6525 1.59998 10.6091 1.59998 8.66967C1.59998 5.55896 3.58735 3.90919 5.54327 3.90919C6.58256 3.90919 7.44889 4.60366 8.10139 4.60366C8.72244 4.60366 9.69097 3.86759 10.8733 3.86759C11.3214 3.86759 12.9315 3.90919 13.9912 5.45495ZM10.312 2.55065C10.801 1.9602 11.1469 1.14091 11.1469 0.321632C11.1469 0.208021 11.1375 0.0928093 11.117 0C10.3215 0.030403 9.37494 0.539254 8.8042 1.21292C8.3561 1.73137 7.93787 2.55065 7.93787 3.38114C7.93787 3.50595 7.95831 3.63076 7.96774 3.67077C8.01806 3.68037 8.09982 3.69157 8.18157 3.69157C8.89539 3.69157 9.79317 3.20512 10.312 2.55065Z" fill="currentColor"/>
  </symbol>

  <symbol id="icon-google-play" viewBox="0 0 16 16" fill="none">
    <path d="M7.52486 7.64258L0.859619 14.6744C0.934461 14.9415 1.06896 15.1879 1.25284 15.3946C1.43672 15.6014 1.66511 15.763 1.92055 15.8673C2.17599 15.9715 2.45171 16.0156 2.72665 15.9961C3.00158 15.9765 3.26845 15.894 3.50684 15.7547L11.0065 11.4536L7.52486 7.64258Z" fill="currentColor"/>
    <path d="M14.2646 6.44666L11.0213 4.57617L7.37085 7.80202L11.0362 11.443L14.2546 9.59249C14.5398 9.44216 14.7786 9.21611 14.9452 8.93884C15.1119 8.66157 15.2 8.34366 15.2 8.01957C15.2 7.69548 15.1119 7.37757 14.9452 7.10031C14.7786 6.82304 14.5398 6.59699 14.2546 6.44666H14.2646Z" fill="currentColor"/>
    <path d="M0.859607 1.33032C0.819317 1.48031 0.79927 1.63507 0.800007 1.79044V14.2137C0.80041 14.369 0.820438 14.5236 0.859607 14.6738L7.75332 7.82202L0.859607 1.33032Z" fill="currentColor"/>
    <path d="M7.57453 8.0021L11.0214 4.5762L3.53168 0.25507C3.24991 0.0888971 2.92945 0.000887156 2.60291 3.57701e-06C2.20855 -0.000783383 1.82475 0.128301 1.51002 0.36758C1.19528 0.606859 0.966876 0.943206 0.859619 1.32535L7.57453 8.0021Z" fill="currentColor"/>
  </symbol>

  <symbol id="icon-google-play-color" viewBox="0 0 15 16" fill="none">
    <path d="M6.72481 7.64258L0.0595703 14.6744C0.134412 14.9415 0.268914 15.1879 0.452793 15.3946C0.636672 15.6014 0.865061 15.763 1.1205 15.8673C1.37594 15.9715 1.65166 16.0156 1.9266 15.9961C2.20153 15.9765 2.4684 15.894 2.70679 15.7547L10.2064 11.4536L6.72481 7.64258Z" fill="#EA4335"/>
    <path d="M13.4645 6.44666L10.2213 4.57617L6.5708 7.80202L10.2362 11.443L13.4546 9.59249C13.7397 9.44216 13.9785 9.21611 14.1452 8.93884C14.3118 8.66157 14.3999 8.34366 14.3999 8.01957C14.3999 7.69548 14.3118 7.37757 14.1452 7.10031C13.9785 6.82304 13.7397 6.59699 13.4546 6.44666H13.4645Z" fill="#FBBC04"/>
    <path d="M0.0596194 1.33032C0.0193294 1.48031 -0.000717406 1.63507 1.96042e-05 1.79044V14.2137C0.000422589 14.369 0.0204501 14.5236 0.0596194 14.6738L6.95333 7.82202L0.0596194 1.33032Z" fill="#4285F4"/>
    <path d="M6.77448 8.0021L10.2213 4.5762L2.73163 0.25507C2.44986 0.0888971 2.1294 0.000887156 1.80286 3.57701e-06C1.4085 -0.000783383 1.0247 0.128301 0.709967 0.36758C0.395232 0.606859 0.166827 0.943206 0.0595703 1.32535L6.77448 8.0021Z" fill="#34A853"/>
  </symbol>

  <symbol id="icon-appgallery" viewBox="0 0 16 16" fill="none">
    <path fill-rule="evenodd" clip-rule="evenodd" d="M4.48933 0C1.20227 0 0 1.20206 0 4.48846V11.5115C0 14.7979 1.20227 16 4.48933 16H11.5085C14.7955 16 16 14.7979 16 11.5115V4.48846C16 1.20206 14.7977 0 11.5107 0H4.48933Z" fill="currentColor"/>
    <path fill-rule="evenodd" clip-rule="evenodd" d="M6.97913 9.27967H7.62147L7.2992 8.5302L6.97913 9.27967ZM6.82095 9.65736L6.63037 10.0934H6.19649L7.11917 8.00013H7.49416L8.41311 10.0934H7.96765L7.77951 9.65736H6.82095ZM13.8029 10.0919H14.2222V8H13.8029V10.0919ZM12.1338 9.19325H12.9068V8.81183H12.1338V8.38309H13.2559V8.00154H11.7146V10.0933H13.2963V9.71175H12.1338V9.19325ZM10.4676 9.44041L9.99215 8H9.6452L9.16977 9.44041L8.70708 8.00116H8.25468L8.98485 10.0946H9.33656L9.81276 8.7195L10.289 10.0946H10.6438L11.372 8.00116H10.9313L10.4676 9.44041ZM5.55633 9.19904C5.55633 9.53956 5.38723 9.72153 5.08014 9.72153C4.77138 9.72153 4.60137 9.53429 4.60137 9.18451V8.00141H4.17636V9.19904C4.17636 9.78814 4.50377 10.126 5.07435 10.126C5.65059 10.126 5.98096 9.78171 5.98096 9.18155V8.00013H5.55633V9.19904ZM3.16237 8.00013H3.58713V10.0947H3.16237V9.24405H2.20278V10.0947H1.77777V8.00013H2.20278V8.84501H3.16237V8.00013Z" fill="white"/>
    <path fill-rule="evenodd" clip-rule="evenodd" d="M8.00004 5.33268C6.52949 5.33268 5.33337 4.13644 5.33337 2.66602H5.71005C5.71005 3.92862 6.73744 4.95588 8.00004 4.95588C9.26264 4.95588 10.29 3.92862 10.29 2.66602H10.6667C10.6667 4.13644 9.47046 5.33268 8.00004 5.33268Z" fill="white"/>
  </symbol>

  <symbol id="icon-rustore" viewBox="0 0 16 16" fill="none">
    <path d="M1.12467 14.8753C2.24939 16 4.0596 16 7.68001 16H8.31999C11.9404 16 13.7506 16 14.8753 14.8753C16 13.7506 16 11.9404 16 8.31997V7.67998C16 4.05957 16 2.24939 14.8753 1.12467C13.7506 0 11.9404 0 8.31999 0H7.68001C4.0596 0 2.24939 0 1.12467 1.12467C4.26385e-07 2.24939 0 4.05957 0 7.67998V8.31997C0 11.9404 4.26385e-07 13.7506 1.12467 14.8753Z" fill="currentColor"/>
    <path fill-rule="evenodd" clip-rule="evenodd" d="M12.342 10.6397L11.2305 10.3692C11.0967 10.3318 11.0021 10.2144 10.9974 10.0781L10.8587 6.09216C10.8186 5.56462 10.4166 5.145 9.99664 5.02145C9.97306 5.0145 9.94787 5.02385 9.9339 5.04361C9.91969 5.06374 9.92521 5.09154 9.94498 5.10643C10.0487 5.1847 10.3342 5.43997 10.3342 5.8803L10.3333 11.0918C10.3333 11.595 9.84532 11.964 9.34195 11.8415L8.2133 11.5668C8.08818 11.5241 8.00121 11.4106 7.99666 11.2796L7.85798 7.29341C7.81785 6.76587 7.41593 6.3463 6.99593 6.2227C6.97235 6.2158 6.94717 6.22511 6.93319 6.24487C6.91903 6.26499 6.9245 6.29279 6.94427 6.30773C7.04801 6.38595 7.33346 6.64123 7.33346 7.08156L7.33264 11.4256L7.33328 11.4257V12.2935C7.33328 12.7967 6.84521 13.1658 6.34184 13.0433L3.15396 12.2674C2.71075 12.1595 2.40002 11.7732 2.40002 11.3301V6.11055C2.40002 5.60736 2.88805 5.2383 3.39142 5.3608L5.40013 5.84973V4.9088C5.40013 4.4056 5.88815 4.0365 6.39153 4.15905L8.4001 4.64794V3.707C8.4001 3.2038 8.88813 2.8347 9.39155 2.95725L12.5794 3.73316C13.0226 3.84104 13.3334 4.22732 13.3334 4.67037V9.88997C13.3334 10.3932 12.8453 10.7622 12.342 10.6397Z" fill="white"/>
  </symbol>

  <symbol id="icon-accordion-toggle" viewBox="0 0 24 24" fill="none">
    <path fill-rule="evenodd" clip-rule="evenodd" d="M7.00003 9C6.80228 9.00004 6.60898 9.05871 6.44457 9.1686C6.28016 9.27848 6.15202 9.43465 6.07635 9.61735C6.00068 9.80005 5.98088 10.0011 6.01945 10.195C6.05802 10.389 6.15322 10.5671 6.29303 10.707L11.293 15.707C11.4806 15.8945 11.7349 15.9998 12 15.9998C12.2652 15.9998 12.5195 15.8945 12.707 15.707L17.707 10.707C17.8468 10.5671 17.942 10.389 17.9806 10.195C18.0192 10.0011 17.9994 9.80005 17.9237 9.61735C17.848 9.43465 17.7199 9.27848 17.5555 9.1686C17.3911 9.05871 17.1978 9.00004 17 9H7.00003Z" fill="currentColor"/>
  </symbol>
  <symbol id="icon-catalog-tourism" viewBox="0 0 16 16" fill="none">

<path d="M5.08333 4H10.9167L15 12H6.10417" stroke="currentColor" stroke-linejoin="round"/>
<path d="M5.08333 4H10.9167L6.83333 12H1L5.08333 4Z" stroke="currentColor" stroke-linejoin="round"/>
<path d="M11 4.5V11.5" stroke="currentColor" stroke-linejoin="round"/>

  </symbol>
  <symbol id="icon-catalog-quad" viewBox="0 0 16 16" fill="none">

<path fill-rule="evenodd" clip-rule="evenodd" d="M6.11888 10.3782L4.27076 12.2262L3.70508 11.6606L5.55319 9.8125L6.11888 10.3782Z" fill="currentColor"/>
<path fill-rule="evenodd" clip-rule="evenodd" d="M9.54883 10.3782L11.3969 12.2262L11.9626 11.6606L10.1145 9.8125L9.54883 10.3782Z" fill="currentColor"/>
<path fill-rule="evenodd" clip-rule="evenodd" d="M2.13529 9.66914C1.91344 9.66914 1.73359 9.84901 1.73359 10.0709V13.1993C1.73359 13.4211 1.91344 13.6009 2.13529 13.6009H3.25905C3.4809 13.6009 3.66075 13.4211 3.66075 13.1993V10.0709C3.66075 9.84901 3.4809 9.66914 3.25905 9.66914H2.13529ZM0.933594 10.0709C0.933594 9.40721 1.47161 8.86914 2.13529 8.86914H3.25905C3.92273 8.86914 4.46075 9.40721 4.46075 10.0709V13.1993C4.46075 13.8629 3.92273 14.4009 3.25905 14.4009H2.13529C1.47161 14.4009 0.933594 13.8629 0.933594 13.1993V10.0709Z" fill="currentColor"/>
<path fill-rule="evenodd" clip-rule="evenodd" d="M13.614 13.6009C13.8358 13.6009 14.0156 13.4211 14.0156 13.1993V10.0709C14.0156 9.84901 13.8358 9.66914 13.614 9.66914H12.481C12.2591 9.66914 12.0793 9.84901 12.0793 10.0709V13.1993C12.0793 13.4211 12.2591 13.6009 12.481 13.6009H13.614ZM14.8156 13.1993C14.8156 13.8629 14.2776 14.4009 13.614 14.4009H12.481C11.8173 14.4009 11.2793 13.8629 11.2793 13.1993V10.0709C11.2793 9.40714 11.8173 8.86914 12.481 8.86914H13.614C14.2776 8.86914 14.8156 9.40714 14.8156 10.0709V13.1993Z" fill="currentColor"/>
<path fill-rule="evenodd" clip-rule="evenodd" d="M3.23438 1.99961C3.23438 1.7787 3.41346 1.59961 3.63437 1.59961H5.38084C5.54794 1.59961 5.69742 1.70348 5.75571 1.86008L6.43199 3.67714C6.50905 3.88418 6.40368 4.11448 6.19664 4.19154C5.98961 4.2686 5.7593 4.16323 5.68224 3.95619L5.1029 2.39961H3.63437C3.41346 2.39961 3.23438 2.22052 3.23438 1.99961Z" fill="currentColor"/>
<path fill-rule="evenodd" clip-rule="evenodd" d="M9.99255 1.86008C10.0508 1.70348 10.2003 1.59961 10.3674 1.59961H12.1139C12.3348 1.59961 12.5139 1.7787 12.5139 1.99961C12.5139 2.22052 12.3348 2.39961 12.1139 2.39961H10.6454L10.066 3.95619C9.98895 4.16323 9.75862 4.2686 9.55162 4.19154C9.34455 4.11448 9.23922 3.88418 9.31622 3.67714L9.99255 1.86008Z" fill="currentColor"/>
<path fill-rule="evenodd" clip-rule="evenodd" d="M5.9069 3.57371C5.98263 3.4755 6.09964 3.41797 6.22366 3.41797H9.50884C9.63324 3.41797 9.7505 3.47582 9.82624 3.57449L11.2203 5.39154L10.5856 5.8785L9.31157 4.21797H6.42032L5.16282 5.84874L4.5293 5.36022L5.9069 3.57371Z" fill="currentColor"/>
<path fill-rule="evenodd" clip-rule="evenodd" d="M4.32027 8.20287C4.4335 8.01314 4.67907 7.9512 4.86875 8.0644L5.62067 8.51327C5.7679 8.59647 5.88113 8.729 5.94025 8.88767C5.94692 8.9056 5.95231 8.92393 5.95635 8.9426L6.38045 10.8987H9.36965L9.83332 8.82907C9.85759 8.7208 9.92572 8.62747 10.0215 8.5714L10.8819 8.06733C11.0725 7.95567 11.3175 8.01967 11.4292 8.21027C11.5409 8.40087 11.4769 8.64594 11.2863 8.7576L10.5759 9.17374L10.0803 11.3862C10.0393 11.5689 9.87712 11.6987 9.68992 11.6987H6.05787C5.86962 11.6987 5.70684 11.5675 5.66695 11.3835L5.19107 9.18847L4.45871 8.75133C4.26902 8.63807 4.20704 8.39254 4.32027 8.20287Z" fill="currentColor"/>
<path fill-rule="evenodd" clip-rule="evenodd" d="M2.28803 4.68748C2.38872 4.58679 2.53534 4.54722 2.67301 4.58358L5.31398 5.28105C5.43215 5.31226 5.52957 5.39579 5.57846 5.50781L6.77438 8.24836C6.82832 8.37203 6.81632 8.51456 6.74245 8.62749C6.66852 8.74036 6.54269 8.80836 6.40777 8.80836H4.66369C4.61038 8.80836 4.55761 8.79769 4.50849 8.77703L1.66829 7.58129C1.55547 7.53383 1.47061 7.43723 1.43797 7.31929L1.11409 6.1482C1.07569 6.00936 1.11491 5.86059 1.21677 5.75873L2.28803 4.68748ZM2.6911 5.41579L1.94728 6.15961L2.15736 6.91923L4.74446 8.00836H5.79679L4.92262 6.00512L2.6911 5.41579Z" fill="currentColor"/>
<path fill-rule="evenodd" clip-rule="evenodd" d="M13.0762 4.58749C13.2138 4.55113 13.3604 4.5907 13.4611 4.69138L14.5324 5.76264C14.6342 5.86451 14.6734 6.01328 14.635 6.15213L14.3112 7.32301C14.2786 7.44094 14.1937 7.53748 14.0809 7.58501L11.2407 8.78094C11.1916 8.80161 11.1388 8.81228 11.0854 8.81228H9.34138C9.20644 8.81228 9.08064 8.74428 9.00671 8.63134C8.93284 8.51848 8.92084 8.37594 8.97478 8.25228L10.1707 5.51172C10.2196 5.3997 10.317 5.31617 10.4352 5.28496L13.0762 4.58749ZM10.8266 6.00903L9.95238 8.01228H11.0047L13.5918 6.92294L13.8019 6.1635L13.058 5.41969L10.8266 6.00903Z" fill="currentColor"/>
<path fill-rule="evenodd" clip-rule="evenodd" d="M5.25977 6.67145C5.25977 6.45057 5.43885 6.27148 5.65977 6.27148H10.0817C10.3026 6.27148 10.4817 6.45057 10.4817 6.67145C10.4817 6.89238 10.3026 7.07145 10.0817 7.07145H5.65977C5.43885 7.07145 5.25977 6.89238 5.25977 6.67145Z" fill="currentColor"/>
<path fill-rule="evenodd" clip-rule="evenodd" d="M6.00781 8.40781C6.00781 8.18688 6.1869 8.00781 6.40781 8.00781H9.74625C9.96719 8.00781 10.1463 8.18688 10.1463 8.40781C10.1463 8.62875 9.96719 8.80781 9.74625 8.80781H6.40781C6.1869 8.80781 6.00781 8.62875 6.00781 8.40781Z" fill="currentColor"/>

  </symbol>
  <symbol id="icon-catalog-fishing" viewBox="0 0 16 16" fill="none">

<path fill-rule="evenodd" clip-rule="evenodd" d="M4.84098 10.5736C4.89633 10.7875 5.11457 10.916 5.32844 10.8607C6.38779 10.5865 7.34479 10.0108 8.08339 9.20343C8.22232 9.05149 8.22325 8.81889 8.08552 8.66583C7.44699 7.95643 6.63288 7.42776 5.72509 7.13296L5.71969 7.13123L5.35301 7.01796C5.14195 6.95269 4.91797 7.07089 4.85273 7.28196C4.78749 7.49303 4.90571 7.71703 5.11677 7.78223L5.48068 7.89476C6.13408 8.10736 6.73052 8.46209 7.22785 8.93163C6.6369 9.48463 5.91538 9.88243 5.12801 10.0862C4.91414 10.1416 4.78563 10.3598 4.84098 10.5736Z" fill="currentColor"/>
<path fill-rule="evenodd" clip-rule="evenodd" d="M8.62553 2.36829C8.71113 2.44421 8.76013 2.55315 8.76013 2.66758V5.06091C8.76013 5.28183 8.58106 5.46091 8.36013 5.46091C8.13919 5.46091 7.96013 5.28183 7.96013 5.06091V3.14061C7.43339 3.25609 6.92913 3.46084 6.46954 3.74706C6.1932 3.91915 5.84201 4.23141 5.50083 4.59192C5.16252 4.94938 4.8574 5.32943 4.66893 5.61912C4.54845 5.80429 4.30068 5.85673 4.11551 5.73626C3.93033 5.61579 3.87788 5.36802 3.99835 5.18284C4.21985 4.8424 4.55789 4.42441 4.91979 4.04202C5.2788 3.66267 5.68485 3.29328 6.04665 3.06798C6.73446 2.63965 7.50779 2.36741 8.31226 2.27045C8.42586 2.25676 8.53986 2.29237 8.62553 2.36829Z" fill="currentColor"/>
<path d="M3.229 8.56826C3.34557 8.57253 3.46074 8.54173 3.55967 8.47993C3.6586 8.41819 3.73677 8.32819 3.7841 8.22153C3.83144 8.11493 3.84576 7.99659 3.82525 7.88179C3.80474 7.76692 3.75031 7.66093 3.66899 7.57726C3.58767 7.49366 3.48318 7.43632 3.36897 7.41259C3.25476 7.38886 3.13607 7.39993 3.02818 7.44426C2.92029 7.48859 2.82815 7.56419 2.76362 7.66139C2.69909 7.75853 2.66513 7.87279 2.66612 7.98946C2.66471 8.06452 2.67819 8.13912 2.70578 8.20892C2.73338 8.27872 2.77453 8.34239 2.82687 8.39619C2.87921 8.45006 2.9417 8.49299 3.01072 8.52246C3.07974 8.55199 3.15394 8.56759 3.229 8.56826Z" fill="currentColor"/>
<path fill-rule="evenodd" clip-rule="evenodd" d="M4.93265 8.73257C4.93265 7.61257 4.48756 6.55823 3.69922 5.66371L4.29941 5.13477C5.19663 6.15285 5.73265 7.38971 5.73265 8.73257C5.73265 10.0754 5.19663 11.3123 4.29941 12.3304L3.69922 11.8014C4.48756 10.9069 4.93265 9.85257 4.93265 8.73257Z" fill="currentColor"/>
<path fill-rule="evenodd" clip-rule="evenodd" d="M0.299964 8.57102C1.31627 6.2712 3.63585 4.66602 6.3325 4.66602C8.33412 4.66602 10.1281 5.55063 11.3353 6.94662C11.7787 6.45338 12.2723 6.10562 12.8289 5.86312C13.5171 5.56333 14.283 5.43267 15.1299 5.36609C15.4063 5.34436 15.6081 5.52562 15.6756 5.72858C15.7422 5.92883 15.6919 6.18782 15.4713 6.3402C15.003 6.66361 14.656 6.96862 14.4221 7.32962C14.1937 7.68216 14.0559 8.11536 14.0559 8.72449C14.0559 9.33356 14.1937 9.76676 14.4221 10.1193C14.656 10.4803 15.003 10.7853 15.4713 11.1088C15.692 11.2612 15.7421 11.5203 15.6757 11.7204C15.6083 11.923 15.4069 12.1046 15.1305 12.0832C14.2848 12.018 13.5189 11.8917 12.8307 11.5959C12.2736 11.3565 11.7793 11.0114 11.3354 10.5186C10.1283 11.9146 8.33425 12.7994 6.3325 12.7994C3.63585 12.7994 1.31627 11.1942 0.299964 8.89436L0.228516 8.73269L0.299964 8.57102ZM1.10622 8.73269C2.03297 10.6629 4.02387 11.9994 6.3325 11.9994C8.25639 11.9994 9.95945 11.0715 11.0105 9.64449L11.3325 9.20716L11.6546 9.64449C12.0987 10.2474 12.5858 10.6199 13.1466 10.8609C13.4857 11.0066 13.8583 11.1072 14.2757 11.1779C14.0774 10.9894 13.8998 10.7844 13.7507 10.5543C13.4275 10.0554 13.2559 9.46669 13.2559 8.72449C13.2559 7.98229 13.4275 7.39356 13.7507 6.89462C13.8988 6.66596 14.0751 6.4622 14.2717 6.27471C13.8569 6.34702 13.4861 6.44945 13.1485 6.59655C12.5871 6.84109 12.0992 7.21722 11.6546 7.82089L11.3325 8.25822L11.0105 7.82089C9.95945 6.39388 8.25639 5.46602 6.3325 5.46602C4.02387 5.46602 2.03297 6.80249 1.10622 8.73269Z" fill="currentColor"/>

  </symbol>
<symbol id="icon-catalog-travel" viewBox="0 0 16 16" fill="none">

<g clip-path="url(#clip0_2773_52944)">
<circle cx="8" cy="8" r="7" stroke="currentColor" stroke-linejoin="round"/>
<path d="M8 13V15" stroke="currentColor" stroke-linejoin="round"/>
<path d="M13 8.00586L15 8.00586" stroke="currentColor" stroke-linejoin="round"/>
<path d="M8 1V3" stroke="currentColor" stroke-linejoin="round"/>
<path d="M1 8.00586L3 8.00586" stroke="currentColor" stroke-linejoin="round"/>
<path d="M10.8282 5.17195L7.29267 7.29327L5.17135 10.8288L8.70688 8.70748L10.8282 5.17195Z" stroke="currentColor" stroke-linejoin="round"/>
</g>
<defs>
<clipPath id="clip0_2773_52944">
<rect width="16" height="16" fill="white"/>
</clipPath>
</defs>

  </symbol>
  <symbol id="icon-catalog-snowmobile" viewBox="0 0 16 16" fill="none">

<g clip-path="url(#clip0_2773_52955)">
<mask id="mask0_2773_52955" style="mask-type:luminance" maskUnits="userSpaceOnUse" x="0" y="0" width="16" height="16">
<path d="M16 0H0V16H16V0Z" fill="white"/>
</mask>
<g mask="url(#mask0_2773_52955)">
<path fill-rule="evenodd" clip-rule="evenodd" d="M8.00156 0.267578C8.2225 0.267578 8.40156 0.446664 8.40156 0.667579V15.3342C8.40156 15.5552 8.2225 15.7342 8.00156 15.7342C7.78063 15.7342 7.60156 15.5552 7.60156 15.3342V0.667579C7.60156 0.446664 7.78063 0.267578 8.00156 0.267578Z" fill="currentColor"/>
<path fill-rule="evenodd" clip-rule="evenodd" d="M5.71872 1.71872C5.87493 1.56251 6.12819 1.56251 6.2844 1.71872L8.00156 3.43588L9.7187 1.71872C9.87496 1.56251 10.1282 1.56251 10.2844 1.71872C10.4406 1.87493 10.4406 2.1282 10.2844 2.2844L8.00156 4.56725L5.71872 2.2844C5.56251 2.1282 5.56251 1.87493 5.71872 1.71872Z" fill="currentColor"/>
<path fill-rule="evenodd" clip-rule="evenodd" d="M5.71872 14.2841C5.87493 14.4403 6.12819 14.4403 6.2844 14.2841L8.00156 12.5669L9.7187 14.2841C9.87496 14.4403 10.1282 14.4403 10.2844 14.2841C10.4406 14.1279 10.4406 13.8746 10.2844 13.7183L8.00156 11.4355L5.71872 13.7183C5.56251 13.8746 5.56251 14.1279 5.71872 14.2841Z" fill="currentColor"/>
<path fill-rule="evenodd" clip-rule="evenodd" d="M1.30366 11.867C1.1932 11.6757 1.25875 11.4311 1.45007 11.3206L14.1518 3.98725C14.3431 3.87679 14.5878 3.94235 14.6982 4.13366C14.8086 4.32498 14.7431 4.56961 14.5518 4.68007L1.85007 12.0134C1.65875 12.1239 1.41412 12.0583 1.30366 11.867Z" fill="currentColor"/>
<path fill-rule="evenodd" clip-rule="evenodd" d="M3.70087 13.1197C3.48749 13.0625 3.36085 12.8432 3.41803 12.6299L4.04655 10.2841L1.70087 9.65559C1.48748 9.59845 1.36085 9.37912 1.41803 9.16572C1.47521 8.95232 1.69454 8.82572 1.90793 8.88285L5.02635 9.71845L4.19077 12.8369C4.13359 13.0503 3.91426 13.1769 3.70087 13.1197Z" fill="currentColor"/>
<path fill-rule="evenodd" clip-rule="evenodd" d="M14.5829 6.83685C14.6401 6.62349 14.5135 6.40415 14.3001 6.34697L11.9544 5.71845L12.5829 3.37277C12.6401 3.15938 12.5135 2.94005 12.3001 2.88287C12.0867 2.82569 11.8673 2.95233 11.8102 3.16571L10.9746 6.28413L14.0931 7.11971C14.3064 7.17691 14.5257 7.05025 14.5829 6.83685Z" fill="currentColor"/>
<path fill-rule="evenodd" clip-rule="evenodd" d="M1.30365 4.13366C1.41411 3.94235 1.65875 3.87679 1.85007 3.98725L14.5518 11.3206C14.7431 11.4311 14.8086 11.6757 14.6982 11.867C14.5878 12.0583 14.3431 12.1239 14.1518 12.0134L1.45007 4.68007C1.25875 4.56961 1.1932 4.32498 1.30365 4.13366Z" fill="currentColor"/>
<path fill-rule="evenodd" clip-rule="evenodd" d="M1.41802 6.83685C1.36085 6.62349 1.48748 6.40415 1.70087 6.34697L4.04655 5.71845L3.41803 3.37277C3.36085 3.15938 3.48748 2.94005 3.70087 2.88287C3.91426 2.82569 4.13359 2.95233 4.19077 3.16571L5.02635 6.28413L1.90792 7.11971C1.69454 7.17691 1.4752 7.05025 1.41802 6.83685Z" fill="currentColor"/>
<path fill-rule="evenodd" clip-rule="evenodd" d="M12.3001 13.1197C12.5135 13.0625 12.6401 12.8432 12.5829 12.6299L11.9544 10.2841L14.3001 9.65559C14.5135 9.59845 14.6401 9.37912 14.5829 9.16572C14.5257 8.95232 14.3064 8.82572 14.093 8.88285L10.9746 9.71845L11.8102 12.8369C11.8673 13.0503 12.0867 13.1769 12.3001 13.1197Z" fill="currentColor"/>
</g>
</g>
<defs>
<clipPath id="clip0_2773_52955">
<rect width="16" height="16" fill="white"/>
</clipPath>
</defs>

  </symbol>
  <symbol id="icon-catalog-ski" viewBox="0 0 16 16" fill="none">

<g clip-path="url(#clip0_2773_53094)">
<path d="M14.0531 0H1.38086V12.6722H14.0531V0Z" fill="white" fill-opacity="0.01"/>
<path d="M10.8845 3.96035C11.6135 3.96035 12.2045 3.36936 12.2045 2.64033C12.2045 1.91131 11.6135 1.32031 10.8845 1.32031C10.1554 1.32031 9.56445 1.91131 9.56445 2.64033C9.56445 3.36936 10.1554 3.96035 10.8845 3.96035Z" stroke="currentColor"/>
<path d="M9.61002 5.34385C9.80323 5.17327 9.82157 4.87836 9.65099 4.68516C9.4804 4.49194 9.1855 4.47361 8.99229 4.64418L9.30115 4.99402L9.61002 5.34385ZM5.42566 8.50762L5.10914 8.16471C4.98974 8.2749 4.93627 8.43926 4.96795 8.5986C4.99962 8.75794 5.11189 8.88935 5.26434 8.94551L5.42566 8.50762ZM8.60558 9.67918L8.95526 9.9882C9.05728 9.87276 9.09575 9.71442 9.05808 9.56506C9.02042 9.41569 8.91146 9.29454 8.76691 9.24127L8.60558 9.67918ZM5.07597 12.9685C4.9053 13.1616 4.9235 13.4565 5.11664 13.6272C5.30976 13.7979 5.60467 13.7797 5.77534 13.5865L5.42566 13.2775L5.07597 12.9685ZM5.42566 8.50762L5.26434 8.94551L8.44426 10.1171L8.60558 9.67918L8.76691 9.24127L5.58699 8.06974L5.42566 8.50762ZM8.60558 9.67918L8.25589 9.37015L5.07597 12.9685L5.42566 13.2775L5.77534 13.5865L8.95526 9.9882L8.60558 9.67918ZM9.30115 4.99402L8.99229 4.64418L8.04566 5.47996L8.35453 5.8298L8.66339 6.17962L9.61002 5.34385L9.30115 4.99402ZM6.51352 7.50343L6.19699 7.16054L5.10914 8.16471L5.42566 8.50762L5.74219 8.85054L6.83006 7.84634L6.51352 7.50343Z" fill="currentColor"/>
<path d="M9.30078 4.99414L10.0278 8.08931L13.0404 8.42404" stroke="currentColor" stroke-linecap="round" stroke-linejoin="round"/>
<path d="M9.77612 7.58615L1.32422 4.40625" stroke="currentColor" stroke-linecap="round"/>
<path d="M0.654297 12.0215L12.6105 15.3905C13.7988 15.7254 15.0316 15.0242 15.3512 13.8316" stroke="currentColor" stroke-linecap="round"/>
</g>
<defs>
<clipPath id="clip0_2773_53094">
<rect width="16" height="16" fill="white"/>
</clipPath>
</defs>

  </symbol>
  <symbol id="icon-catalog-divider" viewBox="0 0 2 16" fill="none">

<path d="M1 0V16" stroke="currentColor" stroke-width="2" stroke-linejoin="round"/>

  </symbol>
  <symbol id="icon-catalog-sort" viewBox="0 0 16 16" fill="none">

<path d="M5 12.5V3" stroke="currentColor" stroke-width="2"/>
<path d="M11 3.5V13" stroke="currentColor" stroke-width="2"/>
<path d="M2 11L5 13L8 11" stroke="currentColor" stroke-width="2"/>
<path d="M8 5L11 3L14 5" stroke="currentColor" stroke-width="2"/>

  </symbol>
  <symbol id="icon-catalog-filter" viewBox="0 0 16 16" fill="none">

<path d="M2 11H10" stroke="currentColor" stroke-width="2"/>
<path d="M6 5H14" stroke="currentColor" stroke-width="2"/>
<circle cx="12" cy="11" r="2" stroke="currentColor" stroke-width="2"/>
<circle cx="4" cy="5" r="2" stroke="currentColor" stroke-width="2"/>

  </symbol>
  <symbol id="icon-catalog-chevron" viewBox="0 0 16 16" fill="none">

<path d="M4.69529 6.97546C4.50463 6.81203 4.44758 6.56621 4.55076 6.35268C4.65396 6.1392 4.89704 6.00001 5.16665 6L11.8333 6C12.103 6 12.346 6.1392 12.4492 6.35268C12.5524 6.56621 12.4954 6.81203 12.3047 6.97546L8.97135 9.83263C8.711 10.0558 8.28899 10.0558 8.02864 9.83263L4.69529 6.97546Z" fill="currentColor"/>

  </symbol>

  <symbol id="icon-product-zoom" viewBox="0 0 24 24" fill="none">
    <path d="M12 9L12 15" stroke="currentColor" stroke-width="2" stroke-linejoin="round"/>
    <path d="M15 12H9" stroke="currentColor" stroke-width="2" stroke-linejoin="round"/>
    <circle cx="12" cy="12" r="8" stroke="currentColor" stroke-width="2" stroke-linejoin="round"/>
    <path d="M17 18L20 21" stroke="currentColor" stroke-width="2" stroke-linejoin="round"/>
  </symbol>

  <symbol id="icon-stock-sep" viewBox="0 0 1 12" fill="none">
    <path d="M0.5 0V12" stroke="currentColor"/>
  </symbol>

  <symbol id="icon-color-bw" viewBox="0 0 16 16" fill="none">
    <path d="M8 0C6.94943 0 5.90914 0.206926 4.93853 0.608964C3.96793 1.011 3.08601 1.60028 2.34315 2.34315C1.60028 3.08601 1.011 3.96793 0.608964 4.93853C0.206926 5.90914 0 6.94943 0 8C0 9.05058 0.206926 10.0909 0.608964 11.0615C1.011 12.0321 1.60028 12.914 2.34315 13.6569C3.08601 14.3997 3.96793 14.989 4.93853 15.391C5.90914 15.7931 6.94943 16 8 16L8 8V0Z" fill="#5E5E5E"/>
    <path d="M8 16C9.05057 16 10.0909 15.7931 11.0615 15.391C12.0321 14.989 12.914 14.3997 13.6569 13.6569C14.3997 12.914 14.989 12.0321 15.391 11.0615C15.7931 10.0909 16 9.05057 16 8C16 6.94942 15.7931 5.90914 15.391 4.93853C14.989 3.96793 14.3997 3.08601 13.6569 2.34314C12.914 1.60028 12.0321 1.011 11.0615 0.608963C10.0909 0.206926 9.05057 0 8 0L8 8L8 16Z" fill="white"/>
  </symbol>

</svg>
