<svg width="36" height="36" viewBox="0 0 36 36" fill="none" xmlns="http://www.w3.org/2000/svg">
<path d="M17.2488 6.75059C18.8573 6.21457 22.9813 8.03329 25.446 9.31846C25.8285 9.51804 25.8671 10.0452 25.5398 10.3263C19.0973 15.8557 22.1838 22.0784 24.9919 25.004C25.2491 25.2719 25.2304 25.7095 24.9202 25.9137C19.7726 29.2998 13.1282 25.9168 10.0681 23.5084C9.87333 23.3551 9.6051 23.3294 9.38842 23.4498L6.12329 25.2633C4.9609 25.9089 3.5504 24.8236 3.81323 23.5201C4.16541 21.7742 4.49873 19.6794 4.49877 18.0006C4.49877 16.3219 4.16539 14.227 3.81323 12.4811C3.55032 11.1777 4.96093 10.0911 6.12329 10.7364L9.29174 12.4957C9.5537 12.641 9.88097 12.5704 10.0798 12.3463C10.924 11.3941 12.5395 10.0405 14.3997 9.79014C14.728 9.74596 14.9974 9.47904 15.0706 9.15586C15.2564 8.33456 15.8387 7.2206 17.2488 6.75059Z" fill="black"/>
<path fill-rule="evenodd" clip-rule="evenodd" d="M26.5447 12.1456C27.0817 11.6218 27.9376 11.6109 28.4783 12.131C30.076 13.668 31.3563 15.3658 32.4158 17.3385C32.6378 17.7523 32.638 18.2504 32.4158 18.6642C31.3691 20.6128 30.1063 22.2938 28.5354 23.816C27.9726 24.3604 27.0768 24.3237 26.5344 23.7589C22.9321 20.0022 21.4343 17.1306 26.5447 12.1456ZM26.3835 16.5006C25.7626 16.5009 25.2587 17.0046 25.2585 17.6256C25.2589 18.2464 25.7627 18.7503 26.3835 18.7506C27.0046 18.7506 27.5082 18.2466 27.5085 17.6256C27.5084 17.0044 27.0047 16.5006 26.3835 16.5006Z" fill="black"/>
</svg>
