<svg width="36" height="36" viewBox="0 0 36 36" fill="none" xmlns="http://www.w3.org/2000/svg">
<path d="M16.5528 23.25C16.9194 23.2501 17.2001 23.5759 17.146 23.9385L16.2027 30.2227C16.0925 30.9566 15.4623 31.4997 14.7203 31.5H12.7251C12.0175 31.5 11.4052 31.0055 11.2574 30.3135L9.90531 23.9751C9.82569 23.6019 10.1097 23.2503 10.4912 23.25H16.5528Z" fill="black"/>
<path d="M25.5528 23.25C25.9194 23.2501 26.2001 23.5759 26.146 23.9385L25.2027 30.2227C25.0925 30.9566 24.4623 31.4997 23.7203 31.5H21.7251C21.0175 31.5 20.4052 31.0055 20.2574 30.3135L18.9053 23.9751C18.8257 23.6019 19.1097 23.2503 19.4912 23.25H25.5528Z" fill="black"/>
<path d="M6.00004 4.5C7.65684 4.50007 9.00004 6.17898 9.00004 8.25C9.00004 10.0019 8.03733 11.468 6.73832 11.8799C6.74465 11.9191 6.75004 11.959 6.75004 12V27.3486L8.66605 28.626C9.01062 28.8557 9.10377 29.3214 8.87406 29.666C8.64431 30.0106 8.17865 30.1037 7.83402 29.874L6.75004 29.1504V30C6.75004 30.4142 6.4142 30.7499 6.00004 30.75C5.58586 30.75 5.25004 30.4142 5.25004 30V29.1504L4.16605 29.874C3.82143 30.1037 3.35578 30.0106 3.12601 29.666C2.89629 29.3214 2.98942 28.8557 3.33402 28.626L5.25004 27.3486V12C5.25004 11.9591 5.25399 11.919 5.26029 11.8799C3.96197 11.4674 3.00004 10.0013 3.00004 8.25C3.00004 6.17896 4.34321 4.50005 6.00004 4.5Z" fill="black"/>
<path d="M30 4.5C31.6568 4.50007 33 6.17898 33 8.25C33 10.0019 32.0373 11.468 30.7383 11.8799C30.7446 11.9191 30.75 11.959 30.75 12V27.3486L32.6661 28.626C33.0106 28.8557 33.1038 29.3214 32.8741 29.666C32.6443 30.0106 32.1786 30.1037 31.834 29.874L30.75 29.1504V30C30.75 30.4142 30.4142 30.7499 30 30.75C29.5859 30.75 29.25 30.4142 29.25 30V29.1504L28.1661 29.874C27.8214 30.1037 27.3558 30.0106 27.126 29.666C26.8963 29.3214 26.9894 28.8557 27.334 28.626L29.25 27.3486V12C29.25 11.9591 29.254 11.919 29.2603 11.8799C27.962 11.4674 27 10.0013 27 8.25C27 6.17896 28.3432 4.50004 30 4.5Z" fill="black"/>
<path d="M13.147 18.8936C13.3421 18.7267 13.6579 18.7268 13.8531 18.8936L16.3536 21.0366C16.4965 21.1592 16.5393 21.3438 16.462 21.5039C16.3846 21.6639 16.2026 21.769 16.0005 21.769H10.9995C10.7976 21.7688 10.6154 21.6638 10.5381 21.5039C10.4608 21.3438 10.5036 21.1592 10.6465 21.0366L13.147 18.8936Z" fill="black"/>
<path d="M22.147 18.8936C22.3421 18.7267 22.6579 18.7267 22.8531 18.8936L25.3536 21.0366C25.4965 21.1592 25.5393 21.3438 25.462 21.5039C25.3846 21.6639 25.2025 21.7689 25.0005 21.769H19.9995C19.7976 21.7689 19.6155 21.6639 19.5381 21.5039C19.4607 21.3438 19.5035 21.1592 19.6465 21.0366L22.147 18.8936Z" fill="black"/>
<path d="M12.4204 5.05957C12.9741 4.3481 14.026 4.34807 14.5796 5.05957C14.9959 5.59461 15.4446 6.21266 15.75 6.75C16.2771 7.67712 16.7778 9.06556 17.0464 9.86719C17.1867 10.286 17.25 10.7249 17.25 11.1665V18.7236C17.2496 18.9976 16.901 19.1391 16.6993 18.9536C15.9756 18.2877 14.6602 17.2501 13.5 17.25C12.3402 17.25 11.0261 18.2877 10.3023 18.9536C10.1005 19.1392 9.7505 18.9976 9.75004 18.7236V11.1665C9.75004 10.7249 9.81342 10.286 9.95365 9.86719C10.2223 9.06555 10.723 7.67711 11.25 6.75C11.5555 6.21267 12.0042 5.5946 12.4204 5.05957Z" fill="black"/>
<path d="M21.4204 5.05957C21.9741 4.3481 23.026 4.34807 23.5796 5.05957C23.9959 5.59461 24.4446 6.21266 24.75 6.75C25.2771 7.67712 25.7778 9.06556 26.0464 9.86719C26.1867 10.286 26.25 10.7249 26.25 11.1665V18.7236C26.2496 18.9976 25.901 19.1391 25.6993 18.9536C24.9756 18.2877 23.6602 17.2501 22.5 17.25C21.3402 17.25 20.0261 18.2877 19.3023 18.9536C19.1005 19.1392 18.7505 18.9976 18.75 18.7236V11.1665C18.75 10.7249 18.8134 10.286 18.9537 9.86719C19.2223 9.06555 19.723 7.67711 20.25 6.75C20.5555 6.21267 21.0042 5.5946 21.4204 5.05957Z" fill="black"/>
</svg>
