<svg width="36" height="36" viewBox="0 0 36 36" fill="none" xmlns="http://www.w3.org/2000/svg">
<path d="M18.0234 26.4375C18.4376 26.4376 18.7734 26.7733 18.7734 27.1875V28.5132L19.9219 27.8511C20.2805 27.644 20.7386 27.7664 20.9458 28.125C21.1528 28.4836 21.0303 28.9417 20.6719 29.1489L19.522 29.8125L20.6719 30.4761C21.0303 30.6833 21.1528 31.1414 20.9458 31.5C20.7387 31.8586 20.2805 31.981 19.9219 31.7739L18.7734 31.1104V32.4375C18.7734 32.8517 18.4376 33.1874 18.0234 33.1875C17.6092 33.1875 17.2734 32.8517 17.2734 32.4375V31.1104L16.125 31.7739C15.7664 31.981 15.3082 31.8585 15.1011 31.5C14.894 31.1414 15.0165 30.6833 15.375 30.4761L16.5234 29.8125L15.375 29.1489C15.0165 28.9417 14.894 28.4836 15.1011 28.125C15.3083 27.7665 15.7664 27.644 16.125 27.8511L17.2734 28.5132V27.1875C17.2734 26.7733 17.6092 26.4375 18.0234 26.4375Z" fill="#080808"/>
<path d="M9 23.25C9.41421 23.25 9.75 23.5858 9.75 24V25.3257L10.8984 24.6636C11.2571 24.4565 11.7152 24.579 11.9224 24.9375C12.1294 25.2961 12.007 25.7542 11.6484 25.9614L10.4985 26.6235L11.6484 27.2886C12.0069 27.4958 12.1294 27.9539 11.9224 28.3125C11.7152 28.671 11.2571 28.7935 10.8984 28.5864L9.75 27.9229V29.25C9.75 29.6642 9.41421 30 9 30C8.58579 30 8.25 29.6642 8.25 29.25V27.9229L7.10156 28.5864C6.74289 28.7935 6.28479 28.6711 6.07764 28.3125C5.87061 27.9539 5.99318 27.4958 6.35156 27.2886L7.5 26.6235L6.35156 25.9614C5.99315 25.7542 5.87061 25.2961 6.07764 24.9375C6.28479 24.5789 6.7429 24.4565 7.10156 24.6636L8.25 25.3257V24C8.25 23.5858 8.58579 23.25 9 23.25Z" fill="#080808"/>
<path d="M27 23.25C27.4141 23.2501 27.75 23.5858 27.75 24V25.3257L28.8984 24.6636C29.2571 24.4565 29.7152 24.579 29.9224 24.9375C30.1294 25.2961 30.0069 25.7542 29.6484 25.9614L28.4985 26.625L29.6484 27.2886C30.0068 27.4958 30.1294 27.9539 29.9224 28.3125C29.7152 28.671 29.2571 28.7935 28.8984 28.5864L27.75 27.9229V29.25C27.75 29.6642 27.4141 29.9999 27 30C26.5859 29.9999 26.25 29.6642 26.25 29.25V27.9229L25.1016 28.5864C24.7429 28.7934 24.2848 28.671 24.0776 28.3125C23.8707 27.9539 23.9932 27.4958 24.3516 27.2886L25.5 26.625L24.3516 25.9614C23.9932 25.7542 23.8707 25.2961 24.0776 24.9375C24.2848 24.579 24.7429 24.4566 25.1016 24.6636L26.25 25.3257V24C26.25 23.5858 26.5859 23.2501 27 23.25Z" fill="#080808"/>
<path d="M17.25 3C21.5454 3 25.072 5.68611 25.4619 9.11719C25.4892 9.35761 25.3484 9.58002 25.1367 9.69727C24.5528 10.0207 23.9818 10.4663 23.4434 11.061C23.1662 11.368 23.1897 11.8423 23.4961 12.1201C23.803 12.3977 24.2787 12.374 24.5566 12.0674C25.4275 11.1057 26.3787 10.6579 27.3091 10.519C27.4545 10.507 27.6015 10.5 27.75 10.5C30.6495 10.5 33 12.8505 33 15.75C33 18.6495 30.6495 21 27.75 21H8.25C5.35051 21 3 18.6495 3 15.75C3 14.8274 3.23977 13.8853 3.65771 13.0283C4.09384 12.331 4.73682 11.6519 5.55615 11.1343C7.12117 10.1458 9.26205 9.79993 11.6279 11.1519C11.9874 11.357 12.4463 11.2313 12.6519 10.8721C12.8567 10.5127 12.7312 10.0551 12.3721 9.84961C11.4723 9.33548 10.5867 9.02298 9.73389 8.87256C9.38675 8.81119 9.1339 8.48685 9.23438 8.14893C10.113 5.19396 13.368 3 17.25 3Z" fill="#080808"/>
</svg>
