<svg width="36" height="36" viewBox="0 0 36 36" fill="none" xmlns="http://www.w3.org/2000/svg">
<path d="M9.85805 6.71412C10.0347 6.51169 10.3529 6.55006 10.4837 6.78475C13.4548 12.1194 17.0768 21.1083 17.2769 31.0523C17.2917 31.788 16.5178 32.2595 15.8596 31.9303L13.3404 30.6702C13.2071 30.6036 13.1221 30.4682 13.1188 30.3192C13.0195 25.8043 12.2794 21.3824 10.4209 17.6653C10.1917 17.2077 9.58159 17.1086 9.21973 17.4705C8.01315 18.6771 7.18943 19.9513 6.68262 21.7961C6.34272 23.0337 6.14778 24.5178 6.05887 26.3939C6.04508 26.6851 5.73688 26.8685 5.47618 26.7382L3.59232 25.7967C3.23323 25.6173 3.01517 25.239 3.04699 24.8388C3.74505 16.0611 7.23927 9.71559 9.85805 6.71412Z" fill="black"/>
<path d="M32.9387 23.7251C32.98 24.1118 32.7846 24.4808 32.4477 24.6749L20.3085 31.6695C19.6362 32.0569 18.7936 31.5633 18.7732 30.7876C18.5018 20.4519 14.603 11.1517 11.52 5.71974C11.3869 5.48531 11.5264 5.18666 11.7903 5.13144C27.353 1.87422 32.0417 15.3241 32.9387 23.7251Z" fill="black"/>
<path d="M9.1494 19.8886C9.31657 19.6365 9.68668 19.6856 9.79653 19.9675C10.8735 22.7308 11.4096 25.8606 11.5732 29.1291C11.5883 29.4321 11.271 29.6362 10.9996 29.5004L7.74242 27.8712C7.60422 27.8021 7.51806 27.6594 7.522 27.5049C7.58163 25.166 7.77234 23.4948 8.12988 22.1931C8.37944 21.2848 8.71127 20.5493 9.1494 19.8886Z" fill="black"/>
</svg>
