<svg xmlns="http://www.w3.org/2000/svg" aria-hidden="true">

  <symbol id="icon-arrow-right" viewBox="0 0 7 12" fill="none">
    <path d="M0.75 0.75L5.75 5.75L0.75 10.75" stroke="currentColor" stroke-width="1.5" stroke-linecap="round" stroke-linejoin="round"/>
  </symbol>

  <symbol id="icon-breadcrumb-dot" viewBox="0 0 4 4" fill="none">
    <circle cx="2" cy="2" r="2" fill="currentColor"/>
  </symbol>

  <symbol id="icon-product-color-half" viewBox="0 0 6 6" fill="none">
    <path d="M3 0C2.20435 0 1.44129 0.31607 0.87868 0.87868C0.316071 1.44129 0 2.20435 0 3C0 3.79565 0.31607 4.55871 0.878679 5.12132C1.44129 5.68393 2.20435 6 3 6V3V0Z" fill="currentColor"/>
    <path d="M3 6C3.79565 6 4.55871 5.68393 5.12132 5.12132C5.68393 4.55871 6 3.79565 6 3C6 2.20435 5.68393 1.44129 5.12132 0.87868C4.55871 0.316071 3.79565 0 3 0V3V6Z" fill="white"/>
  </symbol>

  <symbol id="icon-product-ruler" viewBox="0 0 16 16" fill="none">
    <path d="M6.37104 11.7249L5.14301 10.4969M8.21308 9.88287L6.98505 8.65485M10.0551 8.04083L8.8271 6.81281M11.8972 6.19879L10.6691 4.97076M5.28345 13.8796L13.8796 5.28345C14.2188 4.94434 14.2188 4.39454 13.8796 4.05543L11.4125 1.58832C11.0734 1.24921 10.5236 1.24921 10.1845 1.58832L1.58832 10.1845C1.24921 10.5236 1.24921 11.0734 1.58832 11.4125L4.05543 13.8796C4.39454 14.2188 4.94434 14.2188 5.28345 13.8796Z" stroke="currentColor" stroke-linecap="round" stroke-linejoin="round"/>
  </symbol>

  <symbol id="icon-product-bonus" viewBox="0 0 16 16" fill="none">
    <path d="M5.23825 5.09052C5.75495 3.08298 7.57732 1.59961 9.74615 1.59961C12.3168 1.59961 14.4007 3.68352 14.4007 6.25415C14.4007 8.30363 13.0761 10.0437 11.2363 10.665M10.9087 9.74506C10.9087 12.3157 8.82479 14.3996 6.25415 14.3996C3.68352 14.3996 1.59961 12.3157 1.59961 9.74506C1.59961 7.17443 3.68352 5.09052 6.25415 5.09052C8.82479 5.09052 10.9087 7.17443 10.9087 9.74506Z" stroke="currentColor" stroke-width="2" stroke-linecap="round" stroke-linejoin="round"/>
  </symbol>

  <symbol id="icon-product-dolyami" viewBox="0 0 16 16" fill="none">
    <path d="M8 0C12.4183 0 16 3.58172 16 8C16 12.4183 12.4183 16 8 16C3.58172 16 0 12.4183 0 8C0 3.58172 3.58172 0 8 0Z" fill="black"/>
    <path d="M12.4997 4.37695H11.291V10.5062H12.4997V4.37695Z" fill="white"/>
    <path d="M9.90206 4.7207H8.69336V10.8498H9.90206V4.7207Z" fill="white"/>
    <path d="M7.30636 5.10352H6.09766V11.2338H7.30636V5.10352Z" fill="white"/>
    <path d="M4.70868 5.49023H3.5V11.6212H4.70868V5.49023Z" fill="white"/>
  </symbol>

  <symbol id="icon-product-pay-grid" viewBox="0 0 16 16" fill="none">
    <circle cx="4.5" cy="11.5" r="3" fill="currentColor"/>
    <circle cx="11.5" cy="11.5" r="3" fill="currentColor"/>
    <circle cx="4.5" cy="4.5" r="3" fill="currentColor"/>
    <circle cx="11.5" cy="4.5" r="2.5" stroke="currentColor"/>
  </symbol>

  <symbol id="icon-product-tbank" viewBox="0 0 24 24" fill="none">
    <rect width="24" height="24" rx="12" fill="#FFDD2D"/>
    <path fill-rule="evenodd" clip-rule="evenodd" d="M7 7V10.7988C7.47416 10.2122 8.33627 9.81515 9.32198 9.81515H10.3932V14.2312C10.3932 15.406 10.1018 16.4344 9.66947 17H14.3289C13.8975 16.4338 13.6068 15.4067 13.6068 14.2334V9.81515H14.678C15.6637 9.81515 16.5258 10.2122 17 10.7988V7H7Z" fill="#333333"/>
  </symbol>

  <symbol id="icon-heart" viewBox="0 0 20 17" fill="none">
    <path d="M9.6875 15.875C9.6875 15.875 0.75 11.0625 0.75 5.39062C0.75 4.15985 1.23892 2.97949 2.10921 2.10921C2.97949 1.23892 4.15985 0.75 5.39062 0.75C7.33195 0.75 8.99484 1.80789 9.6875 3.5C10.3802 1.80789 12.043 0.75 13.9844 0.75C15.2151 0.75 16.3955 1.23892 17.2658 2.10921C18.1361 2.97949 18.625 4.15985 18.625 5.39062C18.625 11.0625 9.6875 15.875 9.6875 15.875Z" stroke="currentColor" stroke-width="1.5" stroke-linecap="round" stroke-linejoin="round"/>
  </symbol>

  <symbol id="icon-map-pin" viewBox="0 0 12 12" fill="none">
    <path d="M6 6.375C6.82843 6.375 7.5 5.70343 7.5 4.875C7.5 4.04657 6.82843 3.375 6 3.375C5.17157 3.375 4.5 4.04657 4.5 4.875C4.5 5.70343 5.17157 6.375 6 6.375Z" stroke="currentColor" stroke-width="1.2" stroke-linecap="round" stroke-linejoin="round"/>
    <path d="M9.75 4.875C9.75 8.25 6 10.875 6 10.875C6 10.875 2.25 8.25 2.25 4.875C2.25 3.88044 2.64509 2.92661 3.34835 2.22335C4.05161 1.52009 5.00544 1.125 6 1.125C6.99456 1.125 7.94839 1.52009 8.65165 2.22335C9.35491 2.92661 9.75 3.88044 9.75 4.875Z" stroke="currentColor" stroke-width="1.2" stroke-linecap="round" stroke-linejoin="round"/>
  </symbol>

  <symbol id="icon-menu-close" viewBox="0 0 24 24" fill="none">
    <path d="M6.125 6.125L17.875 17.875" stroke="currentColor" stroke-width="2" stroke-linecap="round"/>
    <path d="M17.875 6.125L6.125 17.875" stroke="currentColor" stroke-width="2" stroke-linecap="round"/>
  </symbol>

  <symbol id="icon-menu-location" viewBox="0 0 24 24" fill="none">
    <path d="M16 8C16 9.10457 15.5523 10.1046 14.8284 10.8284C14.1046 11.5523 13.1046 12 12 12C9.79086 12 8 10.2091 8 8C8 5.79086 9.79086 4 12 4C14.2091 4 16 5.79086 16 8Z" stroke="currentColor" stroke-width="2" stroke-linecap="round" stroke-linejoin="round"/>
    <path d="M12 12V20" stroke="currentColor" stroke-width="2" stroke-linejoin="round"/>
  </symbol>

  <symbol id="icon-plus" viewBox="0 0 20 20" fill="none">
    <path d="M3.125 10H16.875" stroke="currentColor" stroke-width="1.5" stroke-linecap="round" stroke-linejoin="round"/>
    <path d="M10 3.125V16.875" stroke="currentColor" stroke-width="1.5" stroke-linecap="round" stroke-linejoin="round"/>
  </symbol>

  <symbol id="icon-share" viewBox="0 0 16 16" fill="none">
    <path d="M13 10V12C13 12.5523 12.5523 13 12 13H4C3.44772 13 3 12.5523 3 12V10" stroke="currentColor" stroke-width="2"/>
    <path d="M5 5L8 3L11 5" stroke="currentColor" stroke-width="2"/>
    <path d="M8 4V10" stroke="currentColor" stroke-width="2"/>
  </symbol>

  <symbol id="icon-search" viewBox="0 0 20 20">
    <path fill-rule="evenodd" clip-rule="evenodd" d="M13.7619 15.176C12.3146 16.3183 10.4869 17 8.5 17C3.80558 17 0 13.1944 0 8.5C0 3.80558 3.80558 0 8.5 0C13.1944 0 17 3.80558 17 8.5C17 10.4868 16.3183 12.3145 15.1761 13.7618L20.0032 18.5889L18.589 20.0031L13.7619 15.176ZM15 8.5C15 12.0899 12.0899 15 8.5 15C4.91015 15 2 12.0899 2 8.5C2 4.91015 4.91015 2 8.5 2C12.0899 2 15 4.91015 15 8.5Z" fill="currentColor"/>
  </symbol>

  <symbol id="icon-tab-cart" viewBox="0 0 24 24" fill="none">
    <path d="M8.25 21.75C9.07843 21.75 9.75 21.0784 9.75 20.25C9.75 19.4216 9.07843 18.75 8.25 18.75C7.42157 18.75 6.75 19.4216 6.75 20.25C6.75 21.0784 7.42157 21.75 8.25 21.75Z" fill="currentColor"/>
    <path d="M18 21.75C18.8284 21.75 19.5 21.0784 19.5 20.25C19.5 19.4216 18.8284 18.75 18 18.75C17.1716 18.75 16.5 19.4216 16.5 20.25C16.5 21.0784 17.1716 21.75 18 21.75Z" fill="currentColor"/>
    <path d="M1.5 3H3.75L7.19531 15.4012C7.28299 15.7171 7.47171 15.9955 7.73261 16.1939C7.99351 16.3924 8.31222 16.4999 8.64 16.5H17.9062C18.2342 16.5001 18.5531 16.3927 18.8142 16.1942C19.0753 15.9958 19.2642 15.7172 19.3519 15.4012L21.75 6.75H4.79156" stroke="currentColor" stroke-width="1.5" stroke-linecap="round" stroke-linejoin="round"/>
  </symbol>

  <symbol id="icon-tab-catalog" viewBox="0 0 24 24" fill="none">
    <path d="M3.75 6H20.25" stroke="currentColor" stroke-width="1.5" stroke-linecap="round" stroke-linejoin="round"/>
    <path d="M3.75 12H10.5" stroke="currentColor" stroke-width="1.5" stroke-linecap="round" stroke-linejoin="round"/>
    <path d="M3.75 18H12" stroke="currentColor" stroke-width="1.5" stroke-linecap="round" stroke-linejoin="round"/>
    <path d="M17.25 16.5C18.9069 16.5 20.25 15.1569 20.25 13.5C20.25 11.8431 18.9069 10.5 17.25 10.5C15.5931 10.5 14.25 11.8431 14.25 13.5C14.25 15.1569 15.5931 16.5 17.25 16.5Z" stroke="currentColor" stroke-width="1.5" stroke-linecap="round" stroke-linejoin="round"/>
    <path d="M19.3716 15.6216L21.75 18" stroke="currentColor" stroke-width="1.5" stroke-linecap="round" stroke-linejoin="round"/>
  </symbol>

  <symbol id="icon-tab-heart" viewBox="0 0 24 24" fill="none">
    <path d="M12 21C12 21 2.25 15.75 2.25 9.5625C2.25 8.21984 2.78337 6.93217 3.73277 5.98277C4.68217 5.03337 5.96984 4.5 7.3125 4.5C9.43031 4.5 11.2444 5.65406 12 7.5C12.7556 5.65406 14.5697 4.5 16.6875 4.5C18.0302 4.5 19.3178 5.03337 20.2672 5.98277C21.2166 6.93217 21.75 8.21984 21.75 9.5625C21.75 15.75 12 21 12 21Z" stroke="currentColor" stroke-width="1.5" stroke-linecap="round" stroke-linejoin="round"/>
  </symbol>

  <symbol id="icon-tab-home" viewBox="6.5 4 31.3 17">
    <path d="M22.5955 4.01726C25.7753 3.98247 29.0077 4.01279 32.1917 4.01155L35.6174 4.0108C36.2983 4.01084 37.1059 3.99142 37.7721 4.04315C37.6611 4.42471 37.1785 5.09039 36.9495 5.45758C36.2806 6.53009 35.6142 7.5116 34.9701 8.60457C32.6904 8.67415 30.2705 8.56613 27.9799 8.61119C27.0894 8.62871 26.0096 8.56779 25.1439 8.63095L24.2283 10.1858C26.0278 10.2374 27.847 10.1741 29.6483 10.2002C29.9039 10.204 30.795 10.1612 30.9609 10.3249C30.9568 10.5195 29.2144 13.1722 28.9649 13.5553C28.6771 14.0135 28.4492 14.4149 28.1901 14.8905C25.953 14.8989 23.3669 14.8217 21.1619 14.9018L18.449 19.1863C18.0329 19.8309 17.7629 20.4811 17.1876 20.9999C16.5245 19.9776 15.8459 18.971 15.2203 17.9259C14.9846 17.5321 14.6873 17.1682 14.4771 16.7565C14.9537 16.1068 15.233 15.6118 15.6521 14.9392L17.0231 12.7783L22.5955 4.01726Z" fill="currentColor"/>
    <path d="M6.50027 4.03446C7.12996 3.97387 8.32795 4.0116 9.00912 4.01172L13.8607 4.01288L18.2015 4.00994C18.8042 4.00973 20.0589 3.97755 20.6188 4.06701C20.5261 4.27231 20.4253 4.45818 20.2968 4.64294C19.776 5.39149 19.3391 6.20548 18.8284 6.9566C18.4221 7.49985 18.1697 8.0682 17.7694 8.60482C16.863 8.63746 15.779 8.61066 14.8589 8.6105L9.29298 8.60913C8.95892 8.14204 8.50964 7.34951 8.18743 6.86213C7.9468 6.49812 6.47716 4.27144 6.50027 4.03446Z" fill="currentColor"/>
  </symbol>

  <symbol id="icon-tab-user" viewBox="0 0 24 24" fill="none">
    <path d="M16 13C18.7614 13 21 15.2386 21 18C21 19.6569 19.6569 21 18 21H6C4.34315 21 3 19.6569 3 18C3 15.2386 5.23858 13 8 13H16ZM12 3C14.2091 3 16 4.79086 16 7C16 9.20914 14.2091 11 12 11C9.79086 11 8 9.20914 8 7C8 4.79086 9.79086 3 12 3Z" fill="currentColor"/>
  </symbol>

  <symbol id="icon-tab-menu" viewBox="0 0 24 24" fill="none">
    <path fill-rule="evenodd" clip-rule="evenodd" d="M4.28571 7C3.94472 7 3.6177 7.1317 3.37658 7.36612C3.13546 7.60054 3 7.91848 3 8.25C3 8.58152 3.13546 8.89946 3.37658 9.13388C3.6177 9.3683 3.94472 9.5 4.28571 9.5H19.7143C20.0553 9.5 20.3823 9.3683 20.6234 9.13388C20.8645 8.89946 21 8.58152 21 8.25C21 7.91848 20.8645 7.60054 20.6234 7.36612C20.3823 7.1317 20.0553 7 19.7143 7H4.28571ZM4.28571 14.5C3.94472 14.5 3.6177 14.6317 3.37658 14.8661C3.13546 15.1005 3 15.4185 3 15.75C3 16.0815 3.13546 16.3995 3.37658 16.6339C3.6177 16.8683 3.94472 17 4.28571 17H19.7143C20.0553 17 20.3823 16.8683 20.6234 16.6339C20.8645 16.3995 21 16.0815 21 15.75C21 15.4185 20.8645 15.1005 20.6234 14.8661C20.3823 14.6317 20.0553 14.5 19.7143 14.5H4.28571Z" fill="currentColor"/>
  </symbol>

  <symbol id="icon-tab-bookmark" viewBox="0 0 24 24" fill="none">
    <path d="M16 3H8C7.46957 3 6.96086 3.21071 6.58579 3.58579C6.21071 3.96086 6 4.46957 6 5V21L12 18L18 21V5C18 4.46957 17.7893 3.96086 17.4142 3.58579C17.0391 3.21071 16.5304 3 16 3Z" fill="currentColor"/>
  </symbol>

  <symbol id="icon-clock" viewBox="0 0 16 16" fill="none">
    <path d="M8 14C11.3137 14 14 11.3137 14 8C14 4.68629 11.3137 2 8 2C4.68629 2 2 4.68629 2 8C2 11.3137 4.68629 14 8 14Z" stroke="currentColor" stroke-width="1.5" stroke-linecap="round" stroke-linejoin="round"/>
    <path d="M8 4.5V8H11.5" stroke="currentColor" stroke-width="1.5" stroke-linecap="round" stroke-linejoin="round"/>
  </symbol>

  <symbol id="icon-eye" viewBox="0 0 16 16" fill="none">
    <path d="M8 3.5C3 3.5 1 8 1 8C1 8 3 12.5 8 12.5C13 12.5 15 8 15 8C15 8 13 3.5 8 3.5Z" stroke="currentColor" stroke-width="1.5" stroke-linecap="round" stroke-linejoin="round"/>
    <path d="M8 10.5C9.38071 10.5 10.5 9.38071 10.5 8C10.5 6.61929 9.38071 5.5 8 5.5C6.61929 5.5 5.5 6.61929 5.5 8C5.5 9.38071 6.61929 10.5 8 10.5Z" stroke="currentColor" stroke-width="1.5" stroke-linecap="round" stroke-linejoin="round"/>
  </symbol>

  <symbol id="icon-thumbs-up" viewBox="0 0 16 16" fill="none">
    <path d="M2 6.5H5V13H2C1.86739 13 1.74021 12.9473 1.64645 12.8536C1.55268 12.7598 1.5 12.6326 1.5 12.5V7C1.5 6.86739 1.55268 6.74021 1.64645 6.64645C1.74021 6.55268 1.86739 6.5 2 6.5Z" stroke="currentColor" stroke-width="1.5" stroke-linecap="round" stroke-linejoin="round"/>
    <path d="M5 6.5L7.5 1.5C8.03043 1.5 8.53914 1.71071 8.91421 2.08579C9.28929 2.46086 9.5 2.96957 9.5 3.5V5H13.5C13.6419 5.00004 13.7821 5.03026 13.9113 5.08865C14.0406 5.14704 14.156 5.23227 14.2498 5.33867C14.3436 5.44507 14.4137 5.57021 14.4555 5.70579C14.4972 5.84136 14.5096 5.98426 14.4919 6.125L13.7419 12.125C13.7114 12.3666 13.5939 12.5888 13.4113 12.7499C13.2286 12.911 12.9935 12.9999 12.75 13H5" stroke="currentColor" stroke-width="1.5" stroke-linecap="round" stroke-linejoin="round"/>
  </symbol>

  <symbol id="icon-vk" viewBox="0 0 48 48" fill="none">
    <path d="M25.3218 31C17.1219 31 12.4449 25.7447 12.25 17H16.3574C16.4924 23.4184 19.5204 26.1371 21.9189 26.6977V17H25.7866V22.5355C28.1551 22.2973 30.6432 19.7748 31.4827 17H35.3504C34.7058 20.4194 32.0075 22.9419 30.0887 23.9789C32.0075 24.8198 35.0807 27.02 36.25 31H31.9925C31.0781 28.3373 28.7997 26.2773 25.7866 25.997V31H25.3218Z" fill="currentColor"/>
  </symbol>

  <symbol id="icon-tg" viewBox="0 0 48 48" fill="none">
    <path d="M15.1448 23.8101C20.3914 21.5241 23.8904 20.0168 25.6418 19.2881C30.6408 17.2091 31.6788 16.8481 32.3558 16.8361C32.5058 16.8331 32.8378 16.8701 33.0538 17.0461C33.2358 17.1931 33.2858 17.3931 33.3098 17.5331C33.3338 17.6731 33.3638 17.9921 33.3398 18.2411C33.0698 21.0881 31.8968 27.9951 31.2998 31.1831C31.0478 32.5311 30.5518 32.9831 30.0698 33.0281C29.0248 33.1241 28.2318 32.3381 27.2198 31.6741C25.6348 30.6351 24.7398 29.9881 23.2018 28.9751C21.4248 27.8041 22.5768 27.1601 23.5898 26.1081C23.8548 25.8331 28.4598 21.6441 28.5498 21.2641C28.5598 21.2161 28.5708 21.0391 28.4658 20.9461C28.3608 20.8521 28.2058 20.8841 28.0928 20.9101C27.9334 20.9461 25.4028 22.6188 20.5008 25.9281C19.7814 26.4214 19.1308 26.6618 18.5488 26.6491C17.9058 26.6351 16.6688 26.2861 15.7508 25.9871C14.6228 25.6201 13.7268 25.4271 13.8048 24.8041C13.8454 24.4801 14.2921 24.1488 15.1448 23.8101Z" fill="currentColor"/>
  </symbol>

  <symbol id="icon-whatsapp" viewBox="0 0 12 12" fill="none">
    <path d="M0 12L0.847526 8.9185C0.324541 8.0165 0.0497362 6.994 0.0502386 5.9455C0.0517458 2.6675 2.73198 0 6.02512 0C7.62321 0.0005 9.12333 0.62 10.2517 1.744C11.3796 2.868 12.0005 4.362 12 5.951C11.9985 9.2295 9.31826 11.897 6.02512 11.897C5.02537 11.8965 4.04019 11.647 3.16755 11.173L0 12ZM3.31424 10.0965C4.15624 10.594 4.96006 10.892 6.02311 10.8925C8.76011 10.8925 10.9897 8.6755 10.9912 5.95C10.9922 3.219 8.77317 1.005 6.02713 1.004C3.28812 1.004 1.06004 3.221 1.05903 5.946C1.05853 7.0585 1.38608 7.8915 1.9362 8.763L1.43431 10.587L3.31424 10.0965ZM9.03491 7.3645C8.99774 7.3025 8.89827 7.2655 8.74856 7.191C8.59935 7.1165 7.86536 6.757 7.72821 6.7075C7.59156 6.658 7.49209 6.633 7.39211 6.782C7.29264 6.9305 7.00628 7.2655 6.91937 7.3645C6.83245 7.4635 6.74504 7.476 6.59583 7.4015C6.44662 7.327 5.96533 7.1705 5.39513 6.664C4.95152 6.27 4.65159 5.7835 4.56468 5.6345C4.47777 5.486 4.55564 5.4055 4.62999 5.3315C4.69731 5.265 4.7792 5.158 4.85406 5.071C4.92992 4.985 4.95453 4.923 5.00477 4.8235C5.05451 4.7245 5.02989 4.6375 4.99221 4.563C4.95453 4.489 4.65612 3.7575 4.53203 3.46C4.41045 3.1705 4.28736 3.2095 4.19593 3.205L3.90957 3.2C3.8101 3.2 3.64833 3.237 3.51168 3.386C3.37503 3.535 2.9892 3.894 2.9892 4.6255C2.9892 5.357 3.52424 6.0635 3.59859 6.1625C3.67345 6.2615 4.65109 7.7625 6.14871 8.406C6.5049 8.559 6.78322 8.6505 6.99975 8.719C7.35745 8.832 7.68299 8.816 7.94022 8.778C8.22708 8.7355 8.82341 8.4185 8.948 8.0715C9.07259 7.724 9.07259 7.4265 9.03491 7.3645Z" fill="currentColor"/>
  </symbol>

  <symbol id="icon-menu-tg" viewBox="0 0 12 12" fill="none">
    <path fill-rule="evenodd" clip-rule="evenodd" d="M0.824937 5.30493C4.04616 3.8937 6.19414 2.96333 7.26889 2.51383C10.3375 1.23039 10.9751 1.00744 11.3907 1.00008C11.4822 0.998459 11.6865 1.02124 11.8189 1.12926C11.9307 1.22047 11.9615 1.34368 11.9762 1.43016C11.9909 1.51664 12.0092 1.71364 11.9947 1.86757C11.8284 3.6245 11.1088 7.8881 10.7428 9.8559C10.5879 10.6885 10.2829 10.9677 9.98764 10.995C9.34596 11.0544 8.8587 10.5686 8.2372 10.159C7.26468 9.51792 6.71527 9.11887 5.77127 8.49333C4.68032 7.77042 5.38754 7.37309 6.00927 6.72375C6.17198 6.55381 8.99923 3.96792 9.05395 3.73334C9.06079 3.704 9.06715 3.59464 9.00254 3.5369C8.93793 3.47915 8.84257 3.4989 8.77376 3.5146C8.67622 3.53687 7.1226 4.56945 4.11292 6.61236C3.67193 6.91686 3.2725 7.06522 2.91462 7.05745C2.52009 7.04887 1.76117 6.83313 1.19699 6.64872C0.504996 6.42253 -0.0449838 6.30294 0.00290711 5.91881C0.0278516 5.71872 0.301862 5.5141 0.824937 5.30493Z" fill="currentColor"/>
  </symbol>

  <symbol id="icon-menu-dzen" viewBox="0 0 12 12" fill="none">
    <path fill-rule="evenodd" clip-rule="evenodd" d="M6.12892 11.9658C4.95127 11.9658 4.40399 11.7931 3.45272 11.1024C2.85099 11.8794 0.945564 12.4866 0.862461 11.4478C0.862461 10.6679 0.69054 10.0089 0.495697 9.28944C0.263612 8.40308 0 7.416 0 5.98576C0 2.56985 2.79083 0 6.0974 0C9.40684 0 12 2.69647 12 6.01741C12.0111 9.28699 9.38434 11.9483 6.12892 11.9658ZM6.17763 2.95258C4.56733 2.86914 3.31231 3.98859 3.03438 5.74403C2.80515 7.19731 3.21203 8.96712 3.55873 9.05921C3.72492 9.0995 4.14326 8.75992 4.40399 8.49805C4.83515 8.7972 5.33723 8.97686 5.85959 9.01892C7.52813 9.09953 8.95385 7.82375 9.06587 6.1498C9.13109 4.4723 7.84641 3.05147 6.17763 2.95547V2.95258Z" fill="currentColor"/>
  </symbol>

  <symbol id="icon-dzen" viewBox="0 0 48 48" fill="none">
    <path d="M36 23.7629C36 23.6429 35.9025 23.5436 35.7825 23.5379C31.4769 23.3748 28.8566 22.8256 27.0235 20.9923C25.1865 19.1552 24.6391 16.5327 24.4761 12.2174C24.4723 12.0975 24.373 12 24.2511 12H23.7488C23.6288 12 23.5295 12.0975 23.5239 12.2174C23.3608 16.5308 22.8135 19.1552 20.9765 20.9923C19.1415 22.8275 16.5229 23.3748 12.2174 23.5379C12.0975 23.5417 12 23.641 12 23.7629V24.2653C12 24.3852 12.0975 24.4846 12.2174 24.4902C16.5229 24.6533 19.1434 25.2025 20.9765 27.0359C22.8097 28.8692 23.357 31.4843 23.522 35.7825C23.5257 35.9025 23.6251 36 23.7469 36H24.2511C24.3711 36 24.4704 35.9025 24.4761 35.7825C24.641 31.4843 25.1883 28.8692 27.0216 27.0359C28.8566 25.2007 31.4751 24.6533 35.7806 24.4902C35.9006 24.4865 35.9981 24.3871 35.9981 24.2653V23.7629H36Z" fill="currentColor"/>
  </symbol>

  <symbol id="icon-yt" viewBox="0 0 48 48" fill="none">
    <path fill-rule="evenodd" clip-rule="evenodd" d="M33.3767 16.1108C34.4093 16.3868 35.2224 17.2001 35.4984 18.2325C36 20.1044 36 24.0092 36 24.0092C36 24.0092 36 27.9143 35.4984 29.7859C35.2224 30.8184 34.4093 31.6319 33.3767 31.9077C31.505 32.4093 23.9999 32.4093 23.9999 32.4093C23.9999 32.4093 16.495 32.4093 14.6233 31.9077C13.5907 31.6319 12.7776 30.8184 12.5016 29.7859C12 27.9143 12 24.0092 12 24.0092C12 24.0092 12 20.1044 12.5016 18.2325C12.7776 17.2001 13.5907 16.3868 14.6233 16.1108C16.495 15.6094 23.9999 15.6094 23.9999 15.6094C23.9999 15.6094 31.505 15.6094 33.3767 16.1108ZM27.8351 24.0094L21.6 27.6093V20.4092L27.8351 24.0094Z" fill="currentColor"/>
  </symbol>

  <!-- ─── Navbar desktop icons ─────────────────────────────────── -->

  <symbol id="icon-user" viewBox="0 0 22 22" fill="none">
    <path d="M11 13.75C14.0376 13.75 16.5 11.2876 16.5 8.25C16.5 5.21243 14.0376 2.75 11 2.75C7.96243 2.75 5.5 5.21243 5.5 8.25C5.5 11.2876 7.96243 13.75 11 13.75Z" stroke="currentColor" stroke-width="1.5" stroke-linecap="round" stroke-linejoin="round"/>
    <path d="M2.75 18.5625C4.41461 15.6862 7.43789 13.75 11 13.75C14.5621 13.75 17.5854 15.6862 19.25 18.5625" stroke="currentColor" stroke-width="1.5" stroke-linecap="round" stroke-linejoin="round"/>
  </symbol>

  <!-- viewBox crop: icons live in 12–34 area within 46×46 source file -->
  <symbol id="icon-compare" viewBox="12 12 22 22" fill="none">
    <path d="M23.9167 15.6666H17.5C17.0138 15.6666 16.5475 15.8597 16.2037 16.2036C15.8598 16.5474 15.6667 17.0137 15.6667 17.4999V28.4999C15.6667 28.9861 15.8598 29.4525 16.2037 29.7963C16.5475 30.1401 17.0138 30.3333 17.5 30.3333H23.9167M27.5834 15.6666H28.5C28.9863 15.6666 29.4526 15.8597 29.7964 16.2036C30.1402 16.5474 30.3334 17.0137 30.3334 17.4999V18.4166M30.3334 27.5833V28.4999C30.3334 28.9861 30.1402 29.4525 29.7964 29.7963C29.4526 30.1401 28.9863 30.3333 28.5 30.3333H27.5834M30.3334 22.0833V23.9166M23 13.8333V32.1666" stroke="currentColor" stroke-width="1.5" stroke-linecap="round" stroke-linejoin="round"/>
  </symbol>

  <symbol id="icon-nav-heart" viewBox="12 12 22 22" fill="none">
    <path d="M23 31.25C23 31.25 14.0625 26.4375 14.0625 20.7656C14.0625 19.5349 14.5514 18.3545 15.4217 17.4842C16.292 16.6139 17.4724 16.125 18.7031 16.125C20.6445 16.125 22.3073 17.1829 23 18.875C23.6927 17.1829 25.3555 16.125 27.2969 16.125C28.5276 16.125 29.708 16.6139 30.5783 17.4842C31.4486 18.3545 31.9375 19.5349 31.9375 20.7656C31.9375 26.4375 23 31.25 23 31.25Z" stroke="currentColor" stroke-width="1.5" stroke-linecap="round" stroke-linejoin="round"/>
  </symbol>

  <symbol id="icon-nav-cart" viewBox="12 12 22 22" fill="none">
    <path d="M19.5625 31.9375C20.3219 31.9375 20.9375 31.3219 20.9375 30.5625C20.9375 29.8031 20.3219 29.1875 19.5625 29.1875C18.8031 29.1875 18.1875 29.8031 18.1875 30.5625C18.1875 31.3219 18.8031 31.9375 19.5625 31.9375Z" fill="currentColor"/>
    <path d="M28.5 31.9375C29.2594 31.9375 29.875 31.3219 29.875 30.5625C29.875 29.8031 29.2594 29.1875 28.5 29.1875C27.7406 29.1875 27.125 29.8031 27.125 30.5625C27.125 31.3219 27.7406 31.9375 28.5 31.9375Z" fill="currentColor"/>
    <path d="M13.375 14.75H15.4375L18.5957 26.1178C18.6761 26.4073 18.8491 26.6625 19.0882 26.8444C19.3274 27.0263 19.6195 27.1249 19.92 27.125H28.4141C28.7147 27.1251 29.007 27.0266 29.2464 26.8447C29.4857 26.6628 29.6588 26.4075 29.7392 26.1178L31.9375 18.1875H16.3923" stroke="currentColor" stroke-width="1.5" stroke-linecap="round" stroke-linejoin="round"/>
  </symbol>

  <!-- viewBox crop: icon lives in 13–33 area within 46×46 source file -->
  <symbol id="icon-location-btn" viewBox="13 13 20 20" fill="none">
    <path d="M30.5 21.3333C30.5 27.1666 23 32.1666 23 32.1666C23 32.1666 15.5 27.1666 15.5 21.3333C15.5 19.3441 16.2902 17.4365 17.6967 16.03C19.1032 14.6234 21.0109 13.8333 23 13.8333C24.9891 13.8333 26.8968 14.6234 28.3033 16.03C29.7098 17.4365 30.5 19.3441 30.5 21.3333Z" stroke="currentColor" stroke-width="2" stroke-linecap="round" stroke-linejoin="round"/>
    <path d="M23 23.8333C24.3807 23.8333 25.5 22.714 25.5 21.3333C25.5 19.9525 24.3807 18.8333 23 18.8333C21.6193 18.8333 20.5 19.9525 20.5 21.3333C20.5 22.714 21.6193 23.8333 23 23.8333Z" stroke="currentColor" stroke-width="2" stroke-linecap="round" stroke-linejoin="round"/>
  </symbol>

  <!-- ─── Hero slider arrows ────────────────────────────────────── -->

  <symbol id="icon-arrow-slider-left" viewBox="0 0 22 22" fill="none">
    <path d="M18.5625 11H3.4375" stroke="currentColor" stroke-width="1.5" stroke-linecap="round" stroke-linejoin="round"/>
    <path d="M9.625 4.8125L3.4375 11L9.625 17.1875" stroke="currentColor" stroke-width="1.5" stroke-linecap="round" stroke-linejoin="round"/>
  </symbol>

  <symbol id="icon-arrow-slider-right" viewBox="0 0 22 22" fill="none">
    <path d="M3.4375 11H18.5625" stroke="currentColor" stroke-width="1.5" stroke-linecap="round" stroke-linejoin="round"/>
    <path d="M12.375 4.8125L18.5625 11L12.375 17.1875" stroke="currentColor" stroke-width="1.5" stroke-linecap="round" stroke-linejoin="round"/>
  </symbol>

  <!-- ─── New hero desktop icons from Figma ────────────────────── -->

  <symbol id="icon-hero-menu" viewBox="0 0 32 32" fill="none">
    <path d="M16 4.9233L16 27.0771" stroke="currentColor" stroke-width="2" stroke-linejoin="round"/>
    <path d="M27.0769 16.0002H4.9231" stroke="currentColor" stroke-width="2" stroke-linejoin="round"/>
  </symbol>

  <symbol id="icon-hero-search" viewBox="0 0 24 24" fill="none">
    <path d="M11 2C15.9706 2 20 6.02944 20 11C20 13.1245 19.2602 15.0761 18.0293 16.6152L21.707 20.293C22.0976 20.6835 22.0976 21.3165 21.707 21.707C21.3165 22.0976 20.6835 22.0976 20.293 21.707L16.6152 18.0293C15.0761 19.2602 13.1245 20 11 20C6.02944 20 2 15.9706 2 11C2 6.02944 6.02944 2 11 2ZM11 5C7.68629 5 5 7.68629 5 11C5 14.3137 7.68629 17 11 17C12.6571 17 14.1553 16.3291 15.2422 15.2422C16.3291 14.1553 17 12.6571 17 11C17 7.68629 14.3137 5 11 5Z" fill="currentColor"/>
  </symbol>

  <symbol id="icon-hero-profile" viewBox="0 0 24 24" fill="none">
    <path d="M16 13C18.7614 13 21 15.2386 21 18C21 19.6569 19.6569 21 18 21H6C4.34315 21 3 19.6569 3 18C3 15.2386 5.23858 13 8 13H16ZM12 3C14.2091 3 16 4.79086 16 7C16 9.20914 14.2091 11 12 11C9.79086 11 8 9.20914 8 7C8 4.79086 9.79086 3 12 3Z" fill="currentColor"/>
  </symbol>

  <symbol id="icon-hero-heart" viewBox="0 0 24 24" fill="none">
    <path d="M16 3H8C7.46957 3 6.96086 3.21071 6.58579 3.58579C6.21071 3.96086 6 4.46957 6 5V21L12 18L18 21V5C18 4.46957 17.7893 3.96086 17.4142 3.58579C17.0391 3.21071 16.5304 3 16 3Z" fill="currentColor" stroke="currentColor" stroke-width="2" stroke-linecap="round" stroke-linejoin="round"/>
  </symbol>

  <symbol id="icon-hero-bag" viewBox="0 0 24 24" fill="none">
    <path fill-rule="evenodd" clip-rule="evenodd" d="M12.0002 3C14.7616 3 17.0002 5.23858 17.0002 8H20.0002C20.281 8 20.549 8.11793 20.7385 8.3252C20.9279 8.53266 21.0217 8.81101 20.9963 9.09082L20.1613 18.2715C20.0209 19.8166 18.7255 20.9999 17.174 21H6.82636C5.27487 20.9999 3.97953 19.8166 3.83906 18.2715L3.0041 9.09082C2.97866 8.81101 3.07245 8.53266 3.26191 8.3252C3.45136 8.11793 3.71938 8 4.00019 8H7.00019C7.00019 5.23858 9.23877 3 12.0002 3ZM12.0002 5C10.3433 5 9.00019 6.34315 9.00019 8H15.0002C15.0002 6.34315 13.657 5 12.0002 5Z" fill="currentColor"/>
  </symbol>

  <symbol id="icon-hero-card-cart" viewBox="0 0 16 16" fill="none">
    <path fill-rule="evenodd" clip-rule="evenodd" d="M7.9998 2C9.84038 2.00018 11.3325 3.49247 11.3328 5.33301H13.3338C13.5209 5.33319 13.6998 5.41263 13.826 5.55078C13.952 5.68904 14.0148 5.87423 13.9978 6.06055L13.4412 12.1807C13.3476 13.2107 12.4833 13.9998 11.449 14H4.55156C3.51716 14 2.65303 13.2108 2.55937 12.1807L2.00273 6.06055C1.98578 5.87407 2.04838 5.68908 2.1746 5.55078C2.3009 5.41257 2.47956 5.33301 2.66679 5.33301H4.66581C4.66617 3.49247 6.15922 2.00018 7.9998 2ZM7.9998 3.33398C6.8956 3.33416 6.00015 4.22885 5.9998 5.33301H9.9998C9.99945 4.22885 9.104 3.33416 7.9998 3.33398Z" fill="currentColor"/>
  </symbol>

  <symbol id="icon-hero-arrow-left" viewBox="0 0 16 16" fill="none">
    <path d="M14 7.99967H2M6.66667 12.6663L2 7.99967L6.66667 3.33301" stroke="currentColor" stroke-width="2" stroke-linejoin="round"/>
  </symbol>

  <symbol id="icon-hero-arrow-right" viewBox="0 0 16 16" fill="none">
    <path d="M2 7.99967H14M9.33333 12.6663L14 7.99967L9.33333 3.33301" stroke="currentColor" stroke-width="2" stroke-linejoin="round"/>
  </symbol>

  <symbol id="icon-hero-pagination-active" viewBox="0 0 17 18" fill="none">
    <path d="M8 1C9.31561 1 10.6109 1.32446 11.7712 1.94463C12.9314 2.5648 13.9208 3.46155 14.6518 4.55544C15.3827 5.64933 15.8325 6.90659 15.9615 8.21586C16.0904 9.52513 15.8945 10.846 15.391 12.0615C14.8876 13.2769 14.0921 14.3495 13.0751 15.1841C12.0582 16.0187 10.8511 16.5896 9.56072 16.8463C8.2704 17.1029 6.93668 17.0374 5.67772 16.6555C4.41877 16.2736 3.27342 15.5871 2.34315 14.6569" stroke="currentColor" stroke-width="2"/>
    <circle cx="8" cy="9" r="4" fill="currentColor"/>
  </symbol>

  <symbol id="icon-hero-pagination-dot" viewBox="0 0 16 16" fill="none">
    <circle cx="8" cy="8" r="4" fill="currentColor" fill-opacity="0.6"/>
  </symbol>


  <!-- Login bonus icons from Figma -->

  <symbol id="icon-login-yandex" viewBox="0 0 24 24" fill="none">
    <path fill-rule="evenodd" clip-rule="evenodd" d="M22 12.0002C22 17.5224 17.5224 22 11.9998 22C6.47762 22 2 17.5224 2 12.0002C2 6.47762 6.47762 2 11.9998 2C17.5224 2 22 6.47762 22 12.0002Z" fill="white"/>
    <path fill-rule="evenodd" clip-rule="evenodd" d="M13.5537 18.1337H15.7415V5.64014H12.5709C9.38105 5.64014 7.70707 7.2735 7.70707 9.68584C7.70562 11.5879 8.63762 12.7557 10.263 13.9081L7.4126 18.1337H9.77634L12.9484 13.3997L11.8438 12.6661C10.5118 11.7682 9.85938 11.0704 9.85938 9.5571C9.85938 8.22654 10.7965 7.32899 12.5789 7.32899H13.5537V18.1337Z" fill="#1F1F1F"/>
  </symbol>

  <symbol id="icon-login-sber" viewBox="0 0 24 24" fill="none">
    <path fill-rule="evenodd" clip-rule="evenodd" d="M10.6768 2.05857C10.1447 2.12455 8.92932 2.4529 8.29146 2.70304C4.04942 4.36623 1.40533 8.95465 2.11471 13.4218C2.2439 14.2353 2.48425 15.1426 2.69818 15.6238C2.99333 16.2881 3.49678 17.2373 3.71471 17.5404C4.3608 18.4392 5.37448 19.4926 5.51174 19.4078C5.56973 19.3719 5.58229 19.3866 5.5451 19.4467C5.47545 19.5595 5.65716 19.7256 6.39509 20.2237C8.13258 21.3968 10.0253 21.9842 12.0694 21.985C16.8211 21.9868 20.9395 18.5565 21.8606 13.8296C22.0691 12.7596 22.0359 10.241 21.8132 10.241C21.7761 10.241 21.292 10.5751 20.7377 10.9835L19.7297 11.7259L19.6294 12.635C19.419 14.5426 18.7462 16.0171 17.509 17.2824C15.9591 18.8675 14.1792 19.6201 11.9802 19.6201C10.5262 19.6201 9.45919 19.3578 8.27678 18.7095C7.49195 18.2792 7.1322 18.0026 6.49426 17.3394C5.57046 16.379 4.94671 15.2737 4.58256 13.9519C4.33715 13.0611 4.29931 11.4583 4.50084 10.4849C5.09302 7.62371 7.22942 5.36865 10.0785 4.59745C10.6351 4.44681 10.9729 4.41305 11.941 4.41158C13.4818 4.40913 14.1836 4.56646 15.4437 5.19681L16.3775 5.66389L17.2787 5.00638C17.7745 4.64475 18.2119 4.31975 18.2507 4.2841C18.3577 4.18632 17.3815 3.50328 16.5082 3.06474C15.0212 2.31817 13.622 1.99618 11.9507 2.016C11.3847 2.02268 10.8114 2.04185 10.6768 2.05857ZM18.9549 6.56069C18.4839 6.91147 17.0342 7.9811 15.7334 8.9376C14.4326 9.8941 13.0794 10.8906 12.7265 11.1521C12.3735 11.4136 12.0488 11.6275 12.0048 11.6275C11.9225 11.6275 11.2855 11.2409 9.45348 10.0787C8.87035 9.70881 8.3474 9.3882 8.29129 9.36627C8.21194 9.33527 8.19016 9.64976 8.19294 10.7828L8.19652 12.2392L10.0312 13.381C11.0403 14.009 11.9104 14.5329 11.9648 14.5453C12.0615 14.5673 12.5568 14.2194 15.0121 12.4048C15.6779 11.9126 17.2687 10.7422 18.5471 9.8039C19.8255 8.8655 20.9342 8.04349 21.011 7.97718C21.142 7.86382 21.1402 7.83633 20.9794 7.51956C20.6755 6.92093 20.0022 5.91843 19.9054 5.92071C19.8536 5.92186 19.4259 6.20984 18.9549 6.56069Z" fill="white"/>
  </symbol>

  <symbol id="icon-login-vk" viewBox="0 0 24 24" fill="none">
    <g transform="translate(2 2)">
      <path d="M9.5896 20H10.4224C14.9432 20 17.204 20 18.608 18.596C20.012 17.192 20 14.932 20 10.4224V9.5776C20 5.0688 20 2.80801 18.608 1.40401C17.216 4.05312e-06 14.9432 0 10.4224 0H9.5896C5.068 0 2.808 4.05312e-06 1.404 1.40401C-8.34465e-07 2.80801 0 5.0672 0 9.5776V10.4224C0 14.932 -8.34465e-07 17.192 1.404 18.596C2.808 20 5.068 20 9.5896 20Z" fill="white"/>
      <path d="M5.18286 6.5918C5.39191 10.2227 7.13171 11.9627 8.68384 12.3477L9.30396 12.501V6.5918H10.4934V9.94531L11.0491 9.88379C11.8548 9.79433 12.6152 9.29429 13.2141 8.64551C13.7373 8.0787 14.1725 7.36051 14.4417 6.5918H15.5969C15.1322 8.1529 13.9698 9.31168 13.1282 9.81445L12.3313 10.29L13.1672 10.6943C14.0106 11.1017 15.343 12.121 16.0364 13.9199H14.7131C14.1019 12.3564 12.7993 11.1262 11.0442 10.9482L10.4934 10.8926V13.9141C8.47578 13.8611 6.88976 13.1357 5.77954 11.875C4.69758 10.6464 4.02721 8.86542 3.89868 6.5918H5.18286Z" fill="#1F1F1F" stroke="#1F1F1F"/>
    </g>
  </symbol>

  <symbol id="icon-login-yandex-color" viewBox="0 0 24 24" fill="none">
    <path fill-rule="evenodd" clip-rule="evenodd" d="M22 12.0002C22 17.5224 17.5224 22 11.9998 22C6.47762 22 2 17.5224 2 12.0002C2 6.47762 6.47762 2 11.9998 2C17.5224 2 22 6.47762 22 12.0002Z" fill="#FC3F1D"/>
    <path fill-rule="evenodd" clip-rule="evenodd" d="M13.5537 18.1337H15.7415V5.64014H12.5709C9.38105 5.64014 7.70707 7.2735 7.70707 9.68584C7.70562 11.5879 8.63762 12.7557 10.263 13.9081L7.4126 18.1337H9.77634L12.9484 13.3997L11.8438 12.6661C10.5118 11.7682 9.85938 11.0704 9.85938 9.5571C9.85938 8.22654 10.7965 7.32899 12.5789 7.32899H13.5537V18.1337Z" fill="white"/>
  </symbol>

  <symbol id="icon-login-sber-color" viewBox="0 0 24 24" fill="none">
    <path fill-rule="evenodd" clip-rule="evenodd" d="M10.6768 2.05857C10.1447 2.12455 8.92932 2.4529 8.29146 2.70304C4.04942 4.36623 1.40533 8.95465 2.11471 13.4218C2.2439 14.2353 2.48425 15.1426 2.69818 15.6238C2.99333 16.2881 3.49678 17.2373 3.71471 17.5404C4.3608 18.4392 5.37448 19.4926 5.51174 19.4078C5.56973 19.3719 5.58229 19.3866 5.5451 19.4467C5.47545 19.5595 5.65716 19.7256 6.39509 20.2237C8.13258 21.3968 10.0253 21.9842 12.0694 21.985C16.8211 21.9868 20.9395 18.5565 21.8606 13.8296C22.0691 12.7596 22.0359 10.241 21.8132 10.241C21.7761 10.241 21.292 10.5751 20.7377 10.9835L19.7297 11.7259L19.6294 12.635C19.419 14.5426 18.7462 16.0171 17.509 17.2824C15.9591 18.8675 14.1792 19.6201 11.9802 19.6201C10.5262 19.6201 9.45919 19.3578 8.27678 18.7095C7.49195 18.2792 7.1322 18.0026 6.49426 17.3394C5.57046 16.379 4.94671 15.2737 4.58256 13.9519C4.33715 13.0611 4.29931 11.4583 4.50084 10.4849C5.09302 7.62371 7.22942 5.36865 10.0785 4.59745C10.6351 4.44681 10.9729 4.41305 11.941 4.41158C13.4818 4.40913 14.1836 4.56646 15.4437 5.19681L16.3775 5.66389L17.2787 5.00638C17.7745 4.64475 18.2119 4.31975 18.2507 4.2841C18.3577 4.18632 17.3815 3.50328 16.5082 3.06474C15.0212 2.31817 13.622 1.99618 11.9507 2.016C11.3847 2.02268 10.8114 2.04185 10.6768 2.05857ZM18.9549 6.56069C18.4839 6.91147 17.0342 7.9811 15.7334 8.9376C14.4326 9.8941 13.0794 10.8906 12.7265 11.1521C12.3735 11.4136 12.0488 11.6275 12.0048 11.6275C11.9225 11.6275 11.2855 11.2409 9.45348 10.0787C8.87035 9.70881 8.3474 9.3882 8.29129 9.36627C8.21194 9.33527 8.19016 9.64976 8.19294 10.7828L8.19652 12.2392L10.0312 13.381C11.0403 14.009 11.9104 14.5329 11.9648 14.5453C12.0615 14.5673 12.5568 14.2194 15.0121 12.4048C15.6779 11.9126 17.2687 10.7422 18.5471 9.8039C19.8255 8.8655 20.9342 8.04349 21.011 7.97718C21.142 7.86382 21.1402 7.83633 20.9794 7.51956C20.6755 6.92093 20.0022 5.91843 19.9054 5.92071C19.8536 5.92186 19.4259 6.20984 18.9549 6.56069Z" fill="#148F2B"/>
  </symbol>

  <symbol id="icon-login-vk-color" viewBox="0 0 24 24" fill="none">
    <g transform="translate(2 2)">
      <path d="M9.5896 20H10.4224C14.9432 20 17.204 20 18.608 18.596C20.012 17.192 20 14.932 20 10.4224V9.5776C20 5.0688 20 2.80801 18.608 1.40401C17.216 4.05312e-06 14.9432 0 10.4224 0H9.5896C5.068 0 2.808 4.05312e-06 1.404 1.40401C-8.34465e-07 2.80801 0 5.0672 0 9.5776V10.4224C0 14.932 -8.34465e-07 17.192 1.404 18.596C2.808 20 5.068 20 9.5896 20Z" fill="#0077FF"/>
      <path d="M5.18286 6.5918C5.39191 10.2227 7.13171 11.9627 8.68384 12.3477L9.30396 12.501V6.5918H10.4934V9.94531L11.0491 9.88379C11.8548 9.79433 12.6152 9.29429 13.2141 8.64551C13.7373 8.0787 14.1725 7.36051 14.4417 6.5918H15.5969C15.1322 8.1529 13.9698 9.31168 13.1282 9.81445L12.3313 10.29L13.1672 10.6943C14.0106 11.1017 15.343 12.121 16.0364 13.9199H14.7131C14.1019 12.3564 12.7993 11.1262 11.0442 10.9482L10.4934 10.8926V13.9141C8.47578 13.8611 6.88976 13.1357 5.77954 11.875C4.69758 10.6464 4.02721 8.86542 3.89868 6.5918H5.18286Z" fill="white" stroke="white"/>
    </g>
  </symbol>

  <!-- /Login bonus icons from Figma -->

  <symbol id="icon-input-clear" viewBox="0 0 16 16" fill="none">
    <path d="M4 4L12 12M12 4L4 12" stroke="currentColor" stroke-width="2" stroke-linecap="round"/>
  </symbol>

  <!-- Recommended products icons from Figma -->

  <symbol id="icon-rec-arrow-right" viewBox="0 0 16 16" fill="none">
    <path d="M2 7.99967H14M9.33333 12.6663L14 7.99967L9.33333 3.33301" stroke="currentColor" stroke-width="2" stroke-linejoin="round"/>
  </symbol>

  <symbol id="icon-rec-arrow-left" viewBox="0 0 16 16" fill="none">
    <path d="M14 7.99967H2M6.66667 12.6663L2 7.99967L6.66667 3.33301" stroke="currentColor" stroke-width="2" stroke-linejoin="round"/>
  </symbol>

  <symbol id="icon-rec-button-arrow" viewBox="0 0 16 16" fill="none">
    <path d="M7.47546 11.8047C7.31203 11.9954 7.06621 12.0524 6.85268 11.9492C6.6392 11.846 6.50001 11.603 6.5 11.3334L6.5 4.66665C6.5 4.39704 6.6392 4.15397 6.85268 4.05076C7.06621 3.94757 7.31203 4.00463 7.47546 4.19529L10.3326 7.52865C10.5558 7.789 10.5558 8.21101 10.3326 8.47136L7.47546 11.8047Z" fill="currentColor"/>
  </symbol>

  <symbol id="icon-rec-button-arrow-left" viewBox="0 0 16 16" fill="none">
    <path d="M9.52454 11.8047C9.68797 11.9954 9.93379 12.0524 10.1473 11.9492C10.3608 11.846 10.5 11.603 10.5 11.3334L10.5 4.66665C10.5 4.39704 10.3608 4.15397 10.1473 4.05076C9.93379 3.94757 9.68797 4.00463 9.52454 4.19529L6.66737 7.52865C6.44421 7.789 6.44421 8.21101 6.66737 8.47136L9.52454 11.8047Z" fill="currentColor"/>
  </symbol>

  <symbol id="icon-rec-button-arrow-down" viewBox="0 0 16 16" fill="none">
    <path d="M4.19529 7.47546C4.00463 7.31203 3.94757 7.06621 4.05076 6.85268C4.15397 6.6392 4.39704 6.50001 4.66665 6.5H11.3334C11.603 6.5 11.846 6.6392 11.9492 6.85268C12.0524 7.06621 11.9954 7.31203 11.8047 7.47546L8.47136 10.3326C8.21101 10.5558 7.789 10.5558 7.52865 10.3326L4.19529 7.47546Z" fill="currentColor"/>
  </symbol>

  <symbol id="icon-product-conditions-arrow-right" viewBox="0 0 24 24" fill="none">
    <path d="M6 12H18M13.3333 16.6667L18 12L13.3333 7.33334" stroke="currentColor" stroke-width="2" stroke-linejoin="round"/>
  </symbol>

  <symbol id="icon-product-conditions-arrow-left" viewBox="0 0 24 24" fill="none">
    <path d="M18 12H6M10.6667 16.6667L6 12L10.6667 7.33334" stroke="currentColor" stroke-width="2" stroke-linejoin="round"/>
  </symbol>

  <symbol id="icon-upload-image" viewBox="0 0 16 16" fill="none">
    <rect x="3" y="3" width="10" height="10" rx="1" stroke="currentColor" stroke-width="2"/>
    <path d="M3 12L6.68421 9.22222L8.78947 10.4444L13 7" stroke="currentColor" stroke-width="2"/>
    <circle cx="6" cy="6" r="1" fill="currentColor"/>
  </symbol>

  <symbol id="icon-rec-plus" viewBox="0 0 16 16" fill="none">
    <path d="M8 3.33325V12.6666" stroke="currentColor" stroke-width="2" stroke-linecap="square" stroke-linejoin="round"/>
    <path d="M3.33333 8H12.6667" stroke="currentColor" stroke-width="2" stroke-linecap="square" stroke-linejoin="round"/>
  </symbol>

  <symbol id="icon-kit-check" viewBox="0 0 11 8" fill="none">
    <path fill-rule="evenodd" clip-rule="evenodd" d="M10.4631 0.195191C10.5881 0.32021 10.6583 0.489748 10.6583 0.666524C10.6583 0.8433 10.5881 1.01284 10.4631 1.13786L4.12981 7.47119C4.00479 7.59617 3.83525 7.66638 3.65847 7.66638C3.4817 7.66638 3.31216 7.59617 3.18714 7.47119L0.187142 4.47119C0.0657028 4.34546 -0.00149374 4.17705 2.52016e-05 4.00226C0.00154415 3.82746 0.0716569 3.66025 0.195262 3.53665C0.318868 3.41304 0.486076 3.34293 0.660874 3.34141C0.835672 3.33989 1.00407 3.40709 1.12981 3.52852L3.65847 6.05719L9.52047 0.195191C9.64549 0.0702104 9.81503 0 9.99181 0C10.1686 0 10.3381 0.0702104 10.4631 0.195191Z" fill="currentColor"/>
  </symbol>

  <symbol id="icon-story-close" viewBox="0 0 24 24" fill="none">
    <path d="M17.8743 6.12615L6.12549 17.875" stroke="currentColor" stroke-width="2" stroke-linejoin="round"/>
    <path d="M17.8748 17.8739L6.12598 6.125" stroke="currentColor" stroke-width="2" stroke-linejoin="round"/>
  </symbol>

  <symbol id="icon-story-volume" viewBox="0 0 24 24" fill="none">
    <path fill-rule="evenodd" clip-rule="evenodd" d="M13.2391 7.32459C13.0298 6.12166 11.6537 5.63014 10.7093 6.2989L8.66855 7.74636C8.53003 7.84413 8.36463 7.89658 8.19509 7.89652H6.25611C5.60323 7.89652 4.97709 8.15588 4.51544 8.61753C4.05379 9.07918 3.79443 9.70532 3.79443 10.3582V13.6404C3.79443 14.2933 4.05379 14.9194 4.51544 15.3811C4.97709 15.8427 5.60323 16.1021 6.25611 16.1021H8.19509C8.365 16.1021 8.53072 16.1549 8.66937 16.2531L10.7093 17.6989C11.6529 18.3685 13.0298 17.877 13.2391 16.6732C13.5033 15.1552 13.6411 13.5928 13.6411 11.9993C13.6411 10.4058 13.5033 8.84427 13.2391 7.32459ZM20.0398 8.63585C20.0157 8.42146 19.908 8.22522 19.7402 8.08962C19.5724 7.95402 19.3579 7.88996 19.1432 7.91133C18.9285 7.93269 18.7309 8.03774 18.5931 8.20375C18.4553 8.36976 18.3884 8.58336 18.4069 8.79832C18.6182 10.9271 18.6182 13.0715 18.4069 15.2003C18.3947 15.3083 18.4041 15.4176 18.4345 15.5219C18.465 15.6263 18.5158 15.7235 18.5841 15.808C18.6524 15.8926 18.7368 15.9627 18.8324 16.0143C18.928 16.066 19.0329 16.0981 19.1411 16.1088C19.2492 16.1196 19.3584 16.1088 19.4623 16.077C19.5662 16.0452 19.6628 15.9931 19.7464 15.9237C19.83 15.8543 19.899 15.769 19.9494 15.6727C19.9998 15.5764 20.0305 15.471 20.0398 15.3628C20.2619 13.126 20.2619 10.8727 20.0398 8.63585ZM16.8192 9.47035C16.812 9.36171 16.7833 9.25558 16.7347 9.15815C16.6861 9.06071 16.6186 8.97392 16.5361 8.90283C16.4537 8.83175 16.3579 8.77778 16.2543 8.74409C16.1508 8.71039 16.0416 8.69763 15.9331 8.70656C15.8246 8.71549 15.7189 8.74593 15.6223 8.7961C15.5257 8.84626 15.44 8.91516 15.3702 8.99877C15.3005 9.08239 15.2481 9.17904 15.2161 9.28311C15.1841 9.38718 15.1731 9.49657 15.1838 9.60492C15.3152 11.1985 15.3152 12.8001 15.1838 14.3937C15.1696 14.6086 15.2405 14.8204 15.381 14.9835C15.5216 15.1465 15.7207 15.2478 15.9353 15.2655C16.1499 15.2832 16.3628 15.2158 16.5281 15.0778C16.6935 14.9399 16.798 14.7425 16.8192 14.5283C16.958 12.8452 16.958 11.1535 16.8192 9.47035Z" fill="currentColor"/>
  </symbol>

  <symbol id="icon-story-next" viewBox="0 0 24 24" fill="none">
    <path fill-rule="evenodd" clip-rule="evenodd" d="M9 6.99979C9.00004 6.80204 9.05871 6.60874 9.1686 6.44433C9.27848 6.27992 9.43465 6.15178 9.61735 6.07611C9.80005 6.00044 10.0011 5.98064 10.195 6.0192C10.389 6.05777 10.5671 6.15298 10.707 6.29279L15.707 11.2928C15.8945 11.4803 15.9998 11.7346 15.9998 11.9998C15.9998 12.265 15.8945 12.5193 15.707 12.7068L10.707 17.7068C10.5671 17.8466 10.389 17.9418 10.195 17.9804C10.0011 18.0189 9.80005 17.9991 9.61735 17.9235C9.43465 17.8478 9.27848 17.7197 9.1686 17.5552C9.05871 17.3908 9.00004 17.1975 9 16.9998L9 6.99979Z" fill="currentColor"/>
  </symbol>

  <symbol id="icon-story-prev" viewBox="0 0 24 24" fill="none">
    <path fill-rule="evenodd" clip-rule="evenodd" d="M15 6.99979C15 6.80204 14.9413 6.60874 14.8314 6.44433C14.7215 6.27992 14.5654 6.15178 14.3827 6.07611C14.2 6.00044 13.9989 5.98064 13.805 6.0192C13.611 6.05777 13.4329 6.15298 13.293 6.29279L8.293 11.2928C8.10553 11.4803 8.00021 11.7346 8.00021 11.9998C8.00021 12.265 8.10553 12.5193 8.293 12.7068L13.293 17.7068C13.4329 17.8466 13.611 17.9418 13.805 17.9804C13.9989 18.0189 14.2 17.9991 14.3827 17.9235C14.5654 17.8478 14.7215 17.7197 14.8314 17.5552C14.9413 17.3908 15 17.1975 15 16.9998L15 6.99979Z" fill="currentColor"/>
  </symbol>

  <symbol id="icon-rec-bookmark" viewBox="0 0 16 16" fill="none">
    <path d="M10.667 1.25C11.2194 1.25009 11.749 1.46973 12.1396 1.86035C12.5303 2.25098 12.7499 2.78059 12.75 3.33301V14C12.75 14.2598 12.6155 14.501 12.3945 14.6377C12.1735 14.7743 11.8974 14.7869 11.665 14.6709L8 12.8379L4.33496 14.6709C4.10255 14.7869 3.82646 14.7743 3.60547 14.6377C3.38453 14.501 3.25 14.2598 3.25 14V3.33301C3.25009 2.78059 3.46973 2.25098 3.86035 1.86035C4.25098 1.46973 4.78059 1.25009 5.33301 1.25H10.667Z" fill="currentColor"/>
  </symbol>

  <symbol id="icon-rec-compare" viewBox="0 0 16 16" fill="none">
    <path d="M7.99984 2.66634H3.99984C3.64622 2.66634 3.30708 2.80682 3.05703 3.05687C2.80698 3.30691 2.6665 3.64605 2.6665 3.99967V11.9997C2.6665 12.3533 2.80698 12.6924 3.05703 12.9425C3.30708 13.1925 3.64622 13.333 3.99984 13.333H7.99984V2.66634Z" fill="currentColor"/>
    <path d="M8.6665 2.66634H7.99984M8.6665 13.333H7.99984M11.3332 2.66634H11.9998C12.3535 2.66634 12.6926 2.80682 12.9426 3.05687C13.1927 3.30691 13.3332 3.64605 13.3332 3.99967V4.66634M13.3332 11.333V11.9997C13.3332 12.3533 13.1927 12.6924 12.9426 12.9425C12.6926 13.1925 12.3535 13.333 11.9998 13.333H11.3332M13.3332 7.33301V8.66634M7.99984 1.33301V2.66634M7.99984 14.6663V13.333M7.99984 2.66634H3.99984C3.64622 2.66634 3.30708 2.80682 3.05703 3.05687C2.80698 3.30691 2.6665 3.64605 2.6665 3.99967V11.9997C2.6665 12.3533 2.80698 12.6924 3.05703 12.9425C3.30708 13.1925 3.64622 13.333 3.99984 13.333H7.99984M7.99984 2.66634V13.333" stroke="currentColor" stroke-width="1.5" stroke-linecap="round" stroke-linejoin="round"/>
  </symbol>

  <symbol id="icon-rec-color-dot" viewBox="0 0 16 16" fill="none">
    <rect x="2" y="2" width="12" height="12" rx="6" fill="#89B9E3"/>
    <circle cx="8" cy="8" r="7.75" stroke="black" stroke-width="0.5"/>
  </symbol>

  <!-- Store showcase icons from Figma -->

  <symbol id="icon-store-clock" viewBox="0 0 24 24" fill="none">
    <path fill-rule="evenodd" clip-rule="evenodd" d="M2 12C2 6.477 6.477 2 12 2C17.523 2 22 6.477 22 12C22 17.523 17.523 22 12 22C6.477 22 2 17.523 2 12ZM12 8C12 7.73478 11.8946 7.48043 11.7071 7.29289C11.5196 7.10536 11.2652 7 11 7C10.7348 7 10.4804 7.10536 10.2929 7.29289C10.1054 7.48043 10 7.73478 10 8V13C10 13.2652 10.1054 13.5196 10.2929 13.7071C10.4804 13.8946 10.7348 14 11 14H16C16.2652 14 16.5196 13.8946 16.7071 13.7071C16.8946 13.5196 17 13.2652 17 13C17 12.7348 16.8946 12.4804 16.7071 12.2929C16.5196 12.1054 16.2652 12 16 12H12V8Z" fill="currentColor"/>
  </symbol>

  <symbol id="icon-store-phone" viewBox="0 0 24 24" fill="none">
    <path fill-rule="evenodd" clip-rule="evenodd" d="M16 3C18.669 3 21.226 5.258 20.475 8.206C19.7174 11.1631 18.1788 13.8622 16.0204 16.0208C13.862 18.1794 11.163 19.7181 8.206 20.476C5.258 21.225 3 18.668 3 16V15C3 13.873 3.901 13.055 4.9 12.956C5.71888 12.8745 6.5227 12.681 7.289 12.381C7.47002 12.3099 7.66783 12.2931 7.85823 12.3327C8.04863 12.3723 8.22335 12.4666 8.361 12.604L9.364 13.606C11.1418 12.6098 12.6098 11.1418 13.606 9.364L12.604 8.36C12.4666 8.22235 12.3723 8.04763 12.3327 7.85723C12.2931 7.66683 12.3099 7.46902 12.381 7.288C12.6811 6.52138 12.8745 5.71722 12.956 4.898C13.055 3.902 13.873 3 15 3H16Z" fill="currentColor"/>
  </symbol>

  <symbol id="icon-store-location" viewBox="0 0 24 24" fill="none">
    <path fill-rule="evenodd" clip-rule="evenodd" d="M18.207 4.79368C16.5608 3.14748 14.3281 2.22266 12 2.22266C9.67193 2.22266 7.43921 3.14748 5.79301 4.79368C4.14681 6.43988 3.22198 8.6726 3.22198 11.0007C3.22198 13.3288 4.14681 15.5615 5.79301 17.2077L11.293 22.7077C11.4805 22.8952 11.7348 23.0005 12 23.0005C12.2652 23.0005 12.5195 22.8952 12.707 22.7077L18.207 17.2077C19.8527 15.5612 20.7772 13.3286 20.7772 11.0007C20.7772 8.67276 19.8527 6.44014 18.207 4.79368ZM10.5 11.0007C10.5 10.6029 10.658 10.2213 10.9393 9.94002C11.2207 9.65872 11.6022 9.50068 12 9.50068H12.01C12.4078 9.50068 12.7894 9.65872 13.0707 9.94002C13.352 10.2213 13.51 10.6029 13.51 11.0007V11.0107C13.51 11.4085 13.352 11.79 13.0707 12.0713C12.7894 12.3526 12.4078 12.5107 12.01 12.5107H12C11.6022 12.5107 11.2207 12.3526 10.9393 12.0713C10.658 11.79 10.5 11.4085 10.5 11.0107V11.0007Z" fill="currentColor"/>
  </symbol>

  <!-- Footer app icons from Figma -->

  <symbol id="icon-app-store" viewBox="0 0 16 16" fill="none">
    <path d="M13.9912 5.45495C13.9 5.52695 12.29 6.45024 12.29 8.50325C12.29 10.8779 14.3387 11.718 14.4 11.7388C14.3905 11.79 14.0745 12.8893 13.3198 14.0094C12.6469 14.9951 11.9441 15.9792 10.8749 15.9792C9.80575 15.9792 9.5306 15.3471 8.29635 15.3471C7.09355 15.3471 6.66589 16 5.68793 16C4.70996 16 4.02759 15.0879 3.24302 13.9678C2.33423 12.6525 1.59998 10.6091 1.59998 8.66967C1.59998 5.55896 3.58735 3.90919 5.54327 3.90919C6.58256 3.90919 7.44889 4.60366 8.10139 4.60366C8.72244 4.60366 9.69097 3.86759 10.8733 3.86759C11.3214 3.86759 12.9315 3.90919 13.9912 5.45495ZM10.312 2.55065C10.801 1.9602 11.1469 1.14091 11.1469 0.321632C11.1469 0.208021 11.1375 0.0928093 11.117 0C10.3215 0.030403 9.37494 0.539254 8.8042 1.21292C8.3561 1.73137 7.93787 2.55065 7.93787 3.38114C7.93787 3.50595 7.95831 3.63076 7.96774 3.67077C8.01806 3.68037 8.09982 3.69157 8.18157 3.69157C8.89539 3.69157 9.79317 3.20512 10.312 2.55065Z" fill="currentColor"/>
  </symbol>

  <symbol id="icon-google-play" viewBox="0 0 16 16" fill="none">
    <path d="M10.0195 12.0186L3.50684 15.7549C3.26849 15.8941 3.00144 15.9766 2.72656 15.9961C2.45163 16.0156 2.17536 15.9714 1.91992 15.8672C1.76118 15.8024 1.61501 15.7127 1.48145 15.6064L7.49902 9.43262L10.0195 12.0186Z" fill="currentColor"/>
    <path d="M6.80078 8.7168L0.893555 14.7764C0.881912 14.7426 0.86904 14.7093 0.859375 14.6748C0.820221 14.5247 0.800222 14.3691 0.799805 14.2139V2.56153L6.80078 8.7168Z" fill="currentColor"/>
    <path d="M14.2646 6.44629H14.2539C14.539 6.59662 14.7787 6.82332 14.9453 7.10059C15.1118 7.37776 15.2002 7.6956 15.2002 8.01953C15.2002 8.34346 15.1118 8.66131 14.9453 8.93848C14.7787 9.21575 14.539 9.44245 14.2539 9.59278L11.0361 11.4434L11.0059 11.4531L10.915 11.5049L8.19727 8.7168L11.7988 5.02344L14.2646 6.44629Z" fill="currentColor"/>
    <path d="M2.60254 3.3286e-06C2.92899 0.000886679 3.24954 0.0887963 3.53125 0.254886L10.9053 4.50782L7.49902 8.00098L0.891602 1.22364C1.00878 0.883635 1.22331 0.584971 1.50977 0.367191C1.82443 0.128029 2.2083 -0.000754856 2.60254 3.3286e-06Z" fill="currentColor"/>
  </symbol>

  <symbol id="icon-google-play-color" viewBox="0 0 16 16" fill="none">
    <path d="M10.0195 12.0186L3.50684 15.7549C3.26849 15.8941 3.00144 15.9766 2.72656 15.9961C2.45163 16.0156 2.17536 15.9714 1.91992 15.8672C1.76118 15.8024 1.61501 15.7127 1.48145 15.6064L7.49902 9.43262L10.0195 12.0186Z" fill="#EA4335"/>
    <path d="M6.80078 8.7168L0.893555 14.7764C0.881912 14.7426 0.86904 14.7093 0.859375 14.6748C0.820221 14.5247 0.800222 14.3691 0.799805 14.2139V2.56153L6.80078 8.7168Z" fill="#4285F4"/>
    <path d="M14.2646 6.44629H14.2539C14.539 6.59662 14.7787 6.82332 14.9453 7.10059C15.1118 7.37776 15.2002 7.6956 15.2002 8.01953C15.2002 8.34346 15.1118 8.66131 14.9453 8.93848C14.7787 9.21575 14.539 9.44245 14.2539 9.59278L11.0361 11.4434L11.0059 11.4531L10.915 11.5049L8.19727 8.7168L11.7988 5.02344L14.2646 6.44629Z" fill="#FBBC04"/>
    <path d="M2.60254 3.3286e-06C2.92899 0.000886679 3.24954 0.0887963 3.53125 0.254886L10.9053 4.50782L7.49902 8.00098L0.891602 1.22364C1.00878 0.883635 1.22331 0.584971 1.50977 0.367191C1.82443 0.128029 2.2083 -0.000754856 2.60254 3.3286e-06Z" fill="#34A853"/>
  </symbol>

  <symbol id="icon-appgallery" viewBox="0 0 16 16" fill="none">
    <path fill-rule="evenodd" clip-rule="evenodd" d="M4.48933 0C1.20227 0 0 1.20206 0 4.48846V11.5115C0 14.7979 1.20227 16 4.48933 16H11.5085C14.7955 16 16 14.7979 16 11.5115V4.48846C16 1.20206 14.7977 0 11.5107 0H4.48933Z" fill="currentColor"/>
    <path fill-rule="evenodd" clip-rule="evenodd" d="M6.97913 9.27967H7.62147L7.2992 8.5302L6.97913 9.27967ZM6.82095 9.65736L6.63037 10.0934H6.19649L7.11917 8.00013H7.49416L8.41311 10.0934H7.96765L7.77951 9.65736H6.82095ZM13.8029 10.0919H14.2222V8H13.8029V10.0919ZM12.1338 9.19325H12.9068V8.81183H12.1338V8.38309H13.2559V8.00154H11.7146V10.0933H13.2963V9.71175H12.1338V9.19325ZM10.4676 9.44041L9.99215 8H9.6452L9.16977 9.44041L8.70708 8.00116H8.25468L8.98485 10.0946H9.33656L9.81276 8.7195L10.289 10.0946H10.6438L11.372 8.00116H10.9313L10.4676 9.44041ZM5.55633 9.19904C5.55633 9.53956 5.38723 9.72153 5.08014 9.72153C4.77138 9.72153 4.60137 9.53429 4.60137 9.18451V8.00141H4.17636V9.19904C4.17636 9.78814 4.50377 10.126 5.07435 10.126C5.65059 10.126 5.98096 9.78171 5.98096 9.18155V8.00013H5.55633V9.19904ZM3.16237 8.00013H3.58713V10.0947H3.16237V9.24405H2.20278V10.0947H1.77777V8.00013H2.20278V8.84501H3.16237V8.00013Z" fill="white"/>
    <path fill-rule="evenodd" clip-rule="evenodd" d="M8.00004 5.33268C6.52949 5.33268 5.33337 4.13644 5.33337 2.66602H5.71005C5.71005 3.92862 6.73744 4.95588 8.00004 4.95588C9.26264 4.95588 10.29 3.92862 10.29 2.66602H10.6667C10.6667 4.13644 9.47046 5.33268 8.00004 5.33268Z" fill="white"/>
  </symbol>

  <symbol id="icon-rustore" viewBox="0 0 16 16" fill="none">
    <path d="M1.12467 14.8753C2.24939 16 4.0596 16 7.68001 16H8.31999C11.9404 16 13.7506 16 14.8753 14.8753C16 13.7506 16 11.9404 16 8.31997V7.67998C16 4.05957 16 2.24939 14.8753 1.12467C13.7506 0 11.9404 0 8.31999 0H7.68001C4.0596 0 2.24939 0 1.12467 1.12467C4.26385e-07 2.24939 0 4.05957 0 7.67998V8.31997C0 11.9404 4.26385e-07 13.7506 1.12467 14.8753Z" fill="currentColor"/>
    <path fill-rule="evenodd" clip-rule="evenodd" d="M12.342 10.6397L11.2305 10.3692C11.0967 10.3318 11.0021 10.2144 10.9974 10.0781L10.8587 6.09216C10.8186 5.56462 10.4166 5.145 9.99664 5.02145C9.97306 5.0145 9.94787 5.02385 9.9339 5.04361C9.91969 5.06374 9.92521 5.09154 9.94498 5.10643C10.0487 5.1847 10.3342 5.43997 10.3342 5.8803L10.3333 11.0918C10.3333 11.595 9.84532 11.964 9.34195 11.8415L8.2133 11.5668C8.08818 11.5241 8.00121 11.4106 7.99666 11.2796L7.85798 7.29341C7.81785 6.76587 7.41593 6.3463 6.99593 6.2227C6.97235 6.2158 6.94717 6.22511 6.93319 6.24487C6.91903 6.26499 6.9245 6.29279 6.94427 6.30773C7.04801 6.38595 7.33346 6.64123 7.33346 7.08156L7.33264 11.4256L7.33328 11.4257V12.2935C7.33328 12.7967 6.84521 13.1658 6.34184 13.0433L3.15396 12.2674C2.71075 12.1595 2.40002 11.7732 2.40002 11.3301V6.11055C2.40002 5.60736 2.88805 5.2383 3.39142 5.3608L5.40013 5.84973V4.9088C5.40013 4.4056 5.88815 4.0365 6.39153 4.15905L8.4001 4.64794V3.707C8.4001 3.2038 8.88813 2.8347 9.39155 2.95725L12.5794 3.73316C13.0226 3.84104 13.3334 4.22732 13.3334 4.67037V9.88997C13.3334 10.3932 12.8453 10.7622 12.342 10.6397Z" fill="white"/>
  </symbol>

  <symbol id="icon-accordion-toggle" viewBox="0 0 24 24" fill="none">
    <path fill-rule="evenodd" clip-rule="evenodd" d="M7.00003 9C6.80228 9.00004 6.60898 9.05871 6.44457 9.1686C6.28016 9.27848 6.15202 9.43465 6.07635 9.61735C6.00068 9.80005 5.98088 10.0011 6.01945 10.195C6.05802 10.389 6.15322 10.5671 6.29303 10.707L11.293 15.707C11.4806 15.8945 11.7349 15.9998 12 15.9998C12.2652 15.9998 12.5195 15.8945 12.707 15.707L17.707 10.707C17.8468 10.5671 17.942 10.389 17.9806 10.195C18.0192 10.0011 17.9994 9.80005 17.9237 9.61735C17.848 9.43465 17.7199 9.27848 17.5555 9.1686C17.3911 9.05871 17.1978 9.00004 17 9H7.00003Z" fill="currentColor"/>
  </symbol>
  <symbol id="icon-catalog-tourism" viewBox="0 0 24 24" fill="none">
<path d="M7.97962 3.60084C7.90062 3.49068 7.94949 3.33552 8.07837 3.29352C14.4427 1.21973 21.9483 4.81437 21.9996 15.8855C21.9999 15.9552 21.9636 16.022 21.9041 16.0583L13.3042 21.3138C13.1709 21.3952 12.9997 21.297 12.9982 21.1409C12.9106 11.9105 9.46568 5.67306 7.97962 3.60084Z" fill="currentColor"/>
<path d="M6.34924 4.18339C6.42716 4.08722 6.57071 4.08286 6.64644 4.18076C7.82663 5.70637 11.4215 11.8006 11.4987 21.1922C11.4999 21.3363 11.3522 21.4355 11.2201 21.3779L8.8556 20.347C8.77629 20.3124 8.72833 20.2307 8.73589 20.1445C9.01713 16.9373 8.44982 13.7829 6.70248 11.0465C6.63248 10.9369 6.47767 10.9251 6.3924 11.0233C4.77154 12.8905 3.76902 15.3197 3.73542 17.8043C3.73345 17.95 3.58405 18.0498 3.45042 17.9915L2.11138 17.4079C2.04294 17.378 1.9968 17.3152 1.99274 17.2406C1.85694 14.7467 2.54492 8.87823 6.34924 4.18339Z" fill="currentColor"/>
<path d="M6.25391 13.6706C6.33025 13.528 6.53301 13.5381 6.59424 13.6877C7.32556 15.4752 7.48595 17.4962 7.38501 19.4144C7.37773 19.5526 7.23438 19.6399 7.10743 19.5846L5.28383 18.7898C5.21767 18.7609 5.17196 18.6987 5.16567 18.6268C5.01535 16.91 5.44415 15.1827 6.25391 13.6706Z" fill="currentColor"/>
  </symbol>
  <symbol id="icon-catalog-quad" viewBox="0 0 24 24" fill="none">
<path fill-rule="evenodd" clip-rule="evenodd" d="M11.7504 7C13.8212 7.00066 15.5004 10.3583 15.5004 14.5C15.5004 18.6417 13.8212 21.9993 11.7504 22C9.67935 22 8.00042 18.6421 8.00042 14.5C8.00042 10.3579 9.67935 7 11.7504 7ZM11.31 10C10.2054 10 9.30999 12.0147 9.30999 14.5C9.30999 16.9853 10.2054 19 11.31 19C12.4143 18.9994 13.31 16.9849 13.31 14.5C13.31 12.0151 12.4143 10.0006 11.31 10Z" fill="currentColor"/>
<path d="M17.542 19.631C17.6065 19.687 17.6285 19.778 17.5953 19.8567C17.1881 20.8217 16.6795 21.5644 16.1697 21.9607C16.1362 21.9867 16.0947 22 16.0523 22H15.0519C14.8787 22 14.7846 21.7923 14.8908 21.6556C15.523 20.8421 15.9567 19.8824 16.2631 18.9005C16.3067 18.7608 16.4796 18.7095 16.5901 18.8054L17.542 19.631Z" fill="currentColor"/>
<path d="M21.1085 18.2296C21.259 18.146 21.4354 18.2789 21.3899 18.4449C20.9465 20.0604 20.0841 21.1588 18.5432 21.9769C18.5147 21.9921 18.4826 22 18.4503 22H17.6903C17.5207 22 17.425 21.7996 17.523 21.6611C17.9035 21.123 18.231 20.4673 18.5039 19.7322C18.5207 19.6871 18.5529 19.6492 18.595 19.6259L21.1085 18.2296Z" fill="currentColor"/>
<path d="M9.70981 3.30941C9.61988 3.17738 9.71679 3.00041 9.87651 3.00294C14.5618 3.07713 15.9219 4.53873 16.9146 5.6604C17.0301 5.79081 16.9368 6 16.7626 6H13.3994C13.367 6 13.3351 5.99204 13.3062 5.97735C12.8399 5.74022 12.3216 5.59972 11.7504 5.59961C9.89906 5.59961 8.59918 7.06436 7.84612 8.57031C7.05122 10.1601 6.60003 12.2587 6.60003 14.5C6.60003 16.7413 7.05122 18.8399 7.84612 20.4297C7.9278 20.593 7.77579 20.7786 7.60591 20.7115C4.28069 19.3991 3.07881 16.0392 4.00042 16.5C5.00087 16.9997 7.99934 16.9993 5.00042 14.5C2.88454 12.7368 2.81541 10.4554 2.9429 9.36889C2.96153 9.21014 3.13909 9.16295 3.24461 9.283C3.55687 9.63827 4.12947 10.2097 5.00042 10.5C6.49986 10.9994 6.9996 9.49988 5.00042 8.5C3.4703 7.73494 2.12306 6.14679 2.44563 3.3857C2.4645 3.22414 2.66376 3.15589 2.78989 3.25859C3.43274 3.78204 4.64492 4.5 6.00042 4.5C8.66648 4.50008 8.00058 5.00004 10.0004 5.5C11.4461 5.86108 10.4137 4.34285 9.70981 3.30941Z" fill="currentColor"/>
<path d="M18.4257 16.0537C18.479 16.0963 18.5069 16.1631 18.4992 16.2309C18.4039 17.0727 18.2407 17.8834 18.0261 18.6253C17.9861 18.7636 17.8165 18.8116 17.7078 18.7172L16.6578 17.8058C16.6029 17.7581 16.5783 17.6844 16.5928 17.6131C16.7468 16.8586 16.8459 16.0596 16.8828 15.2348C16.8903 15.0691 17.0833 14.9791 17.2128 15.0828L18.4257 16.0537Z" fill="currentColor"/>
<path d="M21.6337 16.9296C21.6251 16.9929 21.5876 17.0486 21.5318 17.0796L19.2871 18.3257C19.133 18.4113 18.9497 18.2696 18.9895 18.0978C19.1197 17.5357 19.2222 16.9481 19.2914 16.3471C19.2972 16.2966 19.3217 16.2502 19.3602 16.2171L21.6914 14.2188C21.8166 14.1114 22.0063 14.1935 22.0015 14.3584C21.9774 15.1975 21.7451 16.1145 21.6337 16.9296Z" fill="currentColor"/>
<path d="M18.325 12.1507C18.3756 12.1809 18.4103 12.2317 18.4196 12.2898C18.5483 13.1001 18.6074 13.935 18.5949 14.7604C18.5924 14.9241 18.4035 15.0104 18.2757 14.9082L16.9533 13.8507C16.9081 13.8146 16.8809 13.7608 16.8781 13.7031C16.8418 12.9542 16.7558 12.2269 16.6228 11.5355C16.5896 11.3627 16.7771 11.2274 16.9282 11.3175L18.325 12.1507Z" fill="currentColor"/>
<path d="M20.9883 10.1833C21.0864 10.072 21.2665 10.1029 21.3157 10.243C21.6187 11.1058 21.7911 12.1209 21.8876 12.8782C21.896 12.9447 21.8703 13.0105 21.8194 13.0541L19.7336 14.8412C19.6009 14.9548 19.3949 14.8557 19.3965 14.6811C19.4039 13.8813 19.3473 13.0756 19.2286 12.2882C19.2197 12.2293 19.2371 12.1695 19.2764 12.1248L20.9883 10.1833Z" fill="currentColor"/>
<path d="M18.9172 7C18.9699 7 19.0199 7.02025 19.0569 7.05774C19.2867 7.29071 20.1547 8.19026 20.7274 9.05103C20.7766 9.12507 20.7685 9.22261 20.7097 9.28929L19.2829 10.9057C19.1749 11.0281 18.9729 10.9766 18.9331 10.8183C18.5941 9.47157 18.0938 8.25662 17.4749 7.32762C17.3833 7.1902 17.4792 7 17.6444 7H18.9172Z" fill="currentColor"/>
<path d="M18.0684 10.6759C18.1163 10.8465 17.932 10.9836 17.7798 10.8929L16.2836 10.0013C16.242 9.97652 16.211 9.93758 16.1956 9.89174C15.8928 8.98525 15.4782 8.10138 14.8907 7.34446C14.7845 7.2077 14.8787 7 15.0519 7H16.1034C16.1557 7 16.2059 7.02014 16.2424 7.05763C16.9599 7.7943 17.633 9.1222 18.0684 10.6759Z" fill="currentColor"/>
  </symbol>
  <symbol id="icon-catalog-fishing" viewBox="0 0 24 24" fill="none">
<path fill-rule="evenodd" clip-rule="evenodd" d="M10 4.00053C12.7869 3.77904 14.7973 4.10958 17 5.50053C19.4225 7.03047 20.7937 11.319 20.9785 11.9283C20.9934 11.9775 21.0145 12.0222 21.043 12.065L21.8135 13.2212C21.9261 13.3901 21.9259 13.6091 21.8076 13.774C21.1834 14.6438 19.1307 17.3535 17 18.5005C12.7725 20.7762 7.82965 20.2758 6.40332 20.0669C6.16755 20.0322 6.00023 19.8287 6 19.5904V16.604C6 16.3593 6.29943 16.2306 6.48828 16.3863C7.86756 17.5237 9.75921 18.3212 11.8799 18.6421C12.3166 18.7082 12.7247 18.4078 12.791 17.9712C12.857 17.5346 12.5566 17.1274 12.1201 17.0611C10.2333 16.7756 8.62444 16.0744 7.50586 15.1519C7.1689 14.874 6.88233 14.5778 6.64355 14.271C6.3346 14.5024 5.88026 14.827 5.5 15.0005C4.90391 15.2725 3.95337 15.4326 3.62012 15.483C3.54145 15.4948 3.46138 15.4868 3.39258 15.4468C3.06592 15.2571 2.10756 14.4888 2.10742 12.0005C2.10742 9.60062 2.99892 8.80072 3.35547 8.5767C3.44577 8.51999 3.55515 8.51657 3.65723 8.5474C3.94641 8.63483 4.57184 8.82927 5 9.00053C5.5147 9.20643 6.18099 9.55547 6.59961 9.78178C6.84633 9.4555 7.14899 9.14254 7.50586 8.84818C8.62444 7.92566 10.2332 7.22543 12.1201 6.93998C12.5566 6.8737 12.8568 6.46539 12.791 6.02885C12.7247 5.5923 12.3165 5.2919 11.8799 5.35795C9.75925 5.67883 7.86756 6.47638 6.48828 7.61381C6.29992 7.76917 6.00037 7.64006 6 7.39604V5.35111C6 5.14095 6.13103 4.95275 6.33008 4.88529C7.04202 4.64401 8.75764 4.09927 10 4.00053ZM16.75 11.0005C16.3358 11.0005 16 11.3363 16 11.7505C16.0002 12.1645 16.3359 12.5005 16.75 12.5005C17.1641 12.5005 17.4998 12.1645 17.5 11.7505C17.5 11.3363 17.1642 11.0005 16.75 11.0005Z" fill="currentColor"/>
  </symbol>
<symbol id="icon-catalog-travel" viewBox="0 0 24 24" fill="none">
<path fill-rule="evenodd" clip-rule="evenodd" d="M17 5C19.2091 5 21 6.79086 21 9V18C21 20.2091 19.2091 22 17 22H16.2C16.0895 22 16 21.9105 16 21.8V18C16 17.4477 15.5523 17 15 17H13.5C12.9477 17 12.5 17.4477 12.5 18V21.8C12.5 21.9105 12.4105 22 12.3 22H12C9.79086 22 8 20.2091 8 18V9C8 6.79086 9.79086 5 12 5H17ZM11.5 14C11.2239 14 11 14.2239 11 14.5V15C11 15.2761 11.2239 15.5 11.5 15.5H12C12.2761 15.5 12.5 15.2761 12.5 15V14.5C12.5 14.2239 12.2761 14 12 14H11.5ZM14 14C13.7239 14 13.5 14.2239 13.5 14.5V15C13.5 15.2761 13.7239 15.5 14 15.5H14.5C14.7761 15.5 15 15.2761 15 15V14.5C15 14.2239 14.7761 14 14.5 14H14ZM16.5 14C16.2239 14 16 14.2239 16 14.5V15C16 15.2761 16.2239 15.5 16.5 15.5H17C17.2761 15.5 17.5 15.2761 17.5 15V14.5C17.5 14.2239 17.2761 14 17 14H16.5ZM11.5 11.5C11.2239 11.5 11 11.7239 11 12V12.5C11.0001 12.7761 11.2239 13 11.5 13H12C12.2761 13 12.4999 12.7761 12.5 12.5V12C12.5 11.7239 12.2761 11.5 12 11.5H11.5ZM14 11.5C13.7239 11.5 13.5 11.7239 13.5 12V12.5C13.5001 12.7761 13.7239 13 14 13H14.5C14.7761 13 14.9999 12.7761 15 12.5V12C15 11.7239 14.7761 11.5 14.5 11.5H14ZM16.5 11.5C16.2239 11.5 16 11.7239 16 12V12.5C16.0001 12.7761 16.2239 13 16.5 13H17C17.2761 13 17.4999 12.7761 17.5 12.5V12C17.5 11.7239 17.2761 11.5 17 11.5H16.5ZM11.5 9C11.2239 9 11 9.22386 11 9.5V10C11 10.2761 11.2239 10.5 11.5 10.5H12C12.2761 10.5 12.5 10.2761 12.5 10V9.5C12.5 9.22386 12.2761 9 12 9H11.5ZM14 9C13.7239 9 13.5 9.22386 13.5 9.5V10C13.5 10.2761 13.7239 10.5 14 10.5H14.5C14.7761 10.5 15 10.2761 15 10V9.5C15 9.22386 14.7761 9 14.5 9H14ZM16.5 9C16.2239 9 16 9.22386 16 9.5V10C16 10.2761 16.2239 10.5 16.5 10.5H17C17.2761 10.5 17.5 10.2761 17.5 10V9.5C17.5 9.22386 17.2761 9 17 9H16.5Z" fill="currentColor"/>
<path fill-rule="evenodd" clip-rule="evenodd" d="M11 2C12.0321 2 12.9415 2.52163 13.4811 3.31523C13.5659 3.43984 13.471 3.59961 13.3203 3.59961H12C9.41291 3.59961 7.25148 5.4194 6.7238 7.84851C6.70286 7.9449 6.59864 8 6.5 8H6C5.72386 8 5.5 8.22386 5.5 8.5V9C5.5 9.27614 5.72386 9.5 6 9.5H6.5C6.55183 9.5 6.59961 9.53866 6.59961 9.59049V10.4086C6.59961 10.4604 6.55179 10.5 6.5 10.5H6C5.72386 10.5 5.5 10.7239 5.5 11V11.5C5.5 11.7761 5.72386 12 6 12H6.5C6.55183 12 6.59961 12.0387 6.59961 12.0905V15.8C6.59961 15.9105 6.51007 16 6.39961 16H6C4.34315 16 3 14.6569 3 13V5C3 3.34315 4.34315 2 6 2H11ZM6 5C5.72386 5 5.5 5.22386 5.5 5.5V6C5.5 6.27614 5.72386 6.5 6 6.5H6.5C6.77614 6.5 7 6.27614 7 6V5.5C7 5.22386 6.77614 5 6.5 5H6Z" fill="currentColor"/>
  </symbol>
  <symbol id="icon-catalog-snowmobile" viewBox="0 0 24 24" fill="none">
<path d="M11.4858 17.2451C11.7773 17.2454 12.0141 17.4819 12.0142 17.7734V18.708L12.8237 18.2412C13.0762 18.0958 13.3986 18.1813 13.5444 18.4336C13.6901 18.686 13.6041 19.0091 13.352 19.1553L12.5415 19.623L13.352 20.0908C13.6038 20.237 13.6901 20.5593 13.5444 20.8115C13.3987 21.0638 13.0762 21.15 12.8237 21.0049L12.0142 20.5371V21.4717C12.0142 21.7633 11.7774 21.9997 11.4858 22C11.1941 21.9999 10.9575 21.7634 10.9575 21.4717V20.5371L10.1489 21.0049C9.89635 21.1507 9.57322 21.0639 9.42724 20.8115C9.2814 20.5589 9.36812 20.2368 9.6206 20.0908L10.4292 19.623L9.6206 19.1553C9.36806 19.0093 9.28139 18.6862 9.42724 18.4336C9.57326 18.1813 9.8964 18.0954 10.1489 18.2412L10.9575 18.708V17.7734C10.9576 17.4818 11.1942 17.2452 11.4858 17.2451Z" fill="currentColor"/>
<path d="M5.12939 15C5.421 15.0002 5.65771 15.2367 5.65771 15.5283V16.4629L6.46728 15.9961C6.71981 15.8504 7.04203 15.9361 7.18798 16.1885C7.33378 16.441 7.24792 16.7641 6.9956 16.9102L6.18505 17.377L6.9956 17.8447C7.2478 17.9908 7.33375 18.3139 7.18798 18.5664C7.0421 18.8185 6.7197 18.905 6.46728 18.7598L5.65771 18.292V19.2266C5.65763 19.5182 5.42095 19.7547 5.12939 19.7549C4.83788 19.7546 4.60212 19.5181 4.60204 19.2266V18.292L3.79247 18.7598C3.53993 18.9054 3.2167 18.8188 3.07079 18.5664C2.92497 18.3138 3.01171 17.9907 3.26415 17.8447L4.07372 17.377L3.26415 16.9102C3.01181 16.7641 2.92499 16.441 3.07079 16.1885C3.21671 15.936 3.53986 15.8503 3.79247 15.9961L4.60204 16.4629V15.5283C4.60204 15.2367 4.83783 15.0003 5.12939 15Z" fill="currentColor"/>
<path d="M17.8091 15C18.1006 15.0003 18.3374 15.2367 18.3374 15.5283V16.4629L19.146 15.9961C19.3986 15.8503 19.7218 15.936 19.8677 16.1885C20.0135 16.441 19.9267 16.7642 19.6743 16.9102L18.8647 17.377L19.6743 17.8447C19.9264 17.9908 20.0134 18.314 19.8677 18.5664C19.7218 18.8187 19.3985 18.9053 19.146 18.7598L18.3374 18.292V19.2266C18.3373 19.5181 18.1006 19.7546 17.8091 19.7549C17.5174 19.7548 17.2808 19.5182 17.2808 19.2266V18.292L16.4722 18.7598C16.2197 18.9055 15.8965 18.8186 15.7505 18.5664C15.6047 18.3138 15.6914 17.9907 15.9438 17.8447L16.7524 17.377L15.9438 16.9102C15.6914 16.7642 15.6047 16.4411 15.7505 16.1885C15.8965 15.9362 16.2196 15.8504 16.4722 15.9961L17.2808 16.4629V15.5283C17.2808 15.2366 17.5174 15.0001 17.8091 15Z" fill="currentColor"/>
<path d="M10.9507 8.5C12.469 8.50012 14.1896 9.64292 13.9233 11.3291C15.0278 11.3293 15.9233 12.2246 15.9233 13.3291C15.9232 14.4335 15.2198 15.1012 13.9233 15.3291C12.1712 15.637 10.2746 15.5 8.50048 15.5C7.11986 15.4999 6.00048 14.3806 6.00048 13C6.00048 11.7909 6.85893 10.7819 7.9995 10.5498C8.25397 9.38403 9.47831 8.5 10.9507 8.5Z" fill="currentColor"/>
<path d="M12.0005 2C14.0053 2.0001 15.7338 3.06266 16.5308 4.5957C18.7977 5.02321 20.5005 6.83267 20.5005 9C20.5005 10.8203 19.2987 12.3866 17.571 13.0951C17.4465 13.1462 17.3124 13.0551 17.2964 12.9216C17.1503 11.6967 16.3549 10.6718 15.2622 10.2031C14.832 8.28491 12.8765 7.09973 10.9507 7.09961C9.27227 7.09961 7.62536 7.97045 6.91259 9.44043C6.12049 9.79439 5.46729 10.4034 5.05949 11.1637C4.97783 11.3159 4.75452 11.3204 4.6981 11.1571C4.06862 9.33593 5.08879 7.21118 7.00438 6.64355C6.90983 3.92913 9.44357 2 12.0005 2Z" fill="currentColor"/>
  </symbol>
  <symbol id="icon-catalog-ski" viewBox="0 0 24 24" fill="none">
<path d="M11.2931 4.22177C12.2313 3.28356 13.5193 2.91046 14.7371 3.09942C14.8547 3.11767 14.9231 3.23843 14.8981 3.3548C14.7531 4.02864 14.9412 4.7597 15.4646 5.28312L18.7171 8.53553C19.2404 9.05886 19.9711 9.24636 20.6448 9.10137C20.7611 9.07634 20.8818 9.14467 20.9001 9.26225C21.0894 10.4803 20.7168 11.7686 19.7784 12.707L18.3642 14.1213C17.1926 15.2928 15.2931 12.9497 14.1216 14.1213C12.95 15.2928 15.2931 17.1923 14.1216 18.3639L12.7073 19.7781C11.7688 20.7166 10.4801 21.0899 9.26186 20.9005C9.14428 20.8822 9.07596 20.7615 9.10102 20.6452C9.24611 19.9715 9.05864 19.241 8.53513 18.7175L5.28272 15.465C4.75899 14.9413 4.02768 14.7523 3.35387 14.8976C3.23744 14.9227 3.11656 14.8543 3.09833 14.7366C2.90967 13.5189 3.28398 12.2309 4.22206 11.2928L11.2931 4.22177Z" fill="currentColor"/>
<path d="M3.30296 16.4546C3.57633 16.1813 4.01986 16.1813 4.29318 16.4546L7.5456 19.707C7.81892 19.9803 7.81883 20.4238 7.5456 20.6972C7.27223 20.9706 6.82874 20.9706 6.55537 20.6972L3.30296 17.4448C3.02959 17.1714 3.02959 16.7279 3.30296 16.4546Z" fill="currentColor"/>
<path d="M16.4549 3.30267C16.7282 3.0293 17.1717 3.0293 17.4451 3.30267L20.6975 6.55508C20.9709 6.82845 20.9709 7.27194 20.6975 7.54531C20.4241 7.81854 19.9806 7.81863 19.7073 7.54531L16.4549 4.29289C16.1815 4.01957 16.1816 3.57604 16.4549 3.30267Z" fill="currentColor"/>
  </symbol>
  <symbol id="icon-catalog-divider" viewBox="0 0 2 16" fill="none">

<path d="M1 0V16" stroke="currentColor" stroke-width="2" stroke-linejoin="round"/>

  </symbol>
  <symbol id="icon-catalog-sort" viewBox="0 0 16 16" fill="none">

<path d="M5 12.5V3" stroke="currentColor" stroke-width="2"/>
<path d="M11 3.5V13" stroke="currentColor" stroke-width="2"/>
<path d="M2 11L5 13L8 11" stroke="currentColor" stroke-width="2"/>
<path d="M8 5L11 3L14 5" stroke="currentColor" stroke-width="2"/>

  </symbol>
  <symbol id="icon-catalog-filter" viewBox="0 0 16 16" fill="none">

<path d="M2 11H10" stroke="currentColor" stroke-width="2"/>
<path d="M6 5H14" stroke="currentColor" stroke-width="2"/>
<circle cx="12" cy="11" r="2" stroke="currentColor" stroke-width="2"/>
<circle cx="4" cy="5" r="2" stroke="currentColor" stroke-width="2"/>

  </symbol>
  <symbol id="icon-catalog-chevron" viewBox="0 0 16 16" fill="none">

<path d="M4.69529 6.97546C4.50463 6.81203 4.44758 6.56621 4.55076 6.35268C4.65396 6.1392 4.89704 6.00001 5.16665 6L11.8333 6C12.103 6 12.346 6.1392 12.4492 6.35268C12.5524 6.56621 12.4954 6.81203 12.3047 6.97546L8.97135 9.83263C8.711 10.0558 8.28899 10.0558 8.02864 9.83263L4.69529 6.97546Z" fill="currentColor"/>

  </symbol>

  <symbol id="icon-product-zoom" viewBox="0 0 24 24" fill="none">
    <path d="M12 9L12 15" stroke="currentColor" stroke-width="2" stroke-linejoin="round"/>
    <path d="M15 12H9" stroke="currentColor" stroke-width="2" stroke-linejoin="round"/>
    <circle cx="12" cy="12" r="8" stroke="currentColor" stroke-width="2" stroke-linejoin="round"/>
    <path d="M17 18L20 21" stroke="currentColor" stroke-width="2" stroke-linejoin="round"/>
  </symbol>

  <symbol id="icon-stock-sep" viewBox="0 0 1 12" fill="none">
    <path d="M0.5 0V12" stroke="currentColor"/>
  </symbol>

  <symbol id="icon-color-bw" viewBox="0 0 16 16" fill="none">
    <path d="M8 0C6.94943 0 5.90914 0.206926 4.93853 0.608964C3.96793 1.011 3.08601 1.60028 2.34315 2.34315C1.60028 3.08601 1.011 3.96793 0.608964 4.93853C0.206926 5.90914 0 6.94943 0 8C0 9.05058 0.206926 10.0909 0.608964 11.0615C1.011 12.0321 1.60028 12.914 2.34315 13.6569C3.08601 14.3997 3.96793 14.989 4.93853 15.391C5.90914 15.7931 6.94943 16 8 16L8 8V0Z" fill="#5E5E5E"/>
    <path d="M8 16C9.05057 16 10.0909 15.7931 11.0615 15.391C12.0321 14.989 12.914 14.3997 13.6569 13.6569C14.3997 12.914 14.989 12.0321 15.391 11.0615C15.7931 10.0909 16 9.05057 16 8C16 6.94942 15.7931 5.90914 15.391 4.93853C14.989 3.96793 14.3997 3.08601 13.6569 2.34314C12.914 1.60028 12.0321 1.011 11.0615 0.608963C10.0909 0.206926 9.05057 0 8 0L8 8L8 16Z" fill="white"/>
  </symbol>

  <symbol id="icon-product-info-exchange" viewBox="0 0 24 24" fill="none">
    <path fill-rule="evenodd" clip-rule="evenodd" d="M13 8.99979C13 8.80204 13.0587 8.60874 13.1686 8.44433C13.2785 8.27992 13.4346 8.15178 13.6173 8.07611C13.8 8.00044 14.0011 7.98064 14.195 8.0192C14.389 8.05777 14.5671 8.15298 14.707 8.29279L19.707 13.2928C19.8945 13.4803 19.9998 13.7346 19.9998 13.9998C19.9998 14.265 19.8945 14.5193 19.707 14.7068L14.707 19.7068C14.5671 19.8466 14.389 19.9418 14.195 19.9804C14.0011 20.0189 13.8 19.9991 13.6173 19.9235C13.4346 19.8478 13.2785 19.7197 13.1686 19.5552C13.0587 19.3908 13 19.1975 13 18.9998L13 8.99979Z" fill="currentColor"/>
    <path fill-rule="evenodd" clip-rule="evenodd" d="M11 4.99979C11 4.80204 10.9413 4.60874 10.8314 4.44433C10.7215 4.27992 10.5654 4.15178 10.3827 4.07611C10.2 4.00044 9.99892 3.98064 9.80497 4.0192C9.61102 4.05777 9.43285 4.15298 9.293 4.29279L4.293 9.29279C4.10553 9.48032 4.00021 9.73462 4.00021 9.99979C4.00021 10.265 4.10553 10.5193 4.293 10.7068L9.293 15.7068C9.43285 15.8466 9.61102 15.9418 9.80497 15.9804C9.99892 16.0189 10.2 15.9991 10.3827 15.9235C10.5654 15.8478 10.7215 15.7197 10.8314 15.5552C10.9413 15.3908 11 15.1975 11 14.9998L11 4.99979Z" fill="currentColor"/>
  </symbol>

  <symbol id="icon-product-info-warranty" viewBox="0 0 24 24" fill="none">
    <path fill-rule="evenodd" clip-rule="evenodd" d="M6.99979 5.99951C6.80204 5.99955 6.60874 6.05823 6.44433 6.16811C6.27992 6.27799 6.15178 6.43416 6.07611 6.61686C6.00044 6.79956 5.98064 15.0011 6.0192 15.1951C6.05777 15.389 6.15298 15.5672 6.29279 15.707L11.2928 19.707C11.4803 19.8945 11.7346 19.9998 11.9998 19.9998C12.265 19.9998 12.5193 19.8945 12.7068 19.707L17.7068 15.707C17.8466 15.5672 17.9418 15.389 17.9804 15.1951C18.0189 15.0011 17.9991 6.79956 17.9235 6.61686C17.8478 6.43416 17.7197 6.27799 17.5552 6.16811C17.3908 6.05823 17.1975 5.99955 16.9998 5.99951L11.9998 3.99951L6.99979 5.99951Z" fill="currentColor"/>
    <path d="M12.1466 9.00493C13.1633 8.9947 14.1969 9.00362 15.215 9.00325L16.3103 9.00303C16.5281 9.00305 16.7863 8.99733 16.9993 9.01255C16.9638 9.12478 16.8095 9.32057 16.7363 9.42857C16.5224 9.74403 16.3093 10.0327 16.1034 10.3542C15.3745 10.3747 14.6007 10.3429 13.8683 10.3561C13.5835 10.3613 13.2383 10.3434 12.9615 10.3619L12.6687 10.8193C13.2441 10.8345 13.8258 10.8158 14.4018 10.8235C14.4835 10.8246 14.7684 10.812 14.8214 10.8602C14.8201 10.9174 14.263 11.6977 14.1832 11.8103C14.0912 11.9451 14.0183 12.0632 13.9355 12.2031C13.2202 12.2055 12.3933 12.1828 11.6883 12.2064L10.8208 13.4666C10.6878 13.6562 10.6014 13.8474 10.4175 14C10.2055 13.6993 9.98846 13.4033 9.78843 13.0958C9.71307 12.98 9.61801 12.873 9.55078 12.7519C9.70318 12.5608 9.79248 12.4152 9.9265 12.2174L10.3649 11.5818L12.1466 9.00493Z" fill="#1F1F1F"/>
    <path d="M7.00009 9.01013C7.20143 8.99231 7.58448 9.00341 7.80228 9.00345L9.35355 9.00379L10.7415 9.00292C10.9342 9.00286 11.3354 8.9934 11.5144 9.01971C11.4848 9.08009 11.4526 9.13476 11.4115 9.18911C11.2449 9.40928 11.1053 9.64869 10.942 9.86962C10.812 10.0294 10.7313 10.1966 10.6033 10.3544C10.3135 10.364 9.96693 10.3561 9.67273 10.3561L7.89305 10.3557C7.78623 10.2183 7.64258 9.98518 7.53955 9.84183C7.46261 9.73477 6.9927 9.07984 7.00009 9.01013Z" fill="#1F1F1F"/>
  </symbol>

  <symbol id="icon-product-info-payment" viewBox="0 0 24 24" fill="none">
    <rect x="4" y="7" width="16" height="10" rx="1" fill="currentColor"/>
    <rect x="5" y="15" width="2" height="1" rx="0.5" fill="#1F1F1F"/>
    <rect x="5" y="8" width="2" height="1" rx="0.5" fill="#1F1F1F"/>
    <rect x="8" y="15" width="4" height="1" rx="0.5" fill="#1F1F1F"/>
  </symbol>

  <symbol id="icon-product-info-chevron" viewBox="0 0 16 16" fill="none">
    <path d="M4.19529 6.97546C4.00463 6.81203 3.94758 6.56621 4.05076 6.35268C4.15396 6.1392 4.39704 6.00001 4.66665 6L11.3333 6C11.603 6 11.846 6.1392 11.9492 6.35268C12.0524 6.56621 11.9954 6.81203 11.8047 6.97546L8.47135 9.83263C8.211 10.0558 7.78899 10.0558 7.52864 9.83263L4.19529 6.97546Z" fill="currentColor"/>
  </symbol>

  <symbol id="icon-product-info-flag-ru" viewBox="0 0 24 24" fill="none">
    <rect x="0.5" y="0.5" width="22.3368" height="22.3368" rx="11.1684" stroke="currentColor"/>
    <path d="M11.6684 22.3368C5.77641 22.3368 1 17.5604 1 11.6684C1 5.77641 5.77641 1 11.6684 1C17.5604 1 22.3368 5.77641 22.3368 11.6684C22.3368 17.5604 17.5604 22.3368 11.6684 22.3368Z" fill="#0052B5"/>
    <path d="M21.6642 7.93468C20.1506 3.88424 16.2468 1 11.6684 1C7.09003 1 3.1843 3.88424 1.67074 7.93468L21.6642 7.93468Z" fill="white"/>
    <path d="M1.67142 15.4016C3.18498 19.452 7.09003 22.3368 11.6684 22.3368C16.2468 22.3368 20.1513 19.452 21.6648 15.4016L1.67142 15.4016Z" fill="#D90026"/>
  </symbol>

  <symbol id="icon-product-info-mark" viewBox="0 0 64 64" fill="none">
    <path d="M31.9941 0V64" stroke="currentColor"/>
    <path d="M64 31.9941L1.49012e-06 31.9941" stroke="currentColor"/>
    <path d="M54.2559 54.2559L37.2853 37.2853" stroke="currentColor"/>
    <path d="M54.248 9L37.2775 25.9706" stroke="currentColor"/>
    <path d="M25.9707 25.9707L9.00014 9.00014" stroke="currentColor"/>
    <path d="M25.9648 37.2832L8.99428 54.2538" stroke="currentColor"/>
  </symbol>

  <!-- Review section icons -->
  <symbol id="icon-review-plus" viewBox="0 0 16 16" fill="none">
    <rect width="16" height="16" rx="8" fill="white"/>
    <path d="M8 3L8 13" stroke="currentColor" stroke-width="2" stroke-linejoin="round"/>
    <path d="M13 8H3" stroke="currentColor" stroke-width="2" stroke-linejoin="round"/>
  </symbol>

  <symbol id="icon-review-minus" viewBox="0 0 16 16" fill="none">
    <rect width="16" height="16" rx="8" fill="white"/>
    <path d="M13 8H3" stroke="currentColor" stroke-width="2" stroke-linejoin="round"/>
  </symbol>

  <symbol id="icon-review-comment" viewBox="0 0 16 16" fill="none">
    <rect width="16" height="16" rx="8" fill="white"/>
    <path d="M13 6H3" stroke="currentColor" stroke-width="2" stroke-linejoin="round"/>
    <path d="M8 10H3" stroke="currentColor" stroke-width="2" stroke-linejoin="round"/>
  </symbol>

  <symbol id="icon-sort-arrow" viewBox="0 0 16 16" fill="none">
    <path d="M4.695 6.975a.5.5 0 0 0 .472.808h6.666a.5.5 0 0 0 .373-.808L8.97 3.638a.667.667 0 0 0-1.942 0L4.695 6.975Z" fill="currentColor"/>
  </symbol>

  <symbol id="icon-load-more" viewBox="0 0 16 16" fill="none">
    <path d="M7.475 11.805a.5.5 0 0 1-.622-.618L6.5 4.667a.5.5 0 0 1 .853-.354l2.857 3.333a.667.667 0 0 1 0 .708L7.475 11.805Z" fill="currentColor"/>
  </symbol>

  <symbol id="icon-check-sm" viewBox="0 0 16 16" fill="none">
    <path d="M13.333 4L6 11.333 2.666 8" stroke="currentColor" stroke-width="2" stroke-linecap="square"/>
  </symbol>

  <symbol id="icon-upload-arrow" viewBox="0 0 16 16" fill="none">
    <path d="M2 7.99967H12H2ZM12 7.99967L8.11111 3.33301L12 7.99967ZM12 7.99967L8.11111 12.6663L12 7.99967Z" fill="currentColor"/>
    <path d="M2 7.99967H12M8.11111 12.6663L12 7.99967L8.11111 3.33301" stroke="currentColor" stroke-width="2"/>
  </symbol>

  <symbol id="icon-cart-trash" viewBox="0 0 16 16" fill="none">
    <path fill-rule="evenodd" clip-rule="evenodd" d="M6 1.3335C5.87623 1.33356 5.75491 1.36808 5.64965 1.4332C5.54439 1.49831 5.45933 1.59144 5.404 1.70216L4.25467 4.00016H2.66667C2.48986 4.00016 2.32029 4.0704 2.19526 4.19543C2.07024 4.32045 2 4.49002 2 4.66683C2 4.84364 2.07024 5.01321 2.19526 5.13823C2.32029 5.26326 2.48986 5.3335 2.66667 5.3335H3.33333V12.6668C3.33333 13.1973 3.54405 13.706 3.91912 14.081C4.29419 14.4561 4.8029 14.6668 5.33333 14.6668H10.6667C11.1971 14.6668 11.7058 14.4561 12.0809 14.081C12.456 13.706 12.6667 13.1973 12.6667 12.6668V5.3335H13.3333C13.5101 5.3335 13.6797 5.26326 13.8047 5.13823C13.9298 5.01321 14 4.84364 14 4.66683C14 4.49002 13.9298 4.32045 13.8047 4.19543C13.6797 4.0704 13.5101 4.00016 13.3333 4.00016H11.7453L10.596 1.70216C10.5407 1.59144 10.4556 1.49831 10.3504 1.4332C10.2451 1.36808 10.1238 1.33356 10 1.3335H6ZM10.2547 4.00016L9.588 2.66683H6.412L5.74533 4.00016H10.2547Z" fill="currentColor"/>
  </symbol>

  <symbol id="icon-cart-card" viewBox="0 0 24 24" fill="none">
    <path fill-rule="evenodd" clip-rule="evenodd" d="M2 5C2 4.73478 2.10536 4.48043 2.29289 4.29289C2.48043 4.10536 2.73478 4 3 4H21C21.2652 4 21.5196 4.10536 21.7071 4.29289C21.8946 4.48043 22 4.73478 22 5V8H2V5ZM2 10V17C2 17.7956 2.31607 18.5587 2.87868 19.1213C3.44129 19.6839 4.20435 20 5 20H19C19.7956 20 20.5587 19.6839 21.1213 19.1213C21.6839 18.5587 22 17.7956 22 17V10H2ZM6 13C6 12.7348 6.10536 12.4804 6.29289 12.2929C6.48043 12.1054 6.73478 12 7 12H10C10.2652 12 10.5196 12.1054 10.7071 12.2929C10.8946 12.4804 11 12.7348 11 13C11 13.2652 10.8946 13.5196 10.7071 13.7071C10.5196 13.8946 10.2652 14 10 14H7C6.73478 14 6.48043 13.8946 6.29289 13.7071C6.10536 13.5196 6 13.2652 6 13Z" fill="currentColor"/>
  </symbol>

  <symbol id="icon-cart-delivery" viewBox="0 0 24 24" fill="none">
    <path fill-rule="evenodd" clip-rule="evenodd" d="M1 3C1 2.73478 1.10536 2.48043 1.29289 2.29289C1.48043 2.10536 1.73478 2 2 2H13C13.2652 2 13.5196 2.10536 13.7071 2.29289C13.8946 2.48043 14 2.73478 14 3V8H18C18.6566 8 19.3068 8.12933 19.9134 8.3806C20.52 8.63188 21.0712 9.00017 21.5355 9.46447C21.9998 9.92876 22.3681 10.48 22.6194 11.0866C22.8707 11.6932 23 12.3434 23 13V17C23.0003 17.6438 22.7934 18.2706 22.41 18.7878C22.0266 19.305 21.4871 19.6851 20.871 19.872C20.6876 20.477 20.3178 21.0086 19.8143 21.3909C19.3108 21.7732 18.6994 21.9867 18.0674 22.0009C17.4353 22.0151 16.815 21.8293 16.2948 21.47C15.7747 21.1106 15.3814 20.5962 15.171 20H8.83C8.61962 20.5962 8.22629 21.1106 7.70616 21.47C7.18602 21.8293 6.56566 22.0151 5.93363 22.0009C5.3016 21.9867 4.69021 21.7732 4.18673 21.3909C3.68324 21.0086 3.3134 20.477 3.13 19.872C2.51376 19.6853 1.97395 19.3052 1.59037 18.788C1.20679 18.2708 0.999803 17.6439 1 17V13H7C7.26522 13 7.51957 12.8946 7.70711 12.7071C7.89464 12.5196 8 12.2652 8 12C8 11.7348 7.89464 11.4804 7.70711 11.2929C7.51957 11.1054 7.26522 11 7 11H1V9H5C5.26522 9 5.51957 8.89464 5.70711 8.70711C5.89464 8.51957 6 8.26522 6 8C6 7.73478 5.89464 7.48043 5.70711 7.29289C5.51957 7.10536 5.26522 7 5 7H1V3ZM14 18H15.171C15.3687 17.4404 15.7279 16.9521 16.2032 16.5967C16.6785 16.2414 17.2485 16.0349 17.8411 16.0036C18.4337 15.9722 19.0223 16.1173 19.5325 16.4205C20.0426 16.7237 20.4513 17.1714 20.707 17.707C20.8946 17.5195 20.9999 17.2652 21 17V13C21 12.2044 20.6839 11.4413 20.1213 10.8787C19.5587 10.3161 18.7956 10 18 10H14V18ZM7 19C7 18.7348 6.89464 18.4804 6.70711 18.2929C6.51957 18.1054 6.26522 18 6 18C5.73478 18 5.48043 18.1054 5.29289 18.2929C5.10536 18.4804 5 18.7348 5 19C5 19.2652 5.10536 19.5196 5.29289 19.7071C5.48043 19.8946 5.73478 20 6 20C6.26522 20 6.51957 19.8946 6.70711 19.7071C6.89464 19.5196 7 19.2652 7 19ZM17.293 18.293C17.1054 18.4805 17.0001 18.7348 17 19C17 19.2314 17.0801 19.4556 17.2269 19.6344C17.3736 19.8133 17.5778 19.9358 17.8047 19.981C18.0316 20.0261 18.2672 19.9912 18.4712 19.8822C18.6753 19.7732 18.8352 19.5968 18.9238 19.3831C19.0124 19.1693 19.0241 18.9315 18.957 18.7101C18.8899 18.4887 18.7481 18.2974 18.5557 18.1688C18.3634 18.0403 18.1324 17.9824 17.9021 18.005C17.6719 18.0277 17.4566 18.1294 17.293 18.293Z" fill="currentColor"/>
  </symbol>

  <symbol id="icon-cart-location" viewBox="0 0 24 24" fill="none">
    <path fill-rule="evenodd" clip-rule="evenodd" d="M18.2077 4.79368C16.5615 3.14748 14.3288 2.22266 12.0007 2.22266C9.6726 2.22266 7.43988 3.14748 5.79368 4.79368C4.14748 6.43988 3.22266 8.6726 3.22266 11.0007C3.22266 13.3288 4.14748 15.5615 5.79368 17.2077L11.2937 22.7077C11.4812 22.8952 11.7355 23.0005 12.0007 23.0005C12.2658 23.0005 12.5202 22.8952 12.7077 22.7077L18.2077 17.2077C19.8534 15.5612 20.7779 13.3286 20.7779 11.0007C20.7779 8.67276 19.8534 6.44014 18.2077 4.79368ZM10.5007 11.0007C10.5007 10.6029 10.6587 10.2213 10.94 9.94002C11.2213 9.65872 11.6029 9.50068 12.0007 9.50068H12.0107C12.4085 9.50068 12.79 9.65872 13.0713 9.94002C13.3526 10.2213 13.5107 10.6029 13.5107 11.0007V11.0107C13.5107 11.4085 13.3526 11.79 13.0713 12.0713C12.79 12.3526 12.4085 12.5107 12.0107 12.5107H12.0007C11.6029 12.5107 11.2213 12.3526 10.94 12.0713C10.6587 11.79 10.5007 11.4085 10.5007 11.0107V11.0007Z" fill="currentColor"/>
  </symbol>

  <symbol id="icon-cart-arrow-right" viewBox="0 0 24 24" fill="none">
    <path d="M5 12H18M14 8L18 12L14 16" stroke="currentColor" stroke-width="2" stroke-linecap="square" stroke-linejoin="miter"/>
  </symbol>

  <symbol id="icon-cart-share" viewBox="0 0 16 16" fill="none">
    <path d="M13 10V12C13 12.5523 12.5523 13 12 13H4C3.44772 13 3 12.5523 3 12V10" stroke="currentColor" stroke-width="2"/>
    <path d="M5 5L8 3L11 5" stroke="currentColor" stroke-width="2"/>
    <path d="M8 4V10" stroke="currentColor" stroke-width="2"/>
  </symbol>

  <symbol id="icon-cart-pay-grid" viewBox="0 0 16 16" fill="none">
    <circle cx="4.5" cy="11.5" r="3" fill="currentColor"/>
    <circle cx="11.5" cy="11.5" r="3" fill="currentColor"/>
    <circle cx="4.5" cy="4.5" r="3" fill="currentColor"/>
    <circle cx="11.5" cy="4.5" r="2.5" stroke="currentColor"/>
  </symbol>

  <symbol id="icon-cart-tbank" viewBox="0 0 24 24" fill="none">
    <rect width="24" height="24" rx="12" fill="#FFDD2D"/>
    <path fill-rule="evenodd" clip-rule="evenodd" d="M7 7V10.7988C7.47416 10.2122 8.33627 9.81515 9.32198 9.81515H10.3932V14.2312C10.3932 15.406 10.1018 16.4344 9.66947 17H14.3289C13.8975 16.4338 13.6068 15.4067 13.6068 14.2334V9.81515H14.678C15.6637 9.81515 16.5258 10.2122 17 10.7988V7H7Z" fill="#333"/>
  </symbol>

  <symbol id="icon-cart-bonus" viewBox="0 0 16 16" fill="none">
    <circle cx="9.64844" cy="6.35352" r="4.75195" fill="#338532"/>
    <circle cx="6.35156" cy="9.65039" r="5.25195" fill="#338532" stroke="white"/>
  </symbol>

  <symbol id="icon-cart-minus" viewBox="0 0 24 24" fill="none">
    <path d="M20.3078 12H3.69238" stroke="currentColor" stroke-width="2" stroke-linejoin="round"/>
  </symbol>

  <symbol id="icon-cart-plus" viewBox="0 0 24 24" fill="none">
    <path d="M12 3.69223L12 20.3076" stroke="currentColor" stroke-width="2" stroke-linejoin="round"/>
    <path d="M20.3078 12H3.69238" stroke="currentColor" stroke-width="2" stroke-linejoin="round"/>
  </symbol>

  <symbol id="icon-cart-close" viewBox="0 0 24 24" fill="none">
    <path d="M17.8743 6.12566L6.12549 17.8745" stroke="currentColor" stroke-width="2" stroke-linejoin="round"/>
    <path d="M17.8748 17.8743L6.12598 6.12549" stroke="currentColor" stroke-width="2" stroke-linejoin="round"/>
  </symbol>

  <symbol id="icon-cart-arrow-nav" viewBox="0 0 24 24" fill="none">
    <path fill-rule="evenodd" clip-rule="evenodd" d="M9 6.99979C9.00004 6.80204 9.05871 6.60874 9.1686 6.44433C9.27848 6.27992 9.43465 6.15178 9.61735 6.07611C9.80005 6.00044 10.0011 5.98064 10.195 6.0192C10.389 6.05777 10.5671 6.15298 10.707 6.29279L15.707 11.2928C15.8945 11.4803 15.9998 11.7346 15.9998 11.9998C15.9998 12.265 15.8945 12.5193 15.707 12.7068L10.707 17.7068C10.5671 17.8466 10.389 17.9418 10.195 17.9804C10.0011 18.0189 9.80005 17.9991 9.61735 17.9235C9.43465 17.8478 9.27848 17.7197 9.1686 17.5552C9.05871 17.3908 9.00004 17.1975 9 16.9998L9 6.99979Z" fill="currentColor"/>
  </symbol>

  <symbol id="icon-cart-down-arrow" viewBox="0 0 16 16" fill="none">
    <path d="M4.19529 6.97546C4.00463 6.81203 3.94758 6.56621 4.05076 6.35268C4.15396 6.1392 4.39704 6.00001 4.66665 6L11.3333 6C11.603 6 11.846 6.1392 11.9492 6.35268C12.0524 6.56621 11.9954 6.81203 11.8047 6.97546L8.47135 9.83263C8.211 10.0558 7.78899 10.0558 7.52864 9.83263L4.19529 6.97546Z" fill="currentColor"/>
  </symbol>

  <symbol id="icon-promo-check" viewBox="0 0 16 16" fill="none">
    <path d="M13.3332 4L5.99984 11.3333L2.6665 8" stroke="currentColor" stroke-width="2" stroke-linecap="square"/>
  </symbol>

</svg>
