<svg width="16" height="16" viewBox="0 0 16 16" fill="none" xmlns="http://www.w3.org/2000/svg">
<g clip-path="url(#clip0_1791_31725)">
<path d="M5.67383 12.167C6.50204 12.1672 7.17383 12.8387 7.17383 13.667V13.6738C7.17374 14.502 6.50198 15.1736 5.67383 15.1738H5.66699C4.83862 15.1738 4.16708 14.5022 4.16699 13.6738V13.667C4.16699 12.8386 4.83857 12.167 5.66699 12.167H5.67383ZM11.6738 12.167C12.502 12.1672 13.1738 12.8387 13.1738 13.667V13.6738C13.1737 14.502 12.502 15.1736 11.6738 15.1738H11.667C10.8386 15.1738 10.1671 14.5022 10.167 13.6738V13.667C10.167 12.8386 10.8386 12.167 11.667 12.167H11.6738ZM3.33301 1C3.85539 1 4.28977 1.40208 4.33008 1.92285L4.41309 3H14C14.2844 3 14.5554 3.12109 14.7451 3.33301C14.9348 3.54493 15.0255 3.82768 14.9941 4.11035L14.5107 8.45508C14.3509 9.89366 13.1869 11.0131 11.7432 11.1162L6.05566 11.5225C4.4094 11.6401 2.97717 10.4054 2.85059 8.75977L2.49023 4.07715L2.40723 3H2C1.44772 3 1 2.55228 1 2C1 1.44772 1.44772 1 2 1H3.33301Z" fill="#201E1E"/>
</g>
<defs>
<clipPath id="clip0_1791_31725">
<rect width="16" height="16" fill="white"/>
</clipPath>
</defs>
</svg>
