<svg width="24" height="24" viewBox="0 0 24 24" fill="none" xmlns="http://www.w3.org/2000/svg">
<path fill-rule="evenodd" clip-rule="evenodd" d="M12.0002 3C14.7616 3 17.0002 5.23858 17.0002 8H20.0002C20.281 8 20.549 8.11793 20.7385 8.3252C20.9279 8.53266 21.0217 8.81101 20.9963 9.09082L20.1613 18.2715C20.0209 19.8166 18.7255 20.9999 17.174 21H6.82636C5.27487 20.9999 3.97953 19.8166 3.83906 18.2715L3.0041 9.09082C2.97866 8.81101 3.07245 8.53266 3.26191 8.3252C3.45136 8.11793 3.71938 8 4.00019 8H7.00019C7.00019 5.23858 9.23877 3 12.0002 3ZM12.0002 5C10.3433 5 9.00019 6.34315 9.00019 8H15.0002C15.0002 6.34315 13.657 5 12.0002 5Z" fill="white"/>
</svg>
