<svg preserveAspectRatio="none" width="100%" height="100%" overflow="visible" style="display: block;" viewBox="0 0 1400 146.946" fill="none" xmlns="http://www.w3.org/2000/svg">
<g id="Group 1321317494">
<path id="Vector" d="M828.48 0.471381C857.286 -0.532858 887.283 1.04026 916.097 0.32643C953.7 -0.605369 985.63 0.0163327 981.189 49.5867C979.796 65.139 976.091 70.9126 964.682 80.7358C979.13 88.5504 977.54 101.352 976.07 115.866C975.446 122.047 975.117 128.129 974.032 134.289C968.281 134.52 942.15 134.885 937.696 133.932C936.176 132.358 936.674 132.38 936.576 129.481C937.283 122.551 940.133 105.542 936.218 100.943C931.918 95.8957 907.93 97.2008 901.732 97.2202L857.636 97.3495C857.111 103.963 856.06 129.492 853.791 133.71C851.235 136.132 821.112 146.041 816.559 145.877C814.024 139.566 823.829 65.3618 823.759 52.079C823.731 46.2529 827.387 4.90199 828.48 0.471381ZM939.342 60.6834C942.669 55.0053 944.763 46.4549 943.159 39.8922C942.858 38.6834 941.933 36.4549 940.827 35.8024C934.754 32.2213 874.228 33.9971 862.798 34.0251C861.825 43.0075 860.984 53.8181 860.452 62.8911L907.447 63.0916C915.256 63.1038 933.032 64.1997 939.342 60.6834Z" fill="var(--fill-0, #1F1F1F)"/>
<path id="Vector_2" d="M462.226 0.452174C479.297 -0.0407471 501.311 0.0630213 518.363 0.529136C522.525 5.1729 528.916 14.6994 532.958 20.1066C546.422 38.1906 559.715 56.4091 572.834 74.7583C576.627 79.9692 587.433 95.1327 591.594 99.188C594.173 67.6947 596.293 31.5345 599.985 0.508011C610.461 -0.0311907 626.856 0.188425 637.391 0.570028C637.421 12.4263 634.834 35.6689 633.824 48.0605C631.565 76.8194 629.16 105.565 626.608 134.298C622.983 134.436 618.833 134.359 615.16 134.383C600.125 134.414 584.055 134.717 569.107 134.237C565.484 128.053 560.646 122.507 556.385 116.72L534.018 85.9218L510.898 54.404C507.399 49.5819 500.827 39.7005 496.987 35.9765C495.85 41.9427 495.318 52.7188 494.585 59.4497C491.883 84.2826 490.311 109.33 488.02 134.231C477.307 138.293 460.608 144.037 449.703 146.887C449.615 144.561 449.539 142.201 449.79 139.884C451.71 122.208 453.117 104.494 454.572 86.7719L459.253 29.574C459.76 23.3563 460.816 5.74545 462.226 0.452174Z" fill="var(--fill-0, #1F1F1F)"/>
<path id="Vector_3" d="M254.299 0.53161C270.119 -0.304106 294.316 0.229779 310.393 0.488493C317.322 7.97551 326.148 21.5848 332.61 30.0943C349.709 52.6081 366.365 77.4331 383.639 99.6781C384.356 88.6943 386.077 76.1452 387.056 64.8359C388.893 43.63 390.241 21.6796 392.532 0.596286C398.108 0.0917228 424.873 -0.323726 429.279 1.57085C430.033 3.36933 419.896 123.089 418.612 134.285L408.55 134.386C393.119 134.417 376.617 134.732 361.273 134.249C355.637 125.413 292.02 38.2746 289.554 37.2376C287.63 40.7583 281.708 123.396 280.556 134.371C274.131 136.512 247.671 146.057 242.724 145.843C242.112 137.33 243.811 121.602 244.536 112.67L249.008 57.9922L252.034 21.2865C252.464 16.0799 253.073 5.04012 254.299 0.53161Z" fill="var(--fill-0, #1F1F1F)"/>
<path id="Vector_4" d="M1072.52 0.439085C1088.03 -0.0043928 1105.49 0.298588 1121.12 0.470704C1142.26 42.5797 1161.43 88.2491 1181.24 131.17C1181.24 131.17 1180.95 133.006 1180.92 133.17C1178 135.392 1144.78 134.42 1138.64 134.213C1136.69 128.769 1132.06 118.009 1129.26 113.019L1100 112.963C1082.35 112.883 1064.7 112.925 1047.05 113.088C1043.1 119.034 1036.93 128.337 1033.65 134.455C1027.21 134.651 995.548 135.179 991.682 133.545C991.339 131.584 991.206 131.114 992.383 129.252C1019.35 86.7263 1044.96 42.5021 1072.52 0.439085ZM1066.99 80.7881C1074.02 81.0598 1081.06 81.1453 1088.09 81.0439C1096.4 81.0346 1106.55 81.3034 1114.72 80.893C1112.41 75.5448 1097.03 38.3692 1093.73 36.6042C1087.81 46.2297 1070.85 72.0917 1066.99 80.7881Z" fill="var(--fill-0, #1F1F1F)"/>
<path id="Vector_5" d="M11.919 0.4697C40.4256 -0.459584 71.7765 0.820182 100.608 0.353348C112.662 0.158163 146.518 -0.4174 156.735 0.807679C156.34 10.1298 155.227 24.6419 153.972 33.7824C144.936 34.4774 129.031 33.988 119.516 33.9829C95.2026 33.8557 70.8884 33.9031 46.5759 34.1245L44.508 60.8977C69.8925 62.3185 105.249 61.2067 131.377 61.1895C137.102 61.1485 142.828 61.2168 148.551 61.3943C148.48 70.5298 146.382 85.7119 145.17 95.1126C134.678 95.5869 121.522 95.2347 110.843 95.2326L41.5691 95.3677C40.8135 106.841 39.741 123.318 38.0957 134.334C29.187 138.119 9.43033 144.168 0.000207219 146.946C-0.0197534 136.837 1.40705 123.349 2.24154 113.074L6.6913 58.4644L9.71356 21.5755C10.1624 16.1101 10.7678 5.41184 11.919 0.4697Z" fill="var(--fill-0, #1F1F1F)"/>
<path id="Vector_6" d="M657.521 0.459495C665.086 0.236498 673.193 0.201211 680.754 0.375196C723.115 1.35011 766.643 -1.04586 808.89 0.587415C808.799 6.15766 807.545 28.7634 805.381 32.8C801.193 34.7662 756.642 33.9987 748.938 34.1252C746.795 51.1141 745.534 74.7209 744.091 92.1115C743.041 106.133 741.885 120.147 740.624 134.15C733.376 137.359 710.13 144.635 702.223 146.709C701.866 138.06 704.268 115.071 705.122 105.217C707.126 81.9527 708.603 57.2326 711.125 34.1317C692.698 33.3929 673.386 34.4709 654.706 33.7573C654.753 26.2884 656.03 7.42054 657.521 0.459495Z" fill="var(--fill-0, #1F1F1F)"/>
<path id="Vector_7" d="M1278.63 0.584218C1288.27 0.130895 1305.18 0.206931 1314.73 0.769561C1314.64 12.3684 1312.73 30.1402 1311.73 42.0863C1310.14 61.0967 1308.87 81.2656 1306.84 100.151C1335.99 101.238 1371.79 98.6885 1400 100.664C1399.96 109.411 1398.45 121.252 1397.84 130.09C1397.67 132.392 1397.29 133.31 1395.75 134.515L1312.38 134.55C1298.69 134.555 1279.79 135.136 1266.42 134.188C1266.5 122.377 1276.28 3.73154 1278.63 0.584218Z" fill="var(--fill-0, #1F1F1F)"/>
<path id="Vector_8" d="M1208.78 0.458801C1219.68 0.114999 1235.24 0.0748252 1246.02 0.610505C1245.81 14.7018 1243.04 39.9889 1241.81 54.5552C1239.64 80.4905 1237.95 108.784 1235.09 134.483L1226.24 137.215C1216.43 140.572 1206.82 143.918 1196.86 146.79C1196.65 140.263 1198.09 126.629 1198.64 119.717L1202.63 70.4689L1206.3 25.4262C1206.82 18.9534 1207.54 6.26461 1208.78 0.458801Z" fill="var(--fill-0, #1F1F1F)"/>
<path id="Vector_9" d="M185.349 0.451799C196.543 0.158734 211.033 0.103111 222.121 0.609327C222.277 12.4514 218.957 45.3322 217.698 58.809C215.576 81.5377 214.335 112.132 211.113 133.998C208.857 135.126 204.138 136.676 201.589 137.586C192.265 140.737 182.52 144.106 173.067 146.674C172.892 137.507 183.811 3.80825 185.349 0.451799Z" fill="var(--fill-0, #1F1F1F)"/>
</g>
</svg>
