<svg width="266" height="65" viewBox="0 0 266 65" fill="none" xmlns="http://www.w3.org/2000/svg">
<g clip-path="url(#clip0_136_4960)">
<path d="M157.029 21.051C162.309 21.2307 167.775 21.8843 173.052 22.1159C179.94 22.418 185.771 22.9262 184.357 31.7015C183.914 34.4547 183.166 35.4371 180.961 37.045C183.508 38.617 183.062 40.8776 182.617 43.4448C182.428 44.5383 182.295 45.6175 182.021 46.7014C180.967 46.671 176.184 46.4108 175.381 46.1856C175.123 45.8862 175.213 45.8963 175.231 45.3787C175.444 44.153 176.171 41.1584 175.511 40.2905C174.786 39.3377 170.384 39.2716 169.25 39.1979L161.186 38.672C161.009 39.8435 160.508 44.3783 160.042 45.1015C159.545 45.5011 153.916 46.8913 153.086 46.8054C152.699 45.6496 155.392 32.5528 155.54 30.1857C155.606 29.1475 156.776 21.8266 157.029 21.051ZM176.571 33.1574C177.248 32.1873 177.735 30.6901 177.521 29.5011C177.481 29.282 177.338 28.8735 177.144 28.7435C176.077 28.03 164.988 27.5928 162.898 27.4555C162.611 29.0435 162.326 30.9589 162.118 32.5685L170.709 33.1893C172.137 33.2887 175.374 33.7052 176.571 33.1574Z" fill="#666666"/>
<path d="M90.0575 16.4885C93.1851 16.6132 97.2093 16.9058 100.322 17.2011C101.026 18.0801 102.079 19.8568 102.753 20.8703C104.996 24.2595 107.205 27.6704 109.382 31.1025C110.012 32.078 111.804 34.9138 112.516 35.688C113.369 30.1098 114.196 23.6946 115.247 18.2134C117.169 18.2478 120.164 18.491 122.086 18.6901C121.948 20.8026 121.193 24.9109 120.858 27.1057C120.096 32.2008 119.308 37.2917 118.493 42.3785C117.828 42.3578 117.07 42.2925 116.398 42.2511C113.649 42.0694 110.706 41.9234 107.979 41.6518C107.391 40.5049 106.574 39.4568 105.865 38.3729L102.149 32.608L98.3033 26.7055C97.7219 25.8029 96.6401 23.9608 95.9831 23.2496C95.7029 24.2983 95.4747 26.2113 95.2591 27.4013C94.4639 31.7914 93.8727 36.2339 93.1517 40.6413C91.1436 41.2314 88.0204 42.0468 85.9917 42.4188C86.0039 42.0033 86.0186 41.5819 86.0927 41.1723C86.6581 38.0474 87.1302 34.9093 87.6111 31.7704L89.1608 21.6393C89.3289 20.538 89.7355 17.4139 90.0575 16.4885Z" fill="#666666"/>
<path d="M52.0358 13.9138C54.9387 13.9618 59.3567 14.3581 62.2934 14.6044C63.4696 16.0244 64.9184 18.5586 65.9969 20.155C68.8505 24.3785 71.595 29.0082 74.484 33.186C74.7483 31.2383 75.2151 29.0242 75.5313 27.0217C76.1244 23.2669 76.637 19.3734 77.3118 15.6461C78.3374 15.6256 83.2366 15.8848 84.0194 16.2772C84.1354 16.607 80.8299 37.8078 80.4593 39.7863L78.6182 39.6791C75.7961 39.4925 72.7748 39.3432 69.9749 39.0662C69.0515 37.4219 58.4755 21.107 58.0372 20.8915C57.6427 21.4947 55.5577 36.1422 55.2139 38.083C54.013 38.3844 49.0589 39.7554 48.1569 39.6557C48.1482 38.1316 48.6497 35.3509 48.8905 33.7687L50.3714 24.084L51.3698 17.5829C51.5116 16.6607 51.7569 14.7016 52.0358 13.9138Z" fill="#666666"/>
<path d="M201.654 24.0834C204.496 24.1976 207.685 24.4689 210.54 24.6941C213.895 32.4587 216.846 40.8329 219.948 48.7256C219.948 48.7256 219.873 49.0491 219.866 49.0779C219.304 49.4372 213.241 48.8506 212.121 48.7373C211.831 47.7433 211.115 45.7688 210.663 44.8449L205.313 44.4708C202.087 44.2367 198.859 44.0246 195.63 43.8339C194.836 44.844 193.595 46.4245 192.92 47.4733C191.74 47.4281 185.945 47.1281 185.258 46.7889C185.219 46.4353 185.2 46.3498 185.438 46.0327C190.885 38.793 196.104 31.2335 201.654 24.0834ZM199.667 38.3281C200.95 38.464 202.236 38.5669 203.523 38.6364C205.043 38.7382 206.896 38.9124 208.394 38.941C208.037 37.9596 205.676 31.1455 205.093 30.79C203.894 32.431 200.478 36.8269 199.667 38.3281Z" fill="#666666"/>
<path d="M7.71583 10.8857C12.9397 11.0751 18.6569 11.6933 23.9346 11.9691C26.1411 12.0844 32.3389 12.4033 34.1922 12.7487C34.0069 14.4045 33.6274 16.9758 33.2872 18.5885C31.6264 18.5998 28.7241 18.3146 26.9842 18.1953C22.5399 17.87 18.0933 17.5757 13.6449 17.3125L12.9421 22.0562C17.5666 22.6253 24.0453 22.8674 28.8231 23.1896C29.8705 23.2536 30.9166 23.337 31.9609 23.4399C31.8372 25.0664 31.2694 27.7449 30.9338 29.4044C29.0095 29.3583 26.6081 29.1318 24.6555 28.9985L11.9866 28.1602C11.7093 30.1946 11.3134 33.1165 10.8789 35.0585C9.20402 35.6218 5.51802 36.4535 3.75997 36.8309C3.87893 35.0298 4.3034 32.6448 4.5806 30.8249L6.05657 21.1519L7.05659 14.6181C7.20496 13.6501 7.44539 11.7518 7.71583 10.8857Z" fill="#666666"/>
<path d="M125.769 18.9204C127.154 18.9749 128.637 19.0695 130.018 19.1946C137.752 19.8957 145.741 20.0107 153.446 20.8276C153.362 21.8187 152.858 25.8302 152.413 26.5223C151.624 26.8204 143.487 26.1291 142.076 26.0557C141.478 29.0555 140.962 33.2452 140.487 36.3252C140.125 38.8099 139.744 41.292 139.343 43.7709C137.979 44.2523 133.64 45.2591 132.169 45.5301C132.208 43.985 132.927 39.9195 133.202 38.1747C133.851 34.0553 134.421 29.67 135.162 25.5862C131.801 25.2252 128.257 25.1768 124.85 24.8171C124.949 23.4872 125.412 20.1419 125.769 18.9204Z" fill="#666666"/>
<path d="M239.34 26.6746C241.109 26.7139 244.201 26.938 245.939 27.1571C245.782 29.2222 245.218 32.3643 244.89 34.48C244.369 37.8467 243.891 41.4238 243.292 44.7629C248.609 45.3194 255.185 45.3108 260.32 46.014C260.206 47.5717 259.786 49.6622 259.567 51.229C259.51 51.6372 259.428 51.7958 259.132 51.9914L243.886 50.9597C241.384 50.7901 237.922 50.6585 235.488 50.3231C235.646 48.2201 238.872 27.206 239.34 26.6746Z" fill="#666666"/>
<path d="M226.57 25.7833C228.567 25.8577 231.412 26.0442 233.376 26.2738C233.168 28.7815 232.355 33.2517 231.954 35.8313C231.241 40.4243 230.59 45.4437 229.755 49.986L228.104 50.3626C226.269 50.8386 224.472 51.3149 222.615 51.7025C222.655 50.5372 223.084 48.1264 223.269 46.9019L224.597 38.1785L225.813 30.2001C225.987 29.0535 226.272 26.802 226.57 25.7833Z" fill="#666666"/>
<path d="M39.4288 13.041C41.4791 13.1281 44.1295 13.2986 46.1508 13.5268C46.0358 15.6383 45.0298 21.4544 44.6362 23.8395C43.9725 27.862 43.3746 33.2967 42.5203 37.1519C42.0941 37.3247 41.2124 37.5421 40.7352 37.6726C38.992 38.1177 37.1693 38.5966 35.4095 38.9365C35.4887 37.3012 39.1067 13.6197 39.4288 13.041Z" fill="#666666"/>
</g>
<defs>
<clipPath id="clip0_136_4960">
<rect width="262.89" height="46.9643" fill="white" transform="translate(3.18994) rotate(3.89467)"/>
</clipPath>
</defs>
</svg>
